<?xml version="1.0" encoding="utf-8" standalone="no"?>
<!DOCTYPE svg PUBLIC "-//W3C//DTD SVG 1.1//EN"
  "http://www.w3.org/Graphics/SVG/1.1/DTD/svg11.dtd">
<svg xmlns:xlink="http://www.w3.org/1999/xlink" width="1140.289844pt" height="429.179688pt" viewBox="0 0 1140.289844 429.179688" xmlns="http://www.w3.org/2000/svg" version="1.1">
 <metadata>
  <rdf:RDF xmlns:dc="http://purl.org/dc/elements/1.1/" xmlns:cc="http://creativecommons.org/ns#" xmlns:rdf="http://www.w3.org/1999/02/22-rdf-syntax-ns#">
   <cc:Work>
    <dc:type rdf:resource="http://purl.org/dc/dcmitype/StillImage"/>
    <dc:date>2025-07-12T09:14:42.490411</dc:date>
    <dc:format>image/svg+xml</dc:format>
    <dc:creator>
     <cc:Agent>
      <dc:title>Matplotlib v3.8.2, https://matplotlib.org/</dc:title>
     </cc:Agent>
    </dc:creator>
   </cc:Work>
  </rdf:RDF>
 </metadata>
 <defs>
  <style type="text/css">*{stroke-linejoin: round; stroke-linecap: butt}</style>
 </defs>
 <g id="figure_1">
  <g id="patch_1">
   <path d="M 0 429.179688 
L 1140.289844 429.179688 
L 1140.289844 0 
L 0 0 
z
" style="fill: #ffffff"/>
  </g>
  <g id="axes_1">
   <g id="patch_2">
    <path d="M 50.409844 386.22 
L 563.569844 386.22 
L 563.569844 84.28 
L 50.409844 84.28 
z
" style="fill: #ffffff"/>
   </g>
   <g id="matplotlib.axis_1">
    <g id="xtick_1">
     <g id="text_1">
      <!-- 0 -->
      <g style="fill: #262626" transform="translate(70.235923 404.078281) scale(0.11 -0.11)">
       <defs>
        <path id="DejaVuSans-30" d="M 2034 4250 
Q 1547 4250 1301 3770 
Q 1056 3291 1056 2328 
Q 1056 1369 1301 889 
Q 1547 409 2034 409 
Q 2525 409 2770 889 
Q 3016 1369 3016 2328 
Q 3016 3291 2770 3770 
Q 2525 4250 2034 4250 
z
M 2034 4750 
Q 2819 4750 3233 4129 
Q 3647 3509 3647 2328 
Q 3647 1150 3233 529 
Q 2819 -91 2034 -91 
Q 1250 -91 836 529 
Q 422 1150 422 2328 
Q 422 3509 836 4129 
Q 1250 4750 2034 4750 
z
" transform="scale(0.015625)"/>
       </defs>
       <use xlink:href="#DejaVuSans-30"/>
      </g>
     </g>
    </g>
    <g id="xtick_2">
     <g id="text_2">
      <!-- 50 -->
      <g style="fill: #262626" transform="translate(169.041173 404.078281) scale(0.11 -0.11)">
       <defs>
        <path id="DejaVuSans-35" d="M 691 4666 
L 3169 4666 
L 3169 4134 
L 1269 4134 
L 1269 2991 
Q 1406 3038 1543 3061 
Q 1681 3084 1819 3084 
Q 2600 3084 3056 2656 
Q 3513 2228 3513 1497 
Q 3513 744 3044 326 
Q 2575 -91 1722 -91 
Q 1428 -91 1123 -41 
Q 819 9 494 109 
L 494 744 
Q 775 591 1075 516 
Q 1375 441 1709 441 
Q 2250 441 2565 725 
Q 2881 1009 2881 1497 
Q 2881 1984 2565 2268 
Q 2250 2553 1709 2553 
Q 1456 2553 1204 2497 
Q 953 2441 691 2322 
L 691 4666 
z
" transform="scale(0.015625)"/>
       </defs>
       <use xlink:href="#DejaVuSans-35"/>
       <use xlink:href="#DejaVuSans-30" x="63.623047"/>
      </g>
     </g>
    </g>
    <g id="xtick_3">
     <g id="text_3">
      <!-- 100 -->
      <g style="fill: #262626" transform="translate(267.846424 404.078281) scale(0.11 -0.11)">
       <defs>
        <path id="DejaVuSans-31" d="M 794 531 
L 1825 531 
L 1825 4091 
L 703 3866 
L 703 4441 
L 1819 4666 
L 2450 4666 
L 2450 531 
L 3481 531 
L 3481 0 
L 794 0 
L 794 531 
z
" transform="scale(0.015625)"/>
       </defs>
       <use xlink:href="#DejaVuSans-31"/>
       <use xlink:href="#DejaVuSans-30" x="63.623047"/>
       <use xlink:href="#DejaVuSans-30" x="127.246094"/>
      </g>
     </g>
    </g>
    <g id="xtick_4">
     <g id="text_4">
      <!-- 150 -->
      <g style="fill: #262626" transform="translate(370.151049 404.078281) scale(0.11 -0.11)">
       <use xlink:href="#DejaVuSans-31"/>
       <use xlink:href="#DejaVuSans-35" x="63.623047"/>
       <use xlink:href="#DejaVuSans-30" x="127.246094"/>
      </g>
     </g>
    </g>
    <g id="xtick_5">
     <g id="text_5">
      <!-- 200 -->
      <g style="fill: #262626" transform="translate(472.455674 404.078281) scale(0.11 -0.11)">
       <defs>
        <path id="DejaVuSans-32" d="M 1228 531 
L 3431 531 
L 3431 0 
L 469 0 
L 469 531 
Q 828 903 1448 1529 
Q 2069 2156 2228 2338 
Q 2531 2678 2651 2914 
Q 2772 3150 2772 3378 
Q 2772 3750 2511 3984 
Q 2250 4219 1831 4219 
Q 1534 4219 1204 4116 
Q 875 4013 500 3803 
L 500 4441 
Q 881 4594 1212 4672 
Q 1544 4750 1819 4750 
Q 2544 4750 2975 4387 
Q 3406 4025 3406 3419 
Q 3406 3131 3298 2873 
Q 3191 2616 2906 2266 
Q 2828 2175 2409 1742 
Q 1991 1309 1228 531 
z
" transform="scale(0.015625)"/>
       </defs>
       <use xlink:href="#DejaVuSans-32"/>
       <use xlink:href="#DejaVuSans-30" x="63.623047"/>
       <use xlink:href="#DejaVuSans-30" x="127.246094"/>
      </g>
     </g>
    </g>
    <g id="text_6">
     <!-- Time Step -->
     <g style="fill: #262626" transform="translate(276.740469 419.484062) scale(0.12 -0.12)">
      <defs>
       <path id="DejaVuSans-54" d="M -19 4666 
L 3928 4666 
L 3928 4134 
L 2272 4134 
L 2272 0 
L 1638 0 
L 1638 4134 
L -19 4134 
L -19 4666 
z
" transform="scale(0.015625)"/>
       <path id="DejaVuSans-69" d="M 603 3500 
L 1178 3500 
L 1178 0 
L 603 0 
L 603 3500 
z
M 603 4863 
L 1178 4863 
L 1178 4134 
L 603 4134 
L 603 4863 
z
" transform="scale(0.015625)"/>
       <path id="DejaVuSans-6d" d="M 3328 2828 
Q 3544 3216 3844 3400 
Q 4144 3584 4550 3584 
Q 5097 3584 5394 3201 
Q 5691 2819 5691 2113 
L 5691 0 
L 5113 0 
L 5113 2094 
Q 5113 2597 4934 2840 
Q 4756 3084 4391 3084 
Q 3944 3084 3684 2787 
Q 3425 2491 3425 1978 
L 3425 0 
L 2847 0 
L 2847 2094 
Q 2847 2600 2669 2842 
Q 2491 3084 2119 3084 
Q 1678 3084 1418 2786 
Q 1159 2488 1159 1978 
L 1159 0 
L 581 0 
L 581 3500 
L 1159 3500 
L 1159 2956 
Q 1356 3278 1631 3431 
Q 1906 3584 2284 3584 
Q 2666 3584 2933 3390 
Q 3200 3197 3328 2828 
z
" transform="scale(0.015625)"/>
       <path id="DejaVuSans-65" d="M 3597 1894 
L 3597 1613 
L 953 1613 
Q 991 1019 1311 708 
Q 1631 397 2203 397 
Q 2534 397 2845 478 
Q 3156 559 3463 722 
L 3463 178 
Q 3153 47 2828 -22 
Q 2503 -91 2169 -91 
Q 1331 -91 842 396 
Q 353 884 353 1716 
Q 353 2575 817 3079 
Q 1281 3584 2069 3584 
Q 2775 3584 3186 3129 
Q 3597 2675 3597 1894 
z
M 3022 2063 
Q 3016 2534 2758 2815 
Q 2500 3097 2075 3097 
Q 1594 3097 1305 2825 
Q 1016 2553 972 2059 
L 3022 2063 
z
" transform="scale(0.015625)"/>
       <path id="DejaVuSans-20" transform="scale(0.015625)"/>
       <path id="DejaVuSans-53" d="M 3425 4513 
L 3425 3897 
Q 3066 4069 2747 4153 
Q 2428 4238 2131 4238 
Q 1616 4238 1336 4038 
Q 1056 3838 1056 3469 
Q 1056 3159 1242 3001 
Q 1428 2844 1947 2747 
L 2328 2669 
Q 3034 2534 3370 2195 
Q 3706 1856 3706 1288 
Q 3706 609 3251 259 
Q 2797 -91 1919 -91 
Q 1588 -91 1214 -16 
Q 841 59 441 206 
L 441 856 
Q 825 641 1194 531 
Q 1563 422 1919 422 
Q 2459 422 2753 634 
Q 3047 847 3047 1241 
Q 3047 1584 2836 1778 
Q 2625 1972 2144 2069 
L 1759 2144 
Q 1053 2284 737 2584 
Q 422 2884 422 3419 
Q 422 4038 858 4394 
Q 1294 4750 2059 4750 
Q 2388 4750 2728 4690 
Q 3069 4631 3425 4513 
z
" transform="scale(0.015625)"/>
       <path id="DejaVuSans-74" d="M 1172 4494 
L 1172 3500 
L 2356 3500 
L 2356 3053 
L 1172 3053 
L 1172 1153 
Q 1172 725 1289 603 
Q 1406 481 1766 481 
L 2356 481 
L 2356 0 
L 1766 0 
Q 1100 0 847 248 
Q 594 497 594 1153 
L 594 3053 
L 172 3053 
L 172 3500 
L 594 3500 
L 594 4494 
L 1172 4494 
z
" transform="scale(0.015625)"/>
       <path id="DejaVuSans-70" d="M 1159 525 
L 1159 -1331 
L 581 -1331 
L 581 3500 
L 1159 3500 
L 1159 2969 
Q 1341 3281 1617 3432 
Q 1894 3584 2278 3584 
Q 2916 3584 3314 3078 
Q 3713 2572 3713 1747 
Q 3713 922 3314 415 
Q 2916 -91 2278 -91 
Q 1894 -91 1617 61 
Q 1341 213 1159 525 
z
M 3116 1747 
Q 3116 2381 2855 2742 
Q 2594 3103 2138 3103 
Q 1681 3103 1420 2742 
Q 1159 2381 1159 1747 
Q 1159 1113 1420 752 
Q 1681 391 2138 391 
Q 2594 391 2855 752 
Q 3116 1113 3116 1747 
z
" transform="scale(0.015625)"/>
      </defs>
      <use xlink:href="#DejaVuSans-54"/>
      <use xlink:href="#DejaVuSans-69" x="57.958984"/>
      <use xlink:href="#DejaVuSans-6d" x="85.742188"/>
      <use xlink:href="#DejaVuSans-65" x="183.154297"/>
      <use xlink:href="#DejaVuSans-20" x="244.677734"/>
      <use xlink:href="#DejaVuSans-53" x="276.464844"/>
      <use xlink:href="#DejaVuSans-74" x="339.941406"/>
      <use xlink:href="#DejaVuSans-65" x="379.150391"/>
      <use xlink:href="#DejaVuSans-70" x="440.673828"/>
     </g>
    </g>
   </g>
   <g id="matplotlib.axis_2">
    <g id="ytick_1">
     <g id="text_7">
      <!-- −1.00 -->
      <g style="fill: #262626" transform="translate(7.2 390.399141) scale(0.11 -0.11)">
       <defs>
        <path id="DejaVuSans-2212" d="M 678 2272 
L 4684 2272 
L 4684 1741 
L 678 1741 
L 678 2272 
z
" transform="scale(0.015625)"/>
        <path id="DejaVuSans-2e" d="M 684 794 
L 1344 794 
L 1344 0 
L 684 0 
L 684 794 
z
" transform="scale(0.015625)"/>
       </defs>
       <use xlink:href="#DejaVuSans-2212"/>
       <use xlink:href="#DejaVuSans-31" x="83.789062"/>
       <use xlink:href="#DejaVuSans-2e" x="147.412109"/>
       <use xlink:href="#DejaVuSans-30" x="179.199219"/>
       <use xlink:href="#DejaVuSans-30" x="242.822266"/>
      </g>
     </g>
    </g>
    <g id="ytick_2">
     <g id="text_8">
      <!-- −0.75 -->
      <g style="fill: #262626" transform="translate(7.2 352.656641) scale(0.11 -0.11)">
       <defs>
        <path id="DejaVuSans-37" d="M 525 4666 
L 3525 4666 
L 3525 4397 
L 1831 0 
L 1172 0 
L 2766 4134 
L 525 4134 
L 525 4666 
z
" transform="scale(0.015625)"/>
       </defs>
       <use xlink:href="#DejaVuSans-2212"/>
       <use xlink:href="#DejaVuSans-30" x="83.789062"/>
       <use xlink:href="#DejaVuSans-2e" x="147.412109"/>
       <use xlink:href="#DejaVuSans-37" x="179.199219"/>
       <use xlink:href="#DejaVuSans-35" x="242.822266"/>
      </g>
     </g>
    </g>
    <g id="ytick_3">
     <g id="text_9">
      <!-- −0.50 -->
      <g style="fill: #262626" transform="translate(7.2 314.914141) scale(0.11 -0.11)">
       <use xlink:href="#DejaVuSans-2212"/>
       <use xlink:href="#DejaVuSans-30" x="83.789062"/>
       <use xlink:href="#DejaVuSans-2e" x="147.412109"/>
       <use xlink:href="#DejaVuSans-35" x="179.199219"/>
       <use xlink:href="#DejaVuSans-30" x="242.822266"/>
      </g>
     </g>
    </g>
    <g id="ytick_4">
     <g id="text_10">
      <!-- −0.25 -->
      <g style="fill: #262626" transform="translate(7.2 277.171641) scale(0.11 -0.11)">
       <use xlink:href="#DejaVuSans-2212"/>
       <use xlink:href="#DejaVuSans-30" x="83.789062"/>
       <use xlink:href="#DejaVuSans-2e" x="147.412109"/>
       <use xlink:href="#DejaVuSans-32" x="179.199219"/>
       <use xlink:href="#DejaVuSans-35" x="242.822266"/>
      </g>
     </g>
    </g>
    <g id="ytick_5">
     <g id="text_11">
      <!-- 0.00 -->
      <g style="fill: #262626" transform="translate(16.417656 239.429141) scale(0.11 -0.11)">
       <use xlink:href="#DejaVuSans-30"/>
       <use xlink:href="#DejaVuSans-2e" x="63.623047"/>
       <use xlink:href="#DejaVuSans-30" x="95.410156"/>
       <use xlink:href="#DejaVuSans-30" x="159.033203"/>
      </g>
     </g>
    </g>
    <g id="ytick_6">
     <g id="text_12">
      <!-- 0.25 -->
      <g style="fill: #262626" transform="translate(16.417656 201.686641) scale(0.11 -0.11)">
       <use xlink:href="#DejaVuSans-30"/>
       <use xlink:href="#DejaVuSans-2e" x="63.623047"/>
       <use xlink:href="#DejaVuSans-32" x="95.410156"/>
       <use xlink:href="#DejaVuSans-35" x="159.033203"/>
      </g>
     </g>
    </g>
    <g id="ytick_7">
     <g id="text_13">
      <!-- 0.50 -->
      <g style="fill: #262626" transform="translate(16.417656 163.944141) scale(0.11 -0.11)">
       <use xlink:href="#DejaVuSans-30"/>
       <use xlink:href="#DejaVuSans-2e" x="63.623047"/>
       <use xlink:href="#DejaVuSans-35" x="95.410156"/>
       <use xlink:href="#DejaVuSans-30" x="159.033203"/>
      </g>
     </g>
    </g>
    <g id="ytick_8">
     <g id="text_14">
      <!-- 0.75 -->
      <g style="fill: #262626" transform="translate(16.417656 126.201641) scale(0.11 -0.11)">
       <use xlink:href="#DejaVuSans-30"/>
       <use xlink:href="#DejaVuSans-2e" x="63.623047"/>
       <use xlink:href="#DejaVuSans-37" x="95.410156"/>
       <use xlink:href="#DejaVuSans-35" x="159.033203"/>
      </g>
     </g>
    </g>
    <g id="ytick_9">
     <g id="text_15">
      <!-- 1.00 -->
      <g style="fill: #262626" transform="translate(16.417656 88.459141) scale(0.11 -0.11)">
       <use xlink:href="#DejaVuSans-31"/>
       <use xlink:href="#DejaVuSans-2e" x="63.623047"/>
       <use xlink:href="#DejaVuSans-30" x="95.410156"/>
       <use xlink:href="#DejaVuSans-30" x="159.033203"/>
      </g>
     </g>
    </g>
   </g>
   <g id="line2d_1">
    <path d="M 73.735298 331.956877 
L 75.781391 272.539661 
L 77.827483 203.025721 
L 79.873576 281.666376 
L 81.919668 266.904778 
L 83.965761 302.845374 
L 86.011853 287.685192 
L 88.057946 264.897582 
L 90.104038 170.115153 
L 92.150131 217.394641 
L 94.196223 252.991303 
L 96.242316 207.297122 
L 98.288408 255.371654 
L 100.334501 233.300259 
L 102.380593 273.897761 
L 104.426686 254.829165 
L 106.472778 200.034262 
L 108.518871 218.146397 
L 110.564963 240.273 
L 112.611056 269.759227 
L 114.657148 289.316833 
L 116.703241 254.432635 
L 118.749333 217.552258 
L 120.795426 257.056194 
L 122.841518 169.557865 
L 124.887611 231.54445 
L 126.933703 259.46724 
L 128.979796 250.474858 
L 131.025888 264.841728 
L 133.071981 287.285428 
L 135.118073 281.832693 
L 137.164166 164.401074 
L 139.210258 201.51973 
L 141.256351 154.790659 
L 143.302443 221.584879 
L 145.348536 245.483551 
L 147.394628 220.003292 
L 149.440721 233.473425 
L 151.486813 225.003583 
L 153.532906 259.313419 
L 155.578998 212.058451 
L 157.625091 209.605496 
L 159.671183 151.862074 
L 161.717276 211.344205 
L 165.809461 260.469211 
L 167.855553 245.603816 
L 169.901646 228.779416 
L 171.947738 264.394585 
L 173.993831 213.916552 
L 176.039923 217.932841 
L 178.086016 227.488371 
L 180.132109 256.944076 
L 182.178201 266.768827 
L 184.224294 278.317918 
L 186.270386 205.192038 
L 188.316479 121.625639 
L 190.362571 187.119203 
L 192.408664 221.005266 
L 194.454756 234.060812 
L 196.500849 243.907728 
L 198.546941 211.752839 
L 200.593034 237.475193 
L 202.639126 175.731995 
L 204.685219 167.41248 
L 206.731311 117.005571 
L 208.777404 153.804825 
L 210.823496 217.74248 
L 212.869589 202.731314 
L 214.915681 244.940763 
L 216.961774 248.087985 
L 219.007866 224.965117 
L 221.053959 255.250497 
L 223.100051 256.664738 
L 225.146144 225.078313 
L 227.192236 252.544808 
L 229.238329 275.120784 
L 231.284421 275.789008 
L 233.330514 293.970487 
L 235.376606 300.93638 
L 237.422699 289.401829 
L 239.468791 302.33358 
L 241.514884 309.314486 
L 243.560976 263.611156 
L 245.607069 270.796471 
L 247.653161 274.601206 
L 249.699254 296.983037 
L 251.745346 306.044057 
L 253.791439 305.058549 
L 255.837531 307.415701 
L 257.883624 299.54418 
L 259.929716 309.678535 
L 261.975809 286.059412 
L 264.021901 219.159027 
L 266.067994 265.465984 
L 268.114086 294.072323 
L 270.160179 283.623844 
L 272.206271 219.41844 
L 274.252364 269.487707 
L 276.298456 282.304296 
L 278.344549 283.185323 
L 280.390641 281.128119 
L 282.436734 192.013158 
L 284.482826 243.656084 
L 286.528919 278.663416 
L 288.575011 210.617569 
L 290.621104 211.539428 
L 292.667196 256.792815 
L 294.713289 282.528082 
L 296.759381 251.389828 
L 298.805474 274.33094 
L 300.851566 283.467048 
L 302.897659 249.03289 
L 306.989844 279.234909 
L 309.035936 263.187655 
L 311.082029 272.644644 
L 313.128121 286.68372 
L 315.174214 255.70636 
L 317.220306 286.316735 
L 319.266399 290.942924 
L 321.312491 274.305559 
L 323.358584 255.272605 
L 325.404676 287.985666 
L 327.450769 260.526164 
L 329.496861 274.985023 
L 331.542954 250.181308 
L 333.589046 273.7395 
L 335.635139 284.08211 
L 337.681231 233.658372 
L 339.727324 231.180084 
L 341.773416 228.318776 
L 343.819509 273.375896 
L 345.865601 276.834798 
L 347.911694 287.298903 
L 349.957786 212.396652 
L 352.003879 263.594848 
L 354.049971 254.022334 
L 356.096064 249.981763 
L 358.142156 177.704056 
L 360.188249 243.604213 
L 362.234341 272.668016 
L 364.280434 271.407178 
L 366.326526 291.814168 
L 368.372619 286.400636 
L 370.418711 293.213482 
L 372.464804 291.34765 
L 374.510896 287.697934 
L 376.556989 206.280605 
L 378.603081 260.33601 
L 380.649174 253.152619 
L 382.695266 236.65931 
L 384.741359 277.78933 
L 386.787451 289.31363 
L 388.833544 214.339215 
L 390.879636 244.149801 
L 392.925729 257.120254 
L 394.971821 228.975604 
L 397.017914 163.446701 
L 399.064006 237.73128 
L 401.110099 212.425012 
L 403.156191 245.363023 
L 405.202284 270.182853 
L 407.248376 238.965635 
L 409.294469 239.050309 
L 411.340561 206.104813 
L 413.386654 189.42445 
L 415.432746 221.23159 
L 417.478839 260.415793 
L 419.524931 210.846124 
L 421.571024 206.950213 
L 423.617116 242.465398 
L 425.663209 239.796154 
L 427.709301 231.661543 
L 429.755394 258.050318 
L 431.801486 193.811347 
L 433.847579 240.591791 
L 435.893672 178.674269 
L 437.939764 140.459847 
L 439.985857 84.28 
L 442.031949 161.932149 
L 444.078042 202.888895 
L 446.124134 161.976655 
L 448.170227 216.317698 
L 450.216319 238.192163 
L 452.262412 235.90716 
L 454.308504 235.68692 
L 456.354597 185.421808 
L 458.400689 113.580715 
L 460.446782 174.519597 
L 462.492874 213.566337 
L 464.538967 172.845091 
L 466.585059 185.036132 
L 468.631152 227.062283 
L 470.677244 239.379481 
L 472.723337 238.381339 
L 474.769429 213.14307 
L 476.815522 127.572918 
L 480.907707 220.314946 
L 482.953799 185.140362 
L 484.999892 217.546985 
L 487.045984 237.374631 
L 489.092077 258.607402 
L 491.138169 214.665859 
L 493.184262 190.098602 
L 495.230354 122.319594 
L 497.276447 180.592142 
L 501.368632 243.886429 
L 503.414724 255.320009 
L 505.460817 263.360378 
L 507.506909 257.298841 
L 509.553002 249.039955 
L 511.599094 258.426265 
L 513.645187 169.775692 
L 515.691279 182.17537 
L 517.737372 161.100783 
L 519.783464 225.812233 
L 521.829557 196.749969 
L 523.875649 204.937383 
L 525.921742 229.377712 
L 527.967834 246.236795 
L 530.013927 254.65596 
L 532.060019 247.104824 
L 534.106112 178.044926 
L 536.152204 171.278958 
L 538.198297 212.313286 
L 540.244389 221.962127 
L 540.244389 221.962127 
" clip-path="url(#p14daed2d4c)" style="fill: none; stroke: #d3d3d3; stroke-width: 2; stroke-linecap: round"/>
   </g>
   <g id="line2d_2">
    <path d="M 73.735298 242.313794 
L 92.150131 242.463506 
L 100.334501 242.501174 
L 151.486813 242.505076 
L 251.745346 242.483221 
L 298.805474 242.495841 
L 349.957786 242.506731 
L 540.244389 242.521125 
L 540.244389 242.521125 
" clip-path="url(#p14daed2d4c)" style="fill: none; stroke: #0072b2; stroke-width: 2.5; stroke-linecap: round"/>
   </g>
   <g id="line2d_3">
    <path d="M 73.735298 275.839275 
L 75.781391 278.99983 
L 77.827483 283.26325 
L 79.873576 279.512328 
L 81.919668 273.692931 
L 83.965761 270.278337 
L 86.011853 272.26987 
L 88.057946 274.089967 
L 90.104038 269.132975 
L 92.150131 251.931844 
L 94.196223 243.707579 
L 96.242316 245.885619 
L 98.288408 243.997172 
L 100.334501 250.771057 
L 102.380593 252.862005 
L 104.426686 252.062366 
L 106.472778 250.311407 
L 108.518871 229.102638 
L 110.564963 218.063004 
L 112.611056 235.728132 
L 114.657148 245.618395 
L 116.703241 253.533317 
L 118.749333 255.08151 
L 120.795426 243.796255 
L 122.841518 244.985805 
L 124.887611 228.310967 
L 126.933703 222.821926 
L 128.979796 244.428772 
L 131.025888 251.117495 
L 133.071981 253.213061 
L 135.118073 257.485414 
L 137.164166 253.955355 
L 139.210258 232.811011 
L 141.256351 216.196134 
L 143.302443 211.027265 
L 145.348536 225.88226 
L 147.394628 243.010454 
L 149.440721 242.505777 
L 151.486813 239.533226 
L 153.532906 238.238902 
L 155.578998 230.658326 
L 157.625091 219.806961 
L 159.671183 212.473011 
L 161.717276 202.494346 
L 163.763368 215.023975 
L 165.809461 230.619819 
L 167.855553 237.988763 
L 169.901646 239.573094 
L 171.947738 235.257005 
L 173.993831 236.819434 
L 176.039923 229.00126 
L 178.086016 216.489539 
L 180.132109 220.773283 
L 182.178201 239.617765 
L 184.224294 249.597955 
L 186.270386 254.847289 
L 188.316479 241.073104 
L 190.362571 212.829833 
L 192.408664 208.121905 
L 194.454756 221.901411 
L 196.500849 232.616096 
L 198.546941 239.749294 
L 200.593034 237.303492 
L 202.639126 233.334682 
L 204.685219 218.120396 
L 206.731311 187.191726 
L 208.777404 172.525301 
L 210.823496 185.923893 
L 212.869589 210.823706 
L 214.915681 220.905945 
L 216.961774 221.104973 
L 219.007866 225.628178 
L 221.053959 217.471981 
L 223.100051 211.624699 
L 225.146144 215.895589 
L 227.192236 211.889518 
L 229.238329 226.406112 
L 231.284421 245.278016 
L 233.330514 251.246248 
L 235.376606 259.053108 
L 237.422699 263.75598 
L 239.468791 263.356271 
L 241.514884 266.233165 
L 243.560976 270.247272 
L 245.607069 266.84917 
L 247.653161 266.196368 
L 249.699254 268.91451 
L 251.745346 270.351727 
L 253.791439 273.722383 
L 255.837531 276.308239 
L 257.883624 275.651556 
L 259.929716 273.554889 
L 261.975809 274.306206 
L 264.021901 273.982139 
L 266.067994 264.853378 
L 268.114086 263.362368 
L 270.160179 269.676723 
L 272.206271 270.253273 
L 274.252364 264.276547 
L 276.298456 262.671412 
L 278.344549 263.542904 
L 280.390641 263.096278 
L 282.436734 263.481674 
L 284.482826 249.737108 
L 286.528919 246.82623 
L 288.575011 257.543367 
L 290.621104 247.430447 
L 292.667196 238.272494 
L 294.713289 249.81453 
L 296.759381 256.08463 
L 298.805474 254.024995 
L 300.851566 251.353888 
L 302.897659 252.237422 
L 304.943751 253.707283 
L 306.989844 251.206108 
L 309.035936 253.670125 
L 313.128121 261.20745 
L 315.174214 265.475812 
L 317.220306 261.772935 
L 319.266399 262.824405 
L 321.312491 266.986599 
L 323.358584 265.051393 
L 325.404676 262.60526 
L 327.450769 265.099058 
L 329.496861 263.936661 
L 331.542954 263.677745 
L 335.635139 261.369688 
L 337.681231 265.321598 
L 339.727324 259.957648 
L 341.773416 251.603677 
L 343.819509 249.894955 
L 345.865601 255.251638 
L 347.911694 259.82688 
L 349.957786 263.433703 
L 352.003879 252.812551 
L 354.049971 249.841785 
L 356.096064 252.320505 
L 358.142156 248.413879 
L 360.188249 234.568703 
L 362.234341 236.892247 
L 364.280434 254.055477 
L 366.326526 256.651956 
L 368.372619 258.224541 
L 370.418711 259.005425 
L 372.464804 260.675206 
L 374.510896 261.199989 
L 376.556989 260.301485 
L 378.603081 248.053009 
L 380.649174 252.358037 
L 382.695266 260.999639 
L 384.741359 258.066433 
L 388.833544 266.611175 
L 390.879636 255.218295 
L 392.925729 249.754643 
L 394.971821 250.265413 
L 397.017914 244.383386 
L 399.064006 231.967689 
L 401.110099 232.487885 
L 403.156191 240.762263 
L 405.202284 243.811306 
L 407.248376 247.962715 
L 409.294469 242.706771 
L 411.340561 239.375195 
L 413.386654 232.01065 
L 415.432746 213.27418 
L 417.478839 216.77474 
L 419.524931 239.261606 
L 421.571024 237.132123 
L 423.617116 232.267973 
L 425.663209 235.782469 
L 427.709301 236.461523 
L 429.755394 231.646199 
L 431.801486 232.422143 
L 433.847579 227.087931 
L 435.893672 230.115787 
L 437.939764 226.071565 
L 439.985857 200.901463 
L 442.031949 183.525071 
L 444.078042 192.108203 
L 446.124134 211.528297 
L 448.170227 209.81856 
L 450.216319 204.225088 
L 452.262412 212.429043 
L 454.308504 214.468887 
L 456.354597 201.953003 
L 460.446782 161.738576 
L 462.492874 179.941446 
L 464.538967 203.913267 
L 466.585059 204.434432 
L 468.631152 206.251056 
L 470.677244 216.90807 
L 472.723337 224.135284 
L 474.769429 219.925473 
L 476.815522 201.080986 
L 478.861614 177.395669 
L 480.907707 185.113186 
L 482.953799 206.885282 
L 484.999892 206.294531 
L 487.045984 211.418655 
L 489.092077 226.872673 
L 491.138169 233.002924 
L 493.184262 224.453351 
L 497.276447 175.852384 
L 499.322539 189.235301 
L 501.368632 211.143452 
L 503.414724 222.934317 
L 505.460817 235.486354 
L 507.506909 240.59389 
L 509.553002 237.107381 
L 511.599094 228.815588 
L 513.645187 222.978858 
L 515.691279 208.318585 
L 517.737372 207.50262 
L 519.783464 214.582156 
L 521.829557 227.011034 
L 523.875649 232.879388 
L 525.921742 228.135929 
L 527.967834 228.763583 
L 530.013927 232.861018 
L 532.060019 228.847984 
L 534.106112 222.830126 
L 536.152204 208.066534 
L 538.198297 198.653622 
L 540.244389 213.371127 
L 540.244389 213.371127 
" clip-path="url(#p14daed2d4c)" style="fill: none; stroke: #d55e00; stroke-width: 2.5; stroke-linecap: round"/>
   </g>
   <g id="line2d_4">
    <path d="M 73.735298 309.102989 
L 75.781391 285.732973 
L 77.827483 267.477946 
L 79.873576 244.438197 
L 81.919668 268.111791 
L 83.965761 259.603985 
L 86.011853 274.006304 
L 88.057946 264.554995 
L 90.104038 259.47911 
L 92.150131 220.705155 
L 94.196223 231.330745 
L 96.242316 241.125651 
L 98.288408 229.337365 
L 100.334501 245.621983 
L 102.380593 238.58951 
L 104.426686 253.162094 
L 106.472778 246.533321 
L 108.518871 223.580879 
L 110.564963 226.078125 
L 112.611056 237.548515 
L 114.657148 248.22335 
L 116.703241 257.445868 
L 118.749333 246.766909 
L 120.795426 234.013863 
L 122.841518 247.934282 
L 124.887611 213.058428 
L 126.933703 232.298545 
L 128.979796 242.917624 
L 131.025888 245.381523 
L 133.071981 251.012268 
L 135.118073 257.442792 
L 137.164166 254.897505 
L 139.210258 217.491594 
L 141.256351 218.197756 
L 143.302443 201.821765 
L 145.348536 226.586095 
L 147.394628 236.672544 
L 149.440721 230.420926 
L 151.486813 235.257835 
L 153.532906 232.136797 
L 155.578998 241.545976 
L 157.625091 225.757656 
L 159.671183 221.043723 
L 161.717276 197.522522 
L 163.763368 220.00875 
L 165.809461 230.274121 
L 167.855553 243.795267 
L 169.901646 240.140539 
L 171.947738 234.743782 
L 173.993831 245.631173 
L 176.039923 228.641916 
L 178.086016 226.119827 
L 180.132109 229.805949 
L 182.178201 244.218751 
L 186.270386 254.379625 
L 188.316479 228.301114 
L 190.362571 191.46481 
L 192.408664 210.778143 
L 194.454756 225.786758 
L 198.546941 238.567588 
L 200.593034 226.374251 
L 202.639126 235.82674 
L 204.685219 209.41557 
L 206.731311 197.910336 
L 208.777404 181.141787 
L 210.823496 193.29204 
L 212.869589 220.372088 
L 214.915681 219.173635 
L 216.961774 234.16842 
L 219.007866 238.786007 
L 221.053959 229.159795 
L 223.100051 240.130677 
L 225.146144 240.696784 
L 227.192236 230.79078 
L 229.238329 243.029345 
L 231.284421 250.230608 
L 233.330514 253.678849 
L 235.376606 262.3662 
L 237.422699 264.49277 
L 239.468791 263.123636 
L 241.514884 269.583049 
L 243.560976 270.892737 
L 245.607069 256.130374 
L 247.653161 260.681319 
L 249.699254 259.379759 
L 251.745346 269.157023 
L 253.791439 271.407416 
L 255.837531 272.080406 
L 257.883624 273.587548 
L 259.929716 271.985328 
L 261.975809 274.787977 
L 264.021901 265.6789 
L 266.067994 244.29996 
L 268.114086 257.5439 
L 270.160179 264.834539 
L 272.206271 263.280176 
L 274.252364 241.48553 
L 276.298456 256.630157 
L 278.344549 259.073532 
L 280.390641 261.857087 
L 282.436734 258.1397 
L 284.482826 228.768433 
L 286.528919 244.969249 
L 288.575011 254.689122 
L 290.621104 232.892764 
L 292.667196 228.485584 
L 294.713289 244.774614 
L 296.759381 255.090752 
L 298.805474 248.006337 
L 300.851566 252.955317 
L 302.897659 255.647283 
L 304.943751 249.147029 
L 306.989844 251.99889 
L 309.035936 255.432707 
L 311.082029 252.719675 
L 313.128121 257.301127 
L 315.174214 260.887117 
L 317.220306 251.720617 
L 319.266399 263.499253 
L 321.312491 262.406573 
L 323.358584 258.813739 
L 325.404676 252.55932 
L 327.450769 263.641196 
L 329.496861 253.238633 
L 331.542954 260.181107 
L 333.589046 249.050278 
L 335.635139 258.756287 
L 337.681231 260.206063 
L 339.727324 245.312232 
L 341.773416 240.14955 
L 343.819509 237.89676 
L 345.865601 253.669164 
L 347.911694 254.90438 
L 349.957786 260.320197 
L 352.003879 235.079313 
L 354.049971 253.197397 
L 356.096064 246.523929 
L 358.142156 247.508861 
L 360.188249 215.50129 
L 362.234341 240.069797 
L 364.280434 249.342372 
L 366.326526 254.134969 
L 368.372619 259.247919 
L 370.418711 259.112599 
L 372.464804 263.820392 
L 374.510896 263.884821 
L 376.556989 261.194176 
L 378.603081 235.165995 
L 380.649174 253.771046 
L 382.695266 248.679394 
L 384.741359 245.386875 
L 386.787451 256.338578 
L 388.833544 260.85989 
L 390.879636 237.429219 
L 392.925729 245.659993 
L 394.971821 245.916441 
L 397.017914 238.975438 
L 399.064006 209.028625 
L 401.110099 233.842286 
L 403.156191 227.106344 
L 405.202284 241.189036 
L 407.248376 247.281174 
L 409.294469 239.998036 
L 411.340561 239.783608 
L 413.386654 224.451226 
L 415.432746 211.553563 
L 417.478839 225.884875 
L 419.524931 242.308599 
L 421.571024 227.442234 
L 423.617116 223.644935 
L 425.663209 235.041856 
L 427.709301 237.155416 
L 429.755394 233.686265 
L 431.801486 242.473107 
L 433.847579 220.014872 
L 435.893672 237.807536 
L 437.939764 211.779745 
L 442.031949 169.685314 
L 444.078042 200.16595 
L 446.124134 216.243843 
L 448.170227 202.953931 
L 450.216319 219.213104 
L 452.262412 231.22904 
L 454.308504 231.776194 
L 456.354597 231.157428 
L 458.400689 209.990503 
L 460.446782 180.316788 
L 462.492874 201.50719 
L 464.538967 217.646561 
L 466.585059 205.101303 
L 468.631152 207.801574 
L 470.677244 225.622036 
L 472.723337 232.886934 
L 474.769429 233.504372 
L 476.815522 221.36009 
L 478.861614 187.90774 
L 480.907707 201.20724 
L 482.953799 220.080516 
L 484.999892 209.160154 
L 487.045984 221.941261 
L 489.092077 231.777709 
L 491.138169 242.431632 
L 495.230354 210.024082 
L 497.276447 184.231899 
L 499.322539 205.504426 
L 501.368632 218.2056 
L 503.414724 233.437135 
L 505.460817 241.718299 
L 507.506909 247.077488 
L 511.599094 241.524893 
L 513.645187 243.750122 
L 515.691279 211.53893 
L 517.737372 208.46215 
L 519.783464 201.931223 
L 521.829557 227.079627 
L 523.875649 218.530688 
L 525.921742 219.099777 
L 527.967834 228.783043 
L 530.013927 237.895824 
L 532.060019 240.008868 
L 534.106112 238.856998 
L 536.152204 209.956885 
L 538.198297 202.493203 
L 540.244389 219.022493 
L 540.244389 219.022493 
" clip-path="url(#p14daed2d4c)" style="fill: none; stroke-dasharray: 9.25,4; stroke-dashoffset: 0; stroke: #009e73; stroke-width: 2.5"/>
   </g>
   <g id="line2d_5">
    <path d="M 73.735298 301.73676 
L 75.781391 294.019138 
L 77.827483 278.026957 
L 79.873576 248.72059 
L 81.919668 261.422705 
L 83.965761 260.738372 
L 86.011853 272.333514 
L 88.057946 272.011185 
L 90.104038 265.216375 
L 92.150131 230.858394 
L 94.196223 231.09499 
L 96.242316 242.533334 
L 98.288408 231.90521 
L 100.334501 243.974842 
L 102.380593 241.374222 
L 104.426686 254.636928 
L 106.472778 253.617569 
L 108.518871 234.580894 
L 110.564963 232.781578 
L 112.611056 239.088559 
L 114.657148 251.934488 
L 116.703241 264.035307 
L 118.749333 257.57181 
L 120.795426 242.526507 
L 122.841518 249.839997 
L 124.887611 223.572591 
L 126.933703 232.121323 
L 128.979796 245.058569 
L 131.025888 247.850699 
L 133.071981 254.435024 
L 135.118073 264.737355 
L 137.164166 267.223015 
L 139.210258 229.51853 
L 141.256351 225.519225 
L 143.302443 211.155524 
L 145.348536 222.717503 
L 147.394628 235.649652 
L 149.440721 233.100394 
L 151.486813 236.887856 
L 153.532906 235.5821 
L 155.578998 246.902409 
L 157.625091 235.31831 
L 159.671183 230.12725 
L 161.717276 212.091638 
L 163.763368 220.242211 
L 165.809461 231.250619 
L 167.855553 244.879634 
L 169.901646 246.034522 
L 171.947738 241.024239 
L 173.993831 251.364591 
L 176.039923 237.914962 
L 178.086016 234.078288 
L 180.132109 235.370077 
L 182.178201 245.950192 
L 184.224294 253.992303 
L 186.270386 261.565557 
L 188.316479 239.418456 
L 190.362571 209.851511 
L 192.408664 212.753606 
L 194.454756 223.131534 
L 196.500849 232.128876 
L 198.546941 239.72969 
L 200.593034 232.258021 
L 202.639126 237.973771 
L 204.685219 220.606391 
L 206.731311 212.280251 
L 208.777404 200.423699 
L 210.823496 201.877331 
L 212.869589 216.665841 
L 214.915681 219.40855 
L 216.961774 233.975723 
L 219.007866 241.889221 
L 221.053959 237.661737 
L 223.100051 246.594126 
L 225.146144 250.86982 
L 227.192236 241.775243 
L 229.238329 247.749101 
L 231.284421 257.818713 
L 233.330514 262.326259 
L 235.376606 270.303418 
L 237.422699 275.470813 
L 239.468791 274.230626 
L 241.514884 277.913532 
L 243.560976 280.956314 
L 245.607069 268.491416 
L 247.653161 266.428979 
L 249.699254 266.244968 
L 251.745346 273.027333 
L 253.791439 277.976468 
L 255.837531 279.672791 
L 257.883624 281.170778 
L 259.929716 279.615644 
L 261.975809 281.965501 
L 264.021901 275.988866 
L 266.067994 251.806939 
L 268.114086 257.448552 
L 270.160179 268.174649 
L 272.206271 269.118411 
L 274.252364 248.057898 
L 276.298456 256.881828 
L 278.344549 264.115985 
L 280.390641 267.496426 
L 282.436734 268.461755 
L 284.482826 238.54212 
L 286.528919 243.622526 
L 288.575011 257.077674 
L 290.621104 239.102103 
L 292.667196 232.570474 
L 294.713289 244.716994 
L 296.759381 258.616759 
L 298.805474 254.074151 
L 300.851566 260.73132 
L 302.897659 266.255362 
L 304.943751 256.997331 
L 306.989844 258.894567 
L 309.035936 264.296041 
L 311.082029 261.075979 
L 313.128121 263.266369 
L 315.174214 268.549637 
L 317.220306 260.333604 
L 319.266399 267.605547 
L 321.312491 271.443669 
L 323.358584 267.888829 
L 325.404676 260.386485 
L 327.450769 268.146225 
L 329.496861 261.717088 
L 331.542954 264.447295 
L 333.589046 256.781153 
L 337.681231 267.002854 
L 339.727324 251.904725 
L 341.773416 245.103178 
L 343.819509 240.755439 
L 345.865601 254.224236 
L 349.957786 267.516298 
L 352.003879 244.579049 
L 354.049971 253.268573 
L 356.096064 252.960029 
L 358.142156 251.670418 
L 360.188249 226.874962 
L 362.234341 237.752199 
L 364.280434 252.149278 
L 366.326526 258.17961 
L 368.372619 267.780295 
L 370.418711 269.966332 
L 372.464804 273.34278 
L 374.510896 274.097976 
L 376.556989 273.439006 
L 378.603081 245.766635 
L 380.649174 252.889909 
L 382.695266 252.561504 
L 384.741359 246.78422 
L 386.787451 258.576336 
L 388.833544 266.947036 
L 390.879636 244.873767 
L 392.925729 246.602612 
L 394.971821 251.270069 
L 397.017914 243.313406 
L 399.064006 219.781896 
L 401.110099 232.206086 
L 403.156191 229.169493 
L 405.202284 239.077112 
L 407.248376 251.961913 
L 409.294469 246.825611 
L 411.340561 245.199657 
L 413.386654 233.030701 
L 415.432746 222.926339 
L 417.478839 228.266171 
L 419.524931 243.537984 
L 421.571024 233.355763 
L 423.617116 228.3731 
L 425.663209 237.767984 
L 427.709301 240.920943 
L 429.755394 239.685369 
L 431.801486 248.436595 
L 433.847579 230.072797 
L 435.893672 238.218029 
L 437.939764 221.495145 
L 439.985857 207.005754 
L 442.031949 195.733132 
L 444.078042 201.272401 
L 446.124134 212.458244 
L 448.170227 207.717024 
L 452.262412 231.600735 
L 454.308504 236.676801 
L 456.354597 239.112804 
L 458.400689 223.874848 
L 460.446782 203.495966 
L 462.492874 207.096902 
L 464.538967 218.196274 
L 466.585059 212.263458 
L 468.631152 213.110137 
L 470.677244 225.169619 
L 472.723337 234.812176 
L 474.769429 239.063244 
L 476.815522 232.520499 
L 478.861614 208.192555 
L 480.907707 208.74691 
L 482.953799 220.971332 
L 484.999892 216.41186 
L 487.045984 223.971271 
L 489.092077 233.680069 
L 491.138169 245.470331 
L 493.184262 235.56275 
L 495.230354 224.097669 
L 497.276447 204.778784 
L 499.322539 208.975039 
L 501.368632 218.680548 
L 503.414724 233.127031 
L 505.460817 243.964323 
L 507.506909 251.902452 
L 509.553002 253.482725 
L 511.599094 251.522218 
L 513.645187 254.086323 
L 515.691279 225.467299 
L 517.737372 218.080079 
L 519.783464 209.852726 
L 521.829557 223.243521 
L 523.875649 220.524506 
L 525.921742 222.02388 
L 527.967834 230.240531 
L 530.013927 239.639994 
L 532.060019 246.93725 
L 534.106112 247.691418 
L 536.152204 225.224705 
L 538.198297 215.067296 
L 540.244389 221.852397 
L 540.244389 221.852397 
" clip-path="url(#p14daed2d4c)" style="fill: none; stroke-dasharray: 9.25,4; stroke-dashoffset: 0; stroke: #cc79a7; stroke-width: 2.5"/>
   </g>
   <g id="patch_3">
    <path d="M 50.409844 386.22 
L 50.409844 84.28 
" style="fill: none; stroke: #262626; stroke-width: 1.25; stroke-linejoin: miter; stroke-linecap: square"/>
   </g>
   <g id="patch_4">
    <path d="M 563.569844 386.22 
L 563.569844 84.28 
" style="fill: none; stroke: #262626; stroke-width: 1.25; stroke-linejoin: miter; stroke-linecap: square"/>
   </g>
   <g id="patch_5">
    <path d="M 50.409844 386.22 
L 563.569844 386.22 
" style="fill: none; stroke: #262626; stroke-width: 1.25; stroke-linejoin: miter; stroke-linecap: square"/>
   </g>
   <g id="patch_6">
    <path d="M 50.409844 84.28 
L 563.569844 84.28 
" style="fill: none; stroke: #262626; stroke-width: 1.25; stroke-linejoin: miter; stroke-linecap: square"/>
   </g>
   <g id="text_16">
    <!-- (a) Full Dataset Prediction -->
    <g style="fill: #262626" transform="translate(216.414219 74.28) scale(0.14 -0.14)">
     <defs>
      <path id="DejaVuSans-28" d="M 1984 4856 
Q 1566 4138 1362 3434 
Q 1159 2731 1159 2009 
Q 1159 1288 1364 580 
Q 1569 -128 1984 -844 
L 1484 -844 
Q 1016 -109 783 600 
Q 550 1309 550 2009 
Q 550 2706 781 3412 
Q 1013 4119 1484 4856 
L 1984 4856 
z
" transform="scale(0.015625)"/>
      <path id="DejaVuSans-61" d="M 2194 1759 
Q 1497 1759 1228 1600 
Q 959 1441 959 1056 
Q 959 750 1161 570 
Q 1363 391 1709 391 
Q 2188 391 2477 730 
Q 2766 1069 2766 1631 
L 2766 1759 
L 2194 1759 
z
M 3341 1997 
L 3341 0 
L 2766 0 
L 2766 531 
Q 2569 213 2275 61 
Q 1981 -91 1556 -91 
Q 1019 -91 701 211 
Q 384 513 384 1019 
Q 384 1609 779 1909 
Q 1175 2209 1959 2209 
L 2766 2209 
L 2766 2266 
Q 2766 2663 2505 2880 
Q 2244 3097 1772 3097 
Q 1472 3097 1187 3025 
Q 903 2953 641 2809 
L 641 3341 
Q 956 3463 1253 3523 
Q 1550 3584 1831 3584 
Q 2591 3584 2966 3190 
Q 3341 2797 3341 1997 
z
" transform="scale(0.015625)"/>
      <path id="DejaVuSans-29" d="M 513 4856 
L 1013 4856 
Q 1481 4119 1714 3412 
Q 1947 2706 1947 2009 
Q 1947 1309 1714 600 
Q 1481 -109 1013 -844 
L 513 -844 
Q 928 -128 1133 580 
Q 1338 1288 1338 2009 
Q 1338 2731 1133 3434 
Q 928 4138 513 4856 
z
" transform="scale(0.015625)"/>
      <path id="DejaVuSans-46" d="M 628 4666 
L 3309 4666 
L 3309 4134 
L 1259 4134 
L 1259 2759 
L 3109 2759 
L 3109 2228 
L 1259 2228 
L 1259 0 
L 628 0 
L 628 4666 
z
" transform="scale(0.015625)"/>
      <path id="DejaVuSans-75" d="M 544 1381 
L 544 3500 
L 1119 3500 
L 1119 1403 
Q 1119 906 1312 657 
Q 1506 409 1894 409 
Q 2359 409 2629 706 
Q 2900 1003 2900 1516 
L 2900 3500 
L 3475 3500 
L 3475 0 
L 2900 0 
L 2900 538 
Q 2691 219 2414 64 
Q 2138 -91 1772 -91 
Q 1169 -91 856 284 
Q 544 659 544 1381 
z
M 1991 3584 
L 1991 3584 
z
" transform="scale(0.015625)"/>
      <path id="DejaVuSans-6c" d="M 603 4863 
L 1178 4863 
L 1178 0 
L 603 0 
L 603 4863 
z
" transform="scale(0.015625)"/>
      <path id="DejaVuSans-44" d="M 1259 4147 
L 1259 519 
L 2022 519 
Q 2988 519 3436 956 
Q 3884 1394 3884 2338 
Q 3884 3275 3436 3711 
Q 2988 4147 2022 4147 
L 1259 4147 
z
M 628 4666 
L 1925 4666 
Q 3281 4666 3915 4102 
Q 4550 3538 4550 2338 
Q 4550 1131 3912 565 
Q 3275 0 1925 0 
L 628 0 
L 628 4666 
z
" transform="scale(0.015625)"/>
      <path id="DejaVuSans-73" d="M 2834 3397 
L 2834 2853 
Q 2591 2978 2328 3040 
Q 2066 3103 1784 3103 
Q 1356 3103 1142 2972 
Q 928 2841 928 2578 
Q 928 2378 1081 2264 
Q 1234 2150 1697 2047 
L 1894 2003 
Q 2506 1872 2764 1633 
Q 3022 1394 3022 966 
Q 3022 478 2636 193 
Q 2250 -91 1575 -91 
Q 1294 -91 989 -36 
Q 684 19 347 128 
L 347 722 
Q 666 556 975 473 
Q 1284 391 1588 391 
Q 1994 391 2212 530 
Q 2431 669 2431 922 
Q 2431 1156 2273 1281 
Q 2116 1406 1581 1522 
L 1381 1569 
Q 847 1681 609 1914 
Q 372 2147 372 2553 
Q 372 3047 722 3315 
Q 1072 3584 1716 3584 
Q 2034 3584 2315 3537 
Q 2597 3491 2834 3397 
z
" transform="scale(0.015625)"/>
      <path id="DejaVuSans-50" d="M 1259 4147 
L 1259 2394 
L 2053 2394 
Q 2494 2394 2734 2622 
Q 2975 2850 2975 3272 
Q 2975 3691 2734 3919 
Q 2494 4147 2053 4147 
L 1259 4147 
z
M 628 4666 
L 2053 4666 
Q 2838 4666 3239 4311 
Q 3641 3956 3641 3272 
Q 3641 2581 3239 2228 
Q 2838 1875 2053 1875 
L 1259 1875 
L 1259 0 
L 628 0 
L 628 4666 
z
" transform="scale(0.015625)"/>
      <path id="DejaVuSans-72" d="M 2631 2963 
Q 2534 3019 2420 3045 
Q 2306 3072 2169 3072 
Q 1681 3072 1420 2755 
Q 1159 2438 1159 1844 
L 1159 0 
L 581 0 
L 581 3500 
L 1159 3500 
L 1159 2956 
Q 1341 3275 1631 3429 
Q 1922 3584 2338 3584 
Q 2397 3584 2469 3576 
Q 2541 3569 2628 3553 
L 2631 2963 
z
" transform="scale(0.015625)"/>
      <path id="DejaVuSans-64" d="M 2906 2969 
L 2906 4863 
L 3481 4863 
L 3481 0 
L 2906 0 
L 2906 525 
Q 2725 213 2448 61 
Q 2172 -91 1784 -91 
Q 1150 -91 751 415 
Q 353 922 353 1747 
Q 353 2572 751 3078 
Q 1150 3584 1784 3584 
Q 2172 3584 2448 3432 
Q 2725 3281 2906 2969 
z
M 947 1747 
Q 947 1113 1208 752 
Q 1469 391 1925 391 
Q 2381 391 2643 752 
Q 2906 1113 2906 1747 
Q 2906 2381 2643 2742 
Q 2381 3103 1925 3103 
Q 1469 3103 1208 2742 
Q 947 2381 947 1747 
z
" transform="scale(0.015625)"/>
      <path id="DejaVuSans-63" d="M 3122 3366 
L 3122 2828 
Q 2878 2963 2633 3030 
Q 2388 3097 2138 3097 
Q 1578 3097 1268 2742 
Q 959 2388 959 1747 
Q 959 1106 1268 751 
Q 1578 397 2138 397 
Q 2388 397 2633 464 
Q 2878 531 3122 666 
L 3122 134 
Q 2881 22 2623 -34 
Q 2366 -91 2075 -91 
Q 1284 -91 818 406 
Q 353 903 353 1747 
Q 353 2603 823 3093 
Q 1294 3584 2113 3584 
Q 2378 3584 2631 3529 
Q 2884 3475 3122 3366 
z
" transform="scale(0.015625)"/>
      <path id="DejaVuSans-6f" d="M 1959 3097 
Q 1497 3097 1228 2736 
Q 959 2375 959 1747 
Q 959 1119 1226 758 
Q 1494 397 1959 397 
Q 2419 397 2687 759 
Q 2956 1122 2956 1747 
Q 2956 2369 2687 2733 
Q 2419 3097 1959 3097 
z
M 1959 3584 
Q 2709 3584 3137 3096 
Q 3566 2609 3566 1747 
Q 3566 888 3137 398 
Q 2709 -91 1959 -91 
Q 1206 -91 779 398 
Q 353 888 353 1747 
Q 353 2609 779 3096 
Q 1206 3584 1959 3584 
z
" transform="scale(0.015625)"/>
      <path id="DejaVuSans-6e" d="M 3513 2113 
L 3513 0 
L 2938 0 
L 2938 2094 
Q 2938 2591 2744 2837 
Q 2550 3084 2163 3084 
Q 1697 3084 1428 2787 
Q 1159 2491 1159 1978 
L 1159 0 
L 581 0 
L 581 3500 
L 1159 3500 
L 1159 2956 
Q 1366 3272 1645 3428 
Q 1925 3584 2291 3584 
Q 2894 3584 3203 3211 
Q 3513 2838 3513 2113 
z
" transform="scale(0.015625)"/>
     </defs>
     <use xlink:href="#DejaVuSans-28"/>
     <use xlink:href="#DejaVuSans-61" x="39.013672"/>
     <use xlink:href="#DejaVuSans-29" x="100.292969"/>
     <use xlink:href="#DejaVuSans-20" x="139.306641"/>
     <use xlink:href="#DejaVuSans-46" x="171.09375"/>
     <use xlink:href="#DejaVuSans-75" x="223.113281"/>
     <use xlink:href="#DejaVuSans-6c" x="286.492188"/>
     <use xlink:href="#DejaVuSans-6c" x="314.275391"/>
     <use xlink:href="#DejaVuSans-20" x="342.058594"/>
     <use xlink:href="#DejaVuSans-44" x="373.845703"/>
     <use xlink:href="#DejaVuSans-61" x="450.847656"/>
     <use xlink:href="#DejaVuSans-74" x="512.126953"/>
     <use xlink:href="#DejaVuSans-61" x="551.335938"/>
     <use xlink:href="#DejaVuSans-73" x="612.615234"/>
     <use xlink:href="#DejaVuSans-65" x="664.714844"/>
     <use xlink:href="#DejaVuSans-74" x="726.238281"/>
     <use xlink:href="#DejaVuSans-20" x="765.447266"/>
     <use xlink:href="#DejaVuSans-50" x="797.234375"/>
     <use xlink:href="#DejaVuSans-72" x="855.787109"/>
     <use xlink:href="#DejaVuSans-65" x="894.650391"/>
     <use xlink:href="#DejaVuSans-64" x="956.173828"/>
     <use xlink:href="#DejaVuSans-69" x="1019.650391"/>
     <use xlink:href="#DejaVuSans-63" x="1047.433594"/>
     <use xlink:href="#DejaVuSans-74" x="1102.414062"/>
     <use xlink:href="#DejaVuSans-69" x="1141.623047"/>
     <use xlink:href="#DejaVuSans-6f" x="1169.40625"/>
     <use xlink:href="#DejaVuSans-6e" x="1230.587891"/>
    </g>
   </g>
   <g id="legend_1">
    <g id="patch_7">
     <path d="M 448.846719 380.72 
L 555.869844 380.72 
Q 558.069844 380.72 558.069844 378.52 
L 558.069844 298.890312 
Q 558.069844 296.690313 555.869844 296.690313 
L 448.846719 296.690313 
Q 446.646719 296.690313 446.646719 298.890312 
L 446.646719 378.52 
Q 446.646719 380.72 448.846719 380.72 
z
" style="fill: #ffffff; opacity: 0.8; stroke: #cccccc; stroke-linejoin: miter"/>
    </g>
    <g id="line2d_6">
     <path d="M 451.046719 305.598594 
L 462.046719 305.598594 
L 473.046719 305.598594 
" style="fill: none; stroke: #d3d3d3; stroke-width: 2; stroke-linecap: round"/>
    </g>
    <g id="text_17">
     <!-- Ground Truth -->
     <g style="fill: #262626" transform="translate(481.846719 309.448594) scale(0.11 -0.11)">
      <defs>
       <path id="DejaVuSans-47" d="M 3809 666 
L 3809 1919 
L 2778 1919 
L 2778 2438 
L 4434 2438 
L 4434 434 
Q 4069 175 3628 42 
Q 3188 -91 2688 -91 
Q 1594 -91 976 548 
Q 359 1188 359 2328 
Q 359 3472 976 4111 
Q 1594 4750 2688 4750 
Q 3144 4750 3555 4637 
Q 3966 4525 4313 4306 
L 4313 3634 
Q 3963 3931 3569 4081 
Q 3175 4231 2741 4231 
Q 1884 4231 1454 3753 
Q 1025 3275 1025 2328 
Q 1025 1384 1454 906 
Q 1884 428 2741 428 
Q 3075 428 3337 486 
Q 3600 544 3809 666 
z
" transform="scale(0.015625)"/>
       <path id="DejaVuSans-68" d="M 3513 2113 
L 3513 0 
L 2938 0 
L 2938 2094 
Q 2938 2591 2744 2837 
Q 2550 3084 2163 3084 
Q 1697 3084 1428 2787 
Q 1159 2491 1159 1978 
L 1159 0 
L 581 0 
L 581 4863 
L 1159 4863 
L 1159 2956 
Q 1366 3272 1645 3428 
Q 1925 3584 2291 3584 
Q 2894 3584 3203 3211 
Q 3513 2838 3513 2113 
z
" transform="scale(0.015625)"/>
      </defs>
      <use xlink:href="#DejaVuSans-47"/>
      <use xlink:href="#DejaVuSans-72" x="77.490234"/>
      <use xlink:href="#DejaVuSans-6f" x="116.353516"/>
      <use xlink:href="#DejaVuSans-75" x="177.535156"/>
      <use xlink:href="#DejaVuSans-6e" x="240.914062"/>
      <use xlink:href="#DejaVuSans-64" x="304.292969"/>
      <use xlink:href="#DejaVuSans-20" x="367.769531"/>
      <use xlink:href="#DejaVuSans-54" x="399.556641"/>
      <use xlink:href="#DejaVuSans-72" x="445.890625"/>
      <use xlink:href="#DejaVuSans-75" x="487.003906"/>
      <use xlink:href="#DejaVuSans-74" x="550.382812"/>
      <use xlink:href="#DejaVuSans-68" x="589.591797"/>
     </g>
    </g>
    <g id="line2d_7">
     <path d="M 451.046719 321.744531 
L 462.046719 321.744531 
L 473.046719 321.744531 
" style="fill: none; stroke: #0072b2; stroke-width: 2.5; stroke-linecap: round"/>
    </g>
    <g id="text_18">
     <!-- HQTCN-C -->
     <g style="fill: #262626" transform="translate(481.846719 325.594531) scale(0.11 -0.11)">
      <defs>
       <path id="DejaVuSans-48" d="M 628 4666 
L 1259 4666 
L 1259 2753 
L 3553 2753 
L 3553 4666 
L 4184 4666 
L 4184 0 
L 3553 0 
L 3553 2222 
L 1259 2222 
L 1259 0 
L 628 0 
L 628 4666 
z
" transform="scale(0.015625)"/>
       <path id="DejaVuSans-51" d="M 2522 4238 
Q 1834 4238 1429 3725 
Q 1025 3213 1025 2328 
Q 1025 1447 1429 934 
Q 1834 422 2522 422 
Q 3209 422 3611 934 
Q 4013 1447 4013 2328 
Q 4013 3213 3611 3725 
Q 3209 4238 2522 4238 
z
M 3406 84 
L 4238 -825 
L 3475 -825 
L 2784 -78 
Q 2681 -84 2626 -87 
Q 2572 -91 2522 -91 
Q 1538 -91 948 567 
Q 359 1225 359 2328 
Q 359 3434 948 4092 
Q 1538 4750 2522 4750 
Q 3503 4750 4090 4092 
Q 4678 3434 4678 2328 
Q 4678 1516 4351 937 
Q 4025 359 3406 84 
z
" transform="scale(0.015625)"/>
       <path id="DejaVuSans-43" d="M 4122 4306 
L 4122 3641 
Q 3803 3938 3442 4084 
Q 3081 4231 2675 4231 
Q 1875 4231 1450 3742 
Q 1025 3253 1025 2328 
Q 1025 1406 1450 917 
Q 1875 428 2675 428 
Q 3081 428 3442 575 
Q 3803 722 4122 1019 
L 4122 359 
Q 3791 134 3420 21 
Q 3050 -91 2638 -91 
Q 1578 -91 968 557 
Q 359 1206 359 2328 
Q 359 3453 968 4101 
Q 1578 4750 2638 4750 
Q 3056 4750 3426 4639 
Q 3797 4528 4122 4306 
z
" transform="scale(0.015625)"/>
       <path id="DejaVuSans-4e" d="M 628 4666 
L 1478 4666 
L 3547 763 
L 3547 4666 
L 4159 4666 
L 4159 0 
L 3309 0 
L 1241 3903 
L 1241 0 
L 628 0 
L 628 4666 
z
" transform="scale(0.015625)"/>
       <path id="DejaVuSans-2d" d="M 313 2009 
L 1997 2009 
L 1997 1497 
L 313 1497 
L 313 2009 
z
" transform="scale(0.015625)"/>
      </defs>
      <use xlink:href="#DejaVuSans-48"/>
      <use xlink:href="#DejaVuSans-51" x="75.195312"/>
      <use xlink:href="#DejaVuSans-54" x="153.90625"/>
      <use xlink:href="#DejaVuSans-43" x="209.115234"/>
      <use xlink:href="#DejaVuSans-4e" x="278.939453"/>
      <use xlink:href="#DejaVuSans-2d" x="353.744141"/>
      <use xlink:href="#DejaVuSans-43" x="389.828125"/>
     </g>
    </g>
    <g id="line2d_8">
     <path d="M 451.046719 337.890469 
L 462.046719 337.890469 
L 473.046719 337.890469 
" style="fill: none; stroke: #d55e00; stroke-width: 2.5; stroke-linecap: round"/>
    </g>
    <g id="text_19">
     <!-- HQTCN-R -->
     <g style="fill: #262626" transform="translate(481.846719 341.740469) scale(0.11 -0.11)">
      <defs>
       <path id="DejaVuSans-52" d="M 2841 2188 
Q 3044 2119 3236 1894 
Q 3428 1669 3622 1275 
L 4263 0 
L 3584 0 
L 2988 1197 
Q 2756 1666 2539 1819 
Q 2322 1972 1947 1972 
L 1259 1972 
L 1259 0 
L 628 0 
L 628 4666 
L 2053 4666 
Q 2853 4666 3247 4331 
Q 3641 3997 3641 3322 
Q 3641 2881 3436 2590 
Q 3231 2300 2841 2188 
z
M 1259 4147 
L 1259 2491 
L 2053 2491 
Q 2509 2491 2742 2702 
Q 2975 2913 2975 3322 
Q 2975 3731 2742 3939 
Q 2509 4147 2053 4147 
L 1259 4147 
z
" transform="scale(0.015625)"/>
      </defs>
      <use xlink:href="#DejaVuSans-48"/>
      <use xlink:href="#DejaVuSans-51" x="75.195312"/>
      <use xlink:href="#DejaVuSans-54" x="153.90625"/>
      <use xlink:href="#DejaVuSans-43" x="209.115234"/>
      <use xlink:href="#DejaVuSans-4e" x="278.939453"/>
      <use xlink:href="#DejaVuSans-2d" x="353.744141"/>
      <use xlink:href="#DejaVuSans-52" x="389.828125"/>
     </g>
    </g>
    <g id="line2d_9">
     <path d="M 451.046719 354.036406 
L 462.046719 354.036406 
L 473.046719 354.036406 
" style="fill: none; stroke-dasharray: 9.25,4; stroke-dashoffset: 0; stroke: #009e73; stroke-width: 2.5"/>
    </g>
    <g id="text_20">
     <!-- TCN -->
     <g style="fill: #262626" transform="translate(481.846719 357.886406) scale(0.11 -0.11)">
      <use xlink:href="#DejaVuSans-54"/>
      <use xlink:href="#DejaVuSans-43" x="55.208984"/>
      <use xlink:href="#DejaVuSans-4e" x="125.033203"/>
     </g>
    </g>
    <g id="line2d_10">
     <path d="M 451.046719 370.182344 
L 462.046719 370.182344 
L 473.046719 370.182344 
" style="fill: none; stroke-dasharray: 9.25,4; stroke-dashoffset: 0; stroke: #cc79a7; stroke-width: 2.5"/>
    </g>
    <g id="text_21">
     <!-- QLSTM -->
     <g style="fill: #262626" transform="translate(481.846719 374.032344) scale(0.11 -0.11)">
      <defs>
       <path id="DejaVuSans-4c" d="M 628 4666 
L 1259 4666 
L 1259 531 
L 3531 531 
L 3531 0 
L 628 0 
L 628 4666 
z
" transform="scale(0.015625)"/>
       <path id="DejaVuSans-4d" d="M 628 4666 
L 1569 4666 
L 2759 1491 
L 3956 4666 
L 4897 4666 
L 4897 0 
L 4281 0 
L 4281 4097 
L 3078 897 
L 2444 897 
L 1241 4097 
L 1241 0 
L 628 0 
L 628 4666 
z
" transform="scale(0.015625)"/>
      </defs>
      <use xlink:href="#DejaVuSans-51"/>
      <use xlink:href="#DejaVuSans-4c" x="78.710938"/>
      <use xlink:href="#DejaVuSans-53" x="134.423828"/>
      <use xlink:href="#DejaVuSans-54" x="197.900391"/>
      <use xlink:href="#DejaVuSans-4d" x="258.984375"/>
     </g>
    </g>
   </g>
  </g>
  <g id="axes_2">
   <g id="patch_8">
    <path d="M 619.929844 386.22 
L 1133.089844 386.22 
L 1133.089844 84.28 
L 619.929844 84.28 
z
" style="fill: #ffffff"/>
   </g>
   <g id="matplotlib.axis_3">
    <g id="xtick_6">
     <g id="text_22">
      <!-- 195 -->
      <g style="fill: #262626" transform="translate(638.755147 404.078281) scale(0.11 -0.11)">
       <defs>
        <path id="DejaVuSans-39" d="M 703 97 
L 703 672 
Q 941 559 1184 500 
Q 1428 441 1663 441 
Q 2288 441 2617 861 
Q 2947 1281 2994 2138 
Q 2813 1869 2534 1725 
Q 2256 1581 1919 1581 
Q 1219 1581 811 2004 
Q 403 2428 403 3163 
Q 403 3881 828 4315 
Q 1253 4750 1959 4750 
Q 2769 4750 3195 4129 
Q 3622 3509 3622 2328 
Q 3622 1225 3098 567 
Q 2575 -91 1691 -91 
Q 1453 -91 1209 -44 
Q 966 3 703 97 
z
M 1959 2075 
Q 2384 2075 2632 2365 
Q 2881 2656 2881 3163 
Q 2881 3666 2632 3958 
Q 2384 4250 1959 4250 
Q 1534 4250 1286 3958 
Q 1038 3666 1038 3163 
Q 1038 2656 1286 2365 
Q 1534 2075 1959 2075 
z
" transform="scale(0.015625)"/>
       </defs>
       <use xlink:href="#DejaVuSans-31"/>
       <use xlink:href="#DejaVuSans-39" x="63.623047"/>
       <use xlink:href="#DejaVuSans-35" x="127.246094"/>
      </g>
     </g>
    </g>
    <g id="xtick_7">
     <g id="text_23">
      <!-- 200 -->
      <g style="fill: #262626" transform="translate(712.063719 404.078281) scale(0.11 -0.11)">
       <use xlink:href="#DejaVuSans-32"/>
       <use xlink:href="#DejaVuSans-30" x="63.623047"/>
       <use xlink:href="#DejaVuSans-30" x="127.246094"/>
      </g>
     </g>
    </g>
    <g id="xtick_8">
     <g id="text_24">
      <!-- 205 -->
      <g style="fill: #262626" transform="translate(785.37229 404.078281) scale(0.11 -0.11)">
       <use xlink:href="#DejaVuSans-32"/>
       <use xlink:href="#DejaVuSans-30" x="63.623047"/>
       <use xlink:href="#DejaVuSans-35" x="127.246094"/>
      </g>
     </g>
    </g>
    <g id="xtick_9">
     <g id="text_25">
      <!-- 210 -->
      <g style="fill: #262626" transform="translate(858.680862 404.078281) scale(0.11 -0.11)">
       <use xlink:href="#DejaVuSans-32"/>
       <use xlink:href="#DejaVuSans-31" x="63.623047"/>
       <use xlink:href="#DejaVuSans-30" x="127.246094"/>
      </g>
     </g>
    </g>
    <g id="xtick_10">
     <g id="text_26">
      <!-- 215 -->
      <g style="fill: #262626" transform="translate(931.989433 404.078281) scale(0.11 -0.11)">
       <use xlink:href="#DejaVuSans-32"/>
       <use xlink:href="#DejaVuSans-31" x="63.623047"/>
       <use xlink:href="#DejaVuSans-35" x="127.246094"/>
      </g>
     </g>
    </g>
    <g id="xtick_11">
     <g id="text_27">
      <!-- 220 -->
      <g style="fill: #262626" transform="translate(1005.298004 404.078281) scale(0.11 -0.11)">
       <use xlink:href="#DejaVuSans-32"/>
       <use xlink:href="#DejaVuSans-32" x="63.623047"/>
       <use xlink:href="#DejaVuSans-30" x="127.246094"/>
      </g>
     </g>
    </g>
    <g id="xtick_12">
     <g id="text_28">
      <!-- 225 -->
      <g style="fill: #262626" transform="translate(1078.606576 404.078281) scale(0.11 -0.11)">
       <use xlink:href="#DejaVuSans-32"/>
       <use xlink:href="#DejaVuSans-32" x="63.623047"/>
       <use xlink:href="#DejaVuSans-35" x="127.246094"/>
      </g>
     </g>
    </g>
    <g id="text_29">
     <!-- Time Step -->
     <g style="fill: #262626" transform="translate(846.260469 419.484062) scale(0.12 -0.12)">
      <use xlink:href="#DejaVuSans-54"/>
      <use xlink:href="#DejaVuSans-69" x="57.958984"/>
      <use xlink:href="#DejaVuSans-6d" x="85.742188"/>
      <use xlink:href="#DejaVuSans-65" x="183.154297"/>
      <use xlink:href="#DejaVuSans-20" x="244.677734"/>
      <use xlink:href="#DejaVuSans-53" x="276.464844"/>
      <use xlink:href="#DejaVuSans-74" x="339.941406"/>
      <use xlink:href="#DejaVuSans-65" x="379.150391"/>
      <use xlink:href="#DejaVuSans-70" x="440.673828"/>
     </g>
    </g>
   </g>
   <g id="matplotlib.axis_4">
    <g id="ytick_10">
     <g id="text_30">
      <!-- −1.00 -->
      <g style="fill: #262626" transform="translate(576.72 390.399141) scale(0.11 -0.11)">
       <use xlink:href="#DejaVuSans-2212"/>
       <use xlink:href="#DejaVuSans-31" x="83.789062"/>
       <use xlink:href="#DejaVuSans-2e" x="147.412109"/>
       <use xlink:href="#DejaVuSans-30" x="179.199219"/>
       <use xlink:href="#DejaVuSans-30" x="242.822266"/>
      </g>
     </g>
    </g>
    <g id="ytick_11">
     <g id="text_31">
      <!-- −0.75 -->
      <g style="fill: #262626" transform="translate(576.72 352.656641) scale(0.11 -0.11)">
       <use xlink:href="#DejaVuSans-2212"/>
       <use xlink:href="#DejaVuSans-30" x="83.789062"/>
       <use xlink:href="#DejaVuSans-2e" x="147.412109"/>
       <use xlink:href="#DejaVuSans-37" x="179.199219"/>
       <use xlink:href="#DejaVuSans-35" x="242.822266"/>
      </g>
     </g>
    </g>
    <g id="ytick_12">
     <g id="text_32">
      <!-- −0.50 -->
      <g style="fill: #262626" transform="translate(576.72 314.914141) scale(0.11 -0.11)">
       <use xlink:href="#DejaVuSans-2212"/>
       <use xlink:href="#DejaVuSans-30" x="83.789062"/>
       <use xlink:href="#DejaVuSans-2e" x="147.412109"/>
       <use xlink:href="#DejaVuSans-35" x="179.199219"/>
       <use xlink:href="#DejaVuSans-30" x="242.822266"/>
      </g>
     </g>
    </g>
    <g id="ytick_13">
     <g id="text_33">
      <!-- −0.25 -->
      <g style="fill: #262626" transform="translate(576.72 277.171641) scale(0.11 -0.11)">
       <use xlink:href="#DejaVuSans-2212"/>
       <use xlink:href="#DejaVuSans-30" x="83.789062"/>
       <use xlink:href="#DejaVuSans-2e" x="147.412109"/>
       <use xlink:href="#DejaVuSans-32" x="179.199219"/>
       <use xlink:href="#DejaVuSans-35" x="242.822266"/>
      </g>
     </g>
    </g>
    <g id="ytick_14">
     <g id="text_34">
      <!-- 0.00 -->
      <g style="fill: #262626" transform="translate(585.937656 239.429141) scale(0.11 -0.11)">
       <use xlink:href="#DejaVuSans-30"/>
       <use xlink:href="#DejaVuSans-2e" x="63.623047"/>
       <use xlink:href="#DejaVuSans-30" x="95.410156"/>
       <use xlink:href="#DejaVuSans-30" x="159.033203"/>
      </g>
     </g>
    </g>
    <g id="ytick_15">
     <g id="text_35">
      <!-- 0.25 -->
      <g style="fill: #262626" transform="translate(585.937656 201.686641) scale(0.11 -0.11)">
       <use xlink:href="#DejaVuSans-30"/>
       <use xlink:href="#DejaVuSans-2e" x="63.623047"/>
       <use xlink:href="#DejaVuSans-32" x="95.410156"/>
       <use xlink:href="#DejaVuSans-35" x="159.033203"/>
      </g>
     </g>
    </g>
    <g id="ytick_16">
     <g id="text_36">
      <!-- 0.50 -->
      <g style="fill: #262626" transform="translate(585.937656 163.944141) scale(0.11 -0.11)">
       <use xlink:href="#DejaVuSans-30"/>
       <use xlink:href="#DejaVuSans-2e" x="63.623047"/>
       <use xlink:href="#DejaVuSans-35" x="95.410156"/>
       <use xlink:href="#DejaVuSans-30" x="159.033203"/>
      </g>
     </g>
    </g>
    <g id="ytick_17">
     <g id="text_37">
      <!-- 0.75 -->
      <g style="fill: #262626" transform="translate(585.937656 126.201641) scale(0.11 -0.11)">
       <use xlink:href="#DejaVuSans-30"/>
       <use xlink:href="#DejaVuSans-2e" x="63.623047"/>
       <use xlink:href="#DejaVuSans-37" x="95.410156"/>
       <use xlink:href="#DejaVuSans-35" x="159.033203"/>
      </g>
     </g>
    </g>
    <g id="ytick_18">
     <g id="text_38">
      <!-- 1.00 -->
      <g style="fill: #262626" transform="translate(585.937656 88.459141) scale(0.11 -0.11)">
       <use xlink:href="#DejaVuSans-31"/>
       <use xlink:href="#DejaVuSans-2e" x="63.623047"/>
       <use xlink:href="#DejaVuSans-30" x="95.410156"/>
       <use xlink:href="#DejaVuSans-30" x="159.033203"/>
      </g>
     </g>
    </g>
   </g>
   <g id="line2d_11">
    <path d="M -1 242.438992 
L 4.137844 236.65931 
L 18.799558 277.78933 
L 33.461272 289.31363 
L 48.122987 214.339215 
L 62.784701 244.149801 
L 77.446415 257.120254 
L 92.108129 228.975604 
L 106.769844 163.446701 
L 121.431558 237.73128 
L 136.093272 212.425012 
L 150.754987 245.363023 
L 165.416701 270.182853 
L 180.078415 238.965635 
L 194.740129 239.050309 
L 209.401844 206.104813 
L 224.063558 189.42445 
L 238.725272 221.23159 
L 253.386987 260.415793 
L 268.048701 210.846124 
L 282.710415 206.950213 
L 297.372129 242.465398 
L 312.033844 239.796154 
L 326.695558 231.661543 
L 341.357272 258.050318 
L 356.018987 193.811347 
L 370.680701 240.591791 
L 385.342415 178.674269 
L 400.004129 140.459847 
L 414.665844 84.28 
L 429.327558 161.932149 
L 443.989272 202.888895 
L 458.650987 161.976655 
L 473.312701 216.317698 
L 487.974415 238.192163 
L 502.636129 235.90716 
L 517.297844 235.68692 
L 531.959558 185.421808 
L 546.621272 113.580715 
L 561.282987 174.519597 
L 575.944701 213.566337 
L 590.606415 172.845091 
L 605.268129 185.036132 
L 619.929844 227.062283 
L 634.591558 239.379481 
L 649.253272 238.381339 
L 663.914987 213.14307 
L 678.576701 127.572918 
L 693.238415 172.923278 
L 707.900129 220.314946 
L 722.561844 185.140362 
L 737.223558 217.546985 
L 751.885272 237.374631 
L 766.546987 258.607402 
L 781.208701 214.665859 
L 795.870415 190.098602 
L 810.532129 122.319594 
L 825.193844 180.592142 
L 839.855558 212.025224 
L 854.517272 243.886429 
L 869.178987 255.320009 
L 883.840701 263.360378 
L 898.502415 257.298841 
L 913.164129 249.039955 
L 927.825844 258.426265 
L 942.487558 169.775692 
L 957.149272 182.17537 
L 971.810987 161.100783 
L 986.472701 225.812233 
L 1001.134415 196.749969 
L 1015.796129 204.937383 
L 1030.457844 229.377712 
L 1045.119558 246.236795 
L 1059.781272 254.65596 
L 1074.442987 247.104824 
L 1089.104701 178.044926 
L 1103.766415 171.278958 
L 1118.428129 212.313286 
L 1133.089844 221.962127 
L 1133.089844 221.962127 
" clip-path="url(#p586d272f07)" style="fill: none; stroke: #d3d3d3; stroke-width: 2; stroke-linecap: round"/>
   </g>
   <g id="line2d_12">
    <path d="M -1 242.495833 
L 194.740129 242.504013 
L 443.989272 242.529423 
L 531.959558 242.490698 
L 1133.089844 242.521125 
L 1133.089844 242.521125 
" clip-path="url(#p586d272f07)" style="fill: none; stroke: #0072b2; stroke-width: 2.5; stroke-linecap: round"/>
   </g>
   <g id="line2d_13">
    <path d="M -1 257.971399 
L 4.137844 260.999639 
L 18.799558 258.066433 
L 48.122987 266.611175 
L 62.784701 255.218295 
L 77.446415 249.754643 
L 92.108129 250.265413 
L 106.769844 244.383386 
L 121.431558 231.967689 
L 136.093272 232.487885 
L 150.754987 240.762263 
L 165.416701 243.811306 
L 180.078415 247.962715 
L 194.740129 242.706771 
L 209.401844 239.375195 
L 224.063558 232.01065 
L 238.725272 213.27418 
L 253.386987 216.77474 
L 268.048701 239.261606 
L 282.710415 237.132123 
L 297.372129 232.267973 
L 312.033844 235.782469 
L 326.695558 236.461523 
L 341.357272 231.646199 
L 356.018987 232.422143 
L 370.680701 227.087931 
L 385.342415 230.115787 
L 400.004129 226.071565 
L 414.665844 200.901463 
L 429.327558 183.525071 
L 443.989272 192.108203 
L 458.650987 211.528297 
L 473.312701 209.81856 
L 487.974415 204.225088 
L 502.636129 212.429043 
L 517.297844 214.468887 
L 531.959558 201.953003 
L 561.282987 161.738576 
L 575.944701 179.941446 
L 590.606415 203.913267 
L 605.268129 204.434432 
L 619.929844 206.251056 
L 634.591558 216.90807 
L 649.253272 224.135284 
L 663.914987 219.925473 
L 678.576701 201.080986 
L 693.238415 177.395669 
L 707.900129 185.113186 
L 722.561844 206.885282 
L 737.223558 206.294531 
L 751.885272 211.418655 
L 766.546987 226.872673 
L 781.208701 233.002924 
L 795.870415 224.453351 
L 810.532129 199.630188 
L 825.193844 175.852384 
L 839.855558 189.235301 
L 854.517272 211.143452 
L 869.178987 222.934317 
L 883.840701 235.486354 
L 898.502415 240.59389 
L 913.164129 237.107381 
L 927.825844 228.815588 
L 942.487558 222.978858 
L 957.149272 208.318585 
L 971.810987 207.50262 
L 986.472701 214.582156 
L 1001.134415 227.011034 
L 1015.796129 232.879388 
L 1030.457844 228.135929 
L 1045.119558 228.763583 
L 1059.781272 232.861018 
L 1074.442987 228.847984 
L 1089.104701 222.830126 
L 1103.766415 208.066534 
L 1118.428129 198.653622 
L 1133.089844 213.371127 
L 1133.089844 213.371127 
" clip-path="url(#p586d272f07)" style="fill: none; stroke: #d55e00; stroke-width: 2.5; stroke-linecap: round"/>
   </g>
   <g id="line2d_14">
    <path d="M -1 250.463641 
L 4.137844 248.679394 
L 18.799558 245.386875 
L 33.461272 256.338578 
L 48.122987 260.85989 
L 62.784701 237.429219 
L 77.446415 245.659993 
L 92.108129 245.916441 
L 106.769844 238.975438 
L 121.431558 209.028625 
L 136.093272 233.842286 
L 150.754987 227.106344 
L 165.416701 241.189036 
L 180.078415 247.281174 
L 194.740129 239.998036 
L 209.401844 239.783608 
L 224.063558 224.451226 
L 238.725272 211.553563 
L 253.386987 225.884875 
L 268.048701 242.308599 
L 282.710415 227.442234 
L 297.372129 223.644935 
L 312.033844 235.041856 
L 326.695558 237.155416 
L 341.357272 233.686265 
L 356.018987 242.473107 
L 370.680701 220.014872 
L 385.342415 237.807536 
L 400.004129 211.779745 
L 414.665844 191.199902 
L 429.327558 169.685314 
L 443.989272 200.16595 
L 458.650987 216.243843 
L 473.312701 202.953931 
L 487.974415 219.213104 
L 502.636129 231.22904 
L 517.297844 231.776194 
L 531.959558 231.157428 
L 546.621272 209.990503 
L 561.282987 180.316788 
L 575.944701 201.50719 
L 590.606415 217.646561 
L 605.268129 205.101303 
L 619.929844 207.801574 
L 634.591558 225.622036 
L 649.253272 232.886934 
L 663.914987 233.504372 
L 678.576701 221.36009 
L 693.238415 187.90774 
L 707.900129 201.20724 
L 722.561844 220.080516 
L 737.223558 209.160154 
L 751.885272 221.941261 
L 766.546987 231.777709 
L 781.208701 242.431632 
L 795.870415 226.595419 
L 810.532129 210.024082 
L 825.193844 184.231899 
L 839.855558 205.504426 
L 854.517272 218.2056 
L 869.178987 233.437135 
L 883.840701 241.718299 
L 898.502415 247.077488 
L 913.164129 244.369944 
L 927.825844 241.524893 
L 942.487558 243.750122 
L 957.149272 211.53893 
L 971.810987 208.46215 
L 986.472701 201.931223 
L 1001.134415 227.079627 
L 1015.796129 218.530688 
L 1030.457844 219.099777 
L 1045.119558 228.783043 
L 1059.781272 237.895824 
L 1074.442987 240.008868 
L 1089.104701 238.856998 
L 1103.766415 209.956885 
L 1118.428129 202.493203 
L 1133.089844 219.022493 
L 1133.089844 219.022493 
" clip-path="url(#p586d272f07)" style="fill: none; stroke-dasharray: 9.25,4; stroke-dashoffset: 0; stroke: #009e73; stroke-width: 2.5"/>
   </g>
   <g id="line2d_15">
    <path d="M -1 252.676585 
L 4.137844 252.561504 
L 18.799558 246.78422 
L 33.461272 258.576336 
L 48.122987 266.947036 
L 62.784701 244.873767 
L 77.446415 246.602612 
L 92.108129 251.270069 
L 106.769844 243.313406 
L 121.431558 219.781896 
L 136.093272 232.206086 
L 150.754987 229.169493 
L 165.416701 239.077112 
L 180.078415 251.961913 
L 194.740129 246.825611 
L 209.401844 245.199657 
L 224.063558 233.030701 
L 238.725272 222.926339 
L 253.386987 228.266171 
L 268.048701 243.537984 
L 282.710415 233.355763 
L 297.372129 228.3731 
L 312.033844 237.767984 
L 326.695558 240.920943 
L 341.357272 239.685369 
L 356.018987 248.436595 
L 370.680701 230.072797 
L 385.342415 238.218029 
L 400.004129 221.495145 
L 414.665844 207.005754 
L 429.327558 195.733132 
L 443.989272 201.272401 
L 458.650987 212.458244 
L 473.312701 207.717024 
L 487.974415 219.378771 
L 502.636129 231.600735 
L 517.297844 236.676801 
L 531.959558 239.112804 
L 546.621272 223.874848 
L 561.282987 203.495966 
L 575.944701 207.096902 
L 590.606415 218.196274 
L 605.268129 212.263458 
L 619.929844 213.110137 
L 634.591558 225.169619 
L 649.253272 234.812176 
L 663.914987 239.063244 
L 678.576701 232.520499 
L 693.238415 208.192555 
L 707.900129 208.74691 
L 722.561844 220.971332 
L 737.223558 216.41186 
L 751.885272 223.971271 
L 766.546987 233.680069 
L 781.208701 245.470331 
L 795.870415 235.56275 
L 810.532129 224.097669 
L 825.193844 204.778784 
L 839.855558 208.975039 
L 854.517272 218.680548 
L 869.178987 233.127031 
L 883.840701 243.964323 
L 898.502415 251.902452 
L 913.164129 253.482725 
L 927.825844 251.522218 
L 942.487558 254.086323 
L 957.149272 225.467299 
L 971.810987 218.080079 
L 986.472701 209.852726 
L 1001.134415 223.243521 
L 1015.796129 220.524506 
L 1030.457844 222.02388 
L 1045.119558 230.240531 
L 1059.781272 239.639994 
L 1074.442987 246.93725 
L 1089.104701 247.691418 
L 1103.766415 225.224705 
L 1118.428129 215.067296 
L 1133.089844 221.852397 
L 1133.089844 221.852397 
" clip-path="url(#p586d272f07)" style="fill: none; stroke-dasharray: 9.25,4; stroke-dashoffset: 0; stroke: #cc79a7; stroke-width: 2.5"/>
   </g>
   <g id="patch_9">
    <path d="M 619.929844 386.22 
L 619.929844 84.28 
" style="fill: none; stroke: #262626; stroke-width: 1.25; stroke-linejoin: miter; stroke-linecap: square"/>
   </g>
   <g id="patch_10">
    <path d="M 1133.089844 386.22 
L 1133.089844 84.28 
" style="fill: none; stroke: #262626; stroke-width: 1.25; stroke-linejoin: miter; stroke-linecap: square"/>
   </g>
   <g id="patch_11">
    <path d="M 619.929844 386.22 
L 1133.089844 386.22 
" style="fill: none; stroke: #262626; stroke-width: 1.25; stroke-linejoin: miter; stroke-linecap: square"/>
   </g>
   <g id="patch_12">
    <path d="M 619.929844 84.28 
L 1133.089844 84.28 
" style="fill: none; stroke: #262626; stroke-width: 1.25; stroke-linejoin: miter; stroke-linecap: square"/>
   </g>
   <g id="text_39">
    <!-- (b) Zoomed-in View (Test Set) -->
    <g style="fill: #262626" transform="translate(772.519375 74.28) scale(0.14 -0.14)">
     <defs>
      <path id="DejaVuSans-62" d="M 3116 1747 
Q 3116 2381 2855 2742 
Q 2594 3103 2138 3103 
Q 1681 3103 1420 2742 
Q 1159 2381 1159 1747 
Q 1159 1113 1420 752 
Q 1681 391 2138 391 
Q 2594 391 2855 752 
Q 3116 1113 3116 1747 
z
M 1159 2969 
Q 1341 3281 1617 3432 
Q 1894 3584 2278 3584 
Q 2916 3584 3314 3078 
Q 3713 2572 3713 1747 
Q 3713 922 3314 415 
Q 2916 -91 2278 -91 
Q 1894 -91 1617 61 
Q 1341 213 1159 525 
L 1159 0 
L 581 0 
L 581 4863 
L 1159 4863 
L 1159 2969 
z
" transform="scale(0.015625)"/>
      <path id="DejaVuSans-5a" d="M 359 4666 
L 4025 4666 
L 4025 4184 
L 1075 531 
L 4097 531 
L 4097 0 
L 288 0 
L 288 481 
L 3238 4134 
L 359 4134 
L 359 4666 
z
" transform="scale(0.015625)"/>
      <path id="DejaVuSans-56" d="M 1831 0 
L 50 4666 
L 709 4666 
L 2188 738 
L 3669 4666 
L 4325 4666 
L 2547 0 
L 1831 0 
z
" transform="scale(0.015625)"/>
      <path id="DejaVuSans-77" d="M 269 3500 
L 844 3500 
L 1563 769 
L 2278 3500 
L 2956 3500 
L 3675 769 
L 4391 3500 
L 4966 3500 
L 4050 0 
L 3372 0 
L 2619 2869 
L 1863 0 
L 1184 0 
L 269 3500 
z
" transform="scale(0.015625)"/>
     </defs>
     <use xlink:href="#DejaVuSans-28"/>
     <use xlink:href="#DejaVuSans-62" x="39.013672"/>
     <use xlink:href="#DejaVuSans-29" x="102.490234"/>
     <use xlink:href="#DejaVuSans-20" x="141.503906"/>
     <use xlink:href="#DejaVuSans-5a" x="173.291016"/>
     <use xlink:href="#DejaVuSans-6f" x="241.796875"/>
     <use xlink:href="#DejaVuSans-6f" x="302.978516"/>
     <use xlink:href="#DejaVuSans-6d" x="364.160156"/>
     <use xlink:href="#DejaVuSans-65" x="461.572266"/>
     <use xlink:href="#DejaVuSans-64" x="523.095703"/>
     <use xlink:href="#DejaVuSans-2d" x="586.572266"/>
     <use xlink:href="#DejaVuSans-69" x="622.65625"/>
     <use xlink:href="#DejaVuSans-6e" x="650.439453"/>
     <use xlink:href="#DejaVuSans-20" x="713.818359"/>
     <use xlink:href="#DejaVuSans-56" x="745.605469"/>
     <use xlink:href="#DejaVuSans-69" x="811.763672"/>
     <use xlink:href="#DejaVuSans-65" x="839.546875"/>
     <use xlink:href="#DejaVuSans-77" x="901.070312"/>
     <use xlink:href="#DejaVuSans-20" x="982.857422"/>
     <use xlink:href="#DejaVuSans-28" x="1014.644531"/>
     <use xlink:href="#DejaVuSans-54" x="1053.658203"/>
     <use xlink:href="#DejaVuSans-65" x="1097.742188"/>
     <use xlink:href="#DejaVuSans-73" x="1159.265625"/>
     <use xlink:href="#DejaVuSans-74" x="1211.365234"/>
     <use xlink:href="#DejaVuSans-20" x="1250.574219"/>
     <use xlink:href="#DejaVuSans-53" x="1282.361328"/>
     <use xlink:href="#DejaVuSans-65" x="1345.837891"/>
     <use xlink:href="#DejaVuSans-74" x="1407.361328"/>
     <use xlink:href="#DejaVuSans-29" x="1446.570312"/>
    </g>
   </g>
   <g id="legend_2">
    <g id="patch_13">
     <path d="M 1018.366719 380.72 
L 1125.389844 380.72 
Q 1127.589844 380.72 1127.589844 378.52 
L 1127.589844 298.890312 
Q 1127.589844 296.690313 1125.389844 296.690313 
L 1018.366719 296.690313 
Q 1016.166719 296.690313 1016.166719 298.890312 
L 1016.166719 378.52 
Q 1016.166719 380.72 1018.366719 380.72 
z
" style="fill: #ffffff; opacity: 0.8; stroke: #cccccc; stroke-linejoin: miter"/>
    </g>
    <g id="line2d_16">
     <path d="M 1020.566719 305.598594 
L 1031.566719 305.598594 
L 1042.566719 305.598594 
" style="fill: none; stroke: #d3d3d3; stroke-width: 2; stroke-linecap: round"/>
    </g>
    <g id="text_40">
     <!-- Ground Truth -->
     <g style="fill: #262626" transform="translate(1051.366719 309.448594) scale(0.11 -0.11)">
      <use xlink:href="#DejaVuSans-47"/>
      <use xlink:href="#DejaVuSans-72" x="77.490234"/>
      <use xlink:href="#DejaVuSans-6f" x="116.353516"/>
      <use xlink:href="#DejaVuSans-75" x="177.535156"/>
      <use xlink:href="#DejaVuSans-6e" x="240.914062"/>
      <use xlink:href="#DejaVuSans-64" x="304.292969"/>
      <use xlink:href="#DejaVuSans-20" x="367.769531"/>
      <use xlink:href="#DejaVuSans-54" x="399.556641"/>
      <use xlink:href="#DejaVuSans-72" x="445.890625"/>
      <use xlink:href="#DejaVuSans-75" x="487.003906"/>
      <use xlink:href="#DejaVuSans-74" x="550.382812"/>
      <use xlink:href="#DejaVuSans-68" x="589.591797"/>
     </g>
    </g>
    <g id="line2d_17">
     <path d="M 1020.566719 321.744531 
L 1031.566719 321.744531 
L 1042.566719 321.744531 
" style="fill: none; stroke: #0072b2; stroke-width: 2.5; stroke-linecap: round"/>
    </g>
    <g id="text_41">
     <!-- HQTCN-C -->
     <g style="fill: #262626" transform="translate(1051.366719 325.594531) scale(0.11 -0.11)">
      <use xlink:href="#DejaVuSans-48"/>
      <use xlink:href="#DejaVuSans-51" x="75.195312"/>
      <use xlink:href="#DejaVuSans-54" x="153.90625"/>
      <use xlink:href="#DejaVuSans-43" x="209.115234"/>
      <use xlink:href="#DejaVuSans-4e" x="278.939453"/>
      <use xlink:href="#DejaVuSans-2d" x="353.744141"/>
      <use xlink:href="#DejaVuSans-43" x="389.828125"/>
     </g>
    </g>
    <g id="line2d_18">
     <path d="M 1020.566719 337.890469 
L 1031.566719 337.890469 
L 1042.566719 337.890469 
" style="fill: none; stroke: #d55e00; stroke-width: 2.5; stroke-linecap: round"/>
    </g>
    <g id="text_42">
     <!-- HQTCN-R -->
     <g style="fill: #262626" transform="translate(1051.366719 341.740469) scale(0.11 -0.11)">
      <use xlink:href="#DejaVuSans-48"/>
      <use xlink:href="#DejaVuSans-51" x="75.195312"/>
      <use xlink:href="#DejaVuSans-54" x="153.90625"/>
      <use xlink:href="#DejaVuSans-43" x="209.115234"/>
      <use xlink:href="#DejaVuSans-4e" x="278.939453"/>
      <use xlink:href="#DejaVuSans-2d" x="353.744141"/>
      <use xlink:href="#DejaVuSans-52" x="389.828125"/>
     </g>
    </g>
    <g id="line2d_19">
     <path d="M 1020.566719 354.036406 
L 1031.566719 354.036406 
L 1042.566719 354.036406 
" style="fill: none; stroke-dasharray: 9.25,4; stroke-dashoffset: 0; stroke: #009e73; stroke-width: 2.5"/>
    </g>
    <g id="text_43">
     <!-- TCN -->
     <g style="fill: #262626" transform="translate(1051.366719 357.886406) scale(0.11 -0.11)">
      <use xlink:href="#DejaVuSans-54"/>
      <use xlink:href="#DejaVuSans-43" x="55.208984"/>
      <use xlink:href="#DejaVuSans-4e" x="125.033203"/>
     </g>
    </g>
    <g id="line2d_20">
     <path d="M 1020.566719 370.182344 
L 1031.566719 370.182344 
L 1042.566719 370.182344 
" style="fill: none; stroke-dasharray: 9.25,4; stroke-dashoffset: 0; stroke: #cc79a7; stroke-width: 2.5"/>
    </g>
    <g id="text_44">
     <!-- QLSTM -->
     <g style="fill: #262626" transform="translate(1051.366719 374.032344) scale(0.11 -0.11)">
      <use xlink:href="#DejaVuSans-51"/>
      <use xlink:href="#DejaVuSans-4c" x="78.710938"/>
      <use xlink:href="#DejaVuSans-53" x="134.423828"/>
      <use xlink:href="#DejaVuSans-54" x="197.900391"/>
      <use xlink:href="#DejaVuSans-4d" x="258.984375"/>
     </g>
    </g>
   </g>
  </g>
  <g id="text_45">
   <!-- Time Series Prediction on NARMA Dataset -->
   <g style="fill: #262626" transform="translate(381.824688 20.877187) scale(0.18 -0.18)">
    <defs>
     <path id="DejaVuSans-41" d="M 2188 4044 
L 1331 1722 
L 3047 1722 
L 2188 4044 
z
M 1831 4666 
L 2547 4666 
L 4325 0 
L 3669 0 
L 3244 1197 
L 1141 1197 
L 716 0 
L 50 0 
L 1831 4666 
z
" transform="scale(0.015625)"/>
    </defs>
    <use xlink:href="#DejaVuSans-54"/>
    <use xlink:href="#DejaVuSans-69" x="57.958984"/>
    <use xlink:href="#DejaVuSans-6d" x="85.742188"/>
    <use xlink:href="#DejaVuSans-65" x="183.154297"/>
    <use xlink:href="#DejaVuSans-20" x="244.677734"/>
    <use xlink:href="#DejaVuSans-53" x="276.464844"/>
    <use xlink:href="#DejaVuSans-65" x="339.941406"/>
    <use xlink:href="#DejaVuSans-72" x="401.464844"/>
    <use xlink:href="#DejaVuSans-69" x="442.578125"/>
    <use xlink:href="#DejaVuSans-65" x="470.361328"/>
    <use xlink:href="#DejaVuSans-73" x="531.884766"/>
    <use xlink:href="#DejaVuSans-20" x="583.984375"/>
    <use xlink:href="#DejaVuSans-50" x="615.771484"/>
    <use xlink:href="#DejaVuSans-72" x="674.324219"/>
    <use xlink:href="#DejaVuSans-65" x="713.1875"/>
    <use xlink:href="#DejaVuSans-64" x="774.710938"/>
    <use xlink:href="#DejaVuSans-69" x="838.1875"/>
    <use xlink:href="#DejaVuSans-63" x="865.970703"/>
    <use xlink:href="#DejaVuSans-74" x="920.951172"/>
    <use xlink:href="#DejaVuSans-69" x="960.160156"/>
    <use xlink:href="#DejaVuSans-6f" x="987.943359"/>
    <use xlink:href="#DejaVuSans-6e" x="1049.125"/>
    <use xlink:href="#DejaVuSans-20" x="1112.503906"/>
    <use xlink:href="#DejaVuSans-6f" x="1144.291016"/>
    <use xlink:href="#DejaVuSans-6e" x="1205.472656"/>
    <use xlink:href="#DejaVuSans-20" x="1268.851562"/>
    <use xlink:href="#DejaVuSans-4e" x="1300.638672"/>
    <use xlink:href="#DejaVuSans-41" x="1375.443359"/>
    <use xlink:href="#DejaVuSans-52" x="1443.851562"/>
    <use xlink:href="#DejaVuSans-4d" x="1513.333984"/>
    <use xlink:href="#DejaVuSans-41" x="1599.613281"/>
    <use xlink:href="#DejaVuSans-20" x="1668.021484"/>
    <use xlink:href="#DejaVuSans-44" x="1699.808594"/>
    <use xlink:href="#DejaVuSans-61" x="1776.810547"/>
    <use xlink:href="#DejaVuSans-74" x="1838.089844"/>
    <use xlink:href="#DejaVuSans-61" x="1877.298828"/>
    <use xlink:href="#DejaVuSans-73" x="1938.578125"/>
    <use xlink:href="#DejaVuSans-65" x="1990.677734"/>
    <use xlink:href="#DejaVuSans-74" x="2052.201172"/>
   </g>
  </g>
 </g>
 <defs>
  <clipPath id="p14daed2d4c">
   <rect x="50.409844" y="84.28" width="513.16" height="301.94"/>
  </clipPath>
  <clipPath id="p586d272f07">
   <rect x="619.929844" y="84.28" width="513.16" height="301.94"/>
  </clipPath>
 </defs>
</svg>
