<?xml version="1.0" encoding="utf-8" standalone="no"?>
<!DOCTYPE svg PUBLIC "-//W3C//DTD SVG 1.1//EN"
  "http://www.w3.org/Graphics/SVG/1.1/DTD/svg11.dtd">
<svg xmlns:xlink="http://www.w3.org/1999/xlink" width="1427.394687pt" height="427.619687pt" viewBox="0 0 1427.394687 427.619687" xmlns="http://www.w3.org/2000/svg" version="1.1">
 <metadata>
  <rdf:RDF xmlns:dc="http://purl.org/dc/elements/1.1/" xmlns:cc="http://creativecommons.org/ns#" xmlns:rdf="http://www.w3.org/1999/02/22-rdf-syntax-ns#">
   <cc:Work>
    <dc:type rdf:resource="http://purl.org/dc/dcmitype/StillImage"/>
    <dc:date>2025-07-12T09:34:36.421793</dc:date>
    <dc:format>image/svg+xml</dc:format>
    <dc:creator>
     <cc:Agent>
      <dc:title>Matplotlib v3.8.2, https://matplotlib.org/</dc:title>
     </cc:Agent>
    </dc:creator>
   </cc:Work>
  </rdf:RDF>
 </metadata>
 <defs>
  <style type="text/css">*{stroke-linejoin: round; stroke-linecap: butt}</style>
 </defs>
 <g id="figure_1">
  <g id="patch_1">
   <path d="M -0 427.619687 
L 1427.394687 427.619687 
L 1427.394687 0 
L -0 0 
z
" style="fill: #ffffff"/>
  </g>
  <g id="axes_1">
   <g id="patch_2">
    <path d="M 63.804688 384.66 
L 468.834687 384.66 
L 468.834687 89.76 
L 63.804688 89.76 
z
" style="fill: #ffffff"/>
   </g>
   <g id="matplotlib.axis_1">
    <g id="xtick_1">
     <g id="text_1">
      <!-- 0 -->
      <g style="fill: #262626" transform="translate(71.201296 402.518281) scale(0.11 -0.11)">
       <defs>
        <path id="DejaVuSans-30" d="M 2034 4250 
Q 1547 4250 1301 3770 
Q 1056 3291 1056 2328 
Q 1056 1369 1301 889 
Q 1547 409 2034 409 
Q 2525 409 2770 889 
Q 3016 1369 3016 2328 
Q 3016 3291 2770 3770 
Q 2525 4250 2034 4250 
z
M 2034 4750 
Q 2819 4750 3233 4129 
Q 3647 3509 3647 2328 
Q 3647 1150 3233 529 
Q 2819 -91 2034 -91 
Q 1250 -91 836 529 
Q 422 1150 422 2328 
Q 422 3509 836 4129 
Q 1250 4750 2034 4750 
z
" transform="scale(0.015625)"/>
       </defs>
       <use xlink:href="#DejaVuSans-30"/>
      </g>
     </g>
    </g>
    <g id="xtick_2">
     <g id="text_2">
      <!-- 10 -->
      <g style="fill: #262626" transform="translate(142.846633 402.518281) scale(0.11 -0.11)">
       <defs>
        <path id="DejaVuSans-31" d="M 794 531 
L 1825 531 
L 1825 4091 
L 703 3866 
L 703 4441 
L 1819 4666 
L 2450 4666 
L 2450 531 
L 3481 531 
L 3481 0 
L 794 0 
L 794 531 
z
" transform="scale(0.015625)"/>
       </defs>
       <use xlink:href="#DejaVuSans-31"/>
       <use xlink:href="#DejaVuSans-30" x="63.623047"/>
      </g>
     </g>
    </g>
    <g id="xtick_3">
     <g id="text_3">
      <!-- 20 -->
      <g style="fill: #262626" transform="translate(217.991346 402.518281) scale(0.11 -0.11)">
       <defs>
        <path id="DejaVuSans-32" d="M 1228 531 
L 3431 531 
L 3431 0 
L 469 0 
L 469 531 
Q 828 903 1448 1529 
Q 2069 2156 2228 2338 
Q 2531 2678 2651 2914 
Q 2772 3150 2772 3378 
Q 2772 3750 2511 3984 
Q 2250 4219 1831 4219 
Q 1534 4219 1204 4116 
Q 875 4013 500 3803 
L 500 4441 
Q 881 4594 1212 4672 
Q 1544 4750 1819 4750 
Q 2544 4750 2975 4387 
Q 3406 4025 3406 3419 
Q 3406 3131 3298 2873 
Q 3191 2616 2906 2266 
Q 2828 2175 2409 1742 
Q 1991 1309 1228 531 
z
" transform="scale(0.015625)"/>
       </defs>
       <use xlink:href="#DejaVuSans-32"/>
       <use xlink:href="#DejaVuSans-30" x="63.623047"/>
      </g>
     </g>
    </g>
    <g id="xtick_4">
     <g id="text_4">
      <!-- 30 -->
      <g style="fill: #262626" transform="translate(293.136058 402.518281) scale(0.11 -0.11)">
       <defs>
        <path id="DejaVuSans-33" d="M 2597 2516 
Q 3050 2419 3304 2112 
Q 3559 1806 3559 1356 
Q 3559 666 3084 287 
Q 2609 -91 1734 -91 
Q 1441 -91 1130 -33 
Q 819 25 488 141 
L 488 750 
Q 750 597 1062 519 
Q 1375 441 1716 441 
Q 2309 441 2620 675 
Q 2931 909 2931 1356 
Q 2931 1769 2642 2001 
Q 2353 2234 1838 2234 
L 1294 2234 
L 1294 2753 
L 1863 2753 
Q 2328 2753 2575 2939 
Q 2822 3125 2822 3475 
Q 2822 3834 2567 4026 
Q 2313 4219 1838 4219 
Q 1578 4219 1281 4162 
Q 984 4106 628 3988 
L 628 4550 
Q 988 4650 1302 4700 
Q 1616 4750 1894 4750 
Q 2613 4750 3031 4423 
Q 3450 4097 3450 3541 
Q 3450 3153 3228 2886 
Q 3006 2619 2597 2516 
z
" transform="scale(0.015625)"/>
       </defs>
       <use xlink:href="#DejaVuSans-33"/>
       <use xlink:href="#DejaVuSans-30" x="63.623047"/>
      </g>
     </g>
    </g>
    <g id="xtick_5">
     <g id="text_5">
      <!-- 40 -->
      <g style="fill: #262626" transform="translate(368.280771 402.518281) scale(0.11 -0.11)">
       <defs>
        <path id="DejaVuSans-34" d="M 2419 4116 
L 825 1625 
L 2419 1625 
L 2419 4116 
z
M 2253 4666 
L 3047 4666 
L 3047 1625 
L 3713 1625 
L 3713 1100 
L 3047 1100 
L 3047 0 
L 2419 0 
L 2419 1100 
L 313 1100 
L 313 1709 
L 2253 4666 
z
" transform="scale(0.015625)"/>
       </defs>
       <use xlink:href="#DejaVuSans-34"/>
       <use xlink:href="#DejaVuSans-30" x="63.623047"/>
      </g>
     </g>
    </g>
    <g id="xtick_6">
     <g id="text_6">
      <!-- 50 -->
      <g style="fill: #262626" transform="translate(443.425483 402.518281) scale(0.11 -0.11)">
       <defs>
        <path id="DejaVuSans-35" d="M 691 4666 
L 3169 4666 
L 3169 4134 
L 1269 4134 
L 1269 2991 
Q 1406 3038 1543 3061 
Q 1681 3084 1819 3084 
Q 2600 3084 3056 2656 
Q 3513 2228 3513 1497 
Q 3513 744 3044 326 
Q 2575 -91 1722 -91 
Q 1428 -91 1123 -41 
Q 819 9 494 109 
L 494 744 
Q 775 591 1075 516 
Q 1375 441 1709 441 
Q 2250 441 2565 725 
Q 2881 1009 2881 1497 
Q 2881 1984 2565 2268 
Q 2250 2553 1709 2553 
Q 1456 2553 1204 2497 
Q 953 2441 691 2322 
L 691 4666 
z
" transform="scale(0.015625)"/>
       </defs>
       <use xlink:href="#DejaVuSans-35"/>
       <use xlink:href="#DejaVuSans-30" x="63.623047"/>
      </g>
     </g>
    </g>
    <g id="text_7">
     <!-- Epoch -->
     <g style="fill: #262626" transform="translate(247.946562 417.924062) scale(0.12 -0.12)">
      <defs>
       <path id="DejaVuSans-45" d="M 628 4666 
L 3578 4666 
L 3578 4134 
L 1259 4134 
L 1259 2753 
L 3481 2753 
L 3481 2222 
L 1259 2222 
L 1259 531 
L 3634 531 
L 3634 0 
L 628 0 
L 628 4666 
z
" transform="scale(0.015625)"/>
       <path id="DejaVuSans-70" d="M 1159 525 
L 1159 -1331 
L 581 -1331 
L 581 3500 
L 1159 3500 
L 1159 2969 
Q 1341 3281 1617 3432 
Q 1894 3584 2278 3584 
Q 2916 3584 3314 3078 
Q 3713 2572 3713 1747 
Q 3713 922 3314 415 
Q 2916 -91 2278 -91 
Q 1894 -91 1617 61 
Q 1341 213 1159 525 
z
M 3116 1747 
Q 3116 2381 2855 2742 
Q 2594 3103 2138 3103 
Q 1681 3103 1420 2742 
Q 1159 2381 1159 1747 
Q 1159 1113 1420 752 
Q 1681 391 2138 391 
Q 2594 391 2855 752 
Q 3116 1113 3116 1747 
z
" transform="scale(0.015625)"/>
       <path id="DejaVuSans-6f" d="M 1959 3097 
Q 1497 3097 1228 2736 
Q 959 2375 959 1747 
Q 959 1119 1226 758 
Q 1494 397 1959 397 
Q 2419 397 2687 759 
Q 2956 1122 2956 1747 
Q 2956 2369 2687 2733 
Q 2419 3097 1959 3097 
z
M 1959 3584 
Q 2709 3584 3137 3096 
Q 3566 2609 3566 1747 
Q 3566 888 3137 398 
Q 2709 -91 1959 -91 
Q 1206 -91 779 398 
Q 353 888 353 1747 
Q 353 2609 779 3096 
Q 1206 3584 1959 3584 
z
" transform="scale(0.015625)"/>
       <path id="DejaVuSans-63" d="M 3122 3366 
L 3122 2828 
Q 2878 2963 2633 3030 
Q 2388 3097 2138 3097 
Q 1578 3097 1268 2742 
Q 959 2388 959 1747 
Q 959 1106 1268 751 
Q 1578 397 2138 397 
Q 2388 397 2633 464 
Q 2878 531 3122 666 
L 3122 134 
Q 2881 22 2623 -34 
Q 2366 -91 2075 -91 
Q 1284 -91 818 406 
Q 353 903 353 1747 
Q 353 2603 823 3093 
Q 1294 3584 2113 3584 
Q 2378 3584 2631 3529 
Q 2884 3475 3122 3366 
z
" transform="scale(0.015625)"/>
       <path id="DejaVuSans-68" d="M 3513 2113 
L 3513 0 
L 2938 0 
L 2938 2094 
Q 2938 2591 2744 2837 
Q 2550 3084 2163 3084 
Q 1697 3084 1428 2787 
Q 1159 2491 1159 1978 
L 1159 0 
L 581 0 
L 581 4863 
L 1159 4863 
L 1159 2956 
Q 1366 3272 1645 3428 
Q 1925 3584 2291 3584 
Q 2894 3584 3203 3211 
Q 3513 2838 3513 2113 
z
" transform="scale(0.015625)"/>
      </defs>
      <use xlink:href="#DejaVuSans-45"/>
      <use xlink:href="#DejaVuSans-70" x="63.183594"/>
      <use xlink:href="#DejaVuSans-6f" x="126.660156"/>
      <use xlink:href="#DejaVuSans-63" x="187.841797"/>
      <use xlink:href="#DejaVuSans-68" x="242.822266"/>
     </g>
    </g>
   </g>
   <g id="matplotlib.axis_2">
    <g id="ytick_1">
     <g id="text_8">
      <!-- 0.000 -->
      <g style="fill: #262626" transform="translate(22.81375 388.839141) scale(0.11 -0.11)">
       <defs>
        <path id="DejaVuSans-2e" d="M 684 794 
L 1344 794 
L 1344 0 
L 684 0 
L 684 794 
z
" transform="scale(0.015625)"/>
       </defs>
       <use xlink:href="#DejaVuSans-30"/>
       <use xlink:href="#DejaVuSans-2e" x="63.623047"/>
       <use xlink:href="#DejaVuSans-30" x="95.410156"/>
       <use xlink:href="#DejaVuSans-30" x="159.033203"/>
       <use xlink:href="#DejaVuSans-30" x="222.65625"/>
      </g>
     </g>
    </g>
    <g id="ytick_2">
     <g id="text_9">
      <!-- 0.025 -->
      <g style="fill: #262626" transform="translate(22.81375 350.104611) scale(0.11 -0.11)">
       <use xlink:href="#DejaVuSans-30"/>
       <use xlink:href="#DejaVuSans-2e" x="63.623047"/>
       <use xlink:href="#DejaVuSans-30" x="95.410156"/>
       <use xlink:href="#DejaVuSans-32" x="159.033203"/>
       <use xlink:href="#DejaVuSans-35" x="222.65625"/>
      </g>
     </g>
    </g>
    <g id="ytick_3">
     <g id="text_10">
      <!-- 0.050 -->
      <g style="fill: #262626" transform="translate(22.81375 311.370081) scale(0.11 -0.11)">
       <use xlink:href="#DejaVuSans-30"/>
       <use xlink:href="#DejaVuSans-2e" x="63.623047"/>
       <use xlink:href="#DejaVuSans-30" x="95.410156"/>
       <use xlink:href="#DejaVuSans-35" x="159.033203"/>
       <use xlink:href="#DejaVuSans-30" x="222.65625"/>
      </g>
     </g>
    </g>
    <g id="ytick_4">
     <g id="text_11">
      <!-- 0.075 -->
      <g style="fill: #262626" transform="translate(22.81375 272.635551) scale(0.11 -0.11)">
       <defs>
        <path id="DejaVuSans-37" d="M 525 4666 
L 3525 4666 
L 3525 4397 
L 1831 0 
L 1172 0 
L 2766 4134 
L 525 4134 
L 525 4666 
z
" transform="scale(0.015625)"/>
       </defs>
       <use xlink:href="#DejaVuSans-30"/>
       <use xlink:href="#DejaVuSans-2e" x="63.623047"/>
       <use xlink:href="#DejaVuSans-30" x="95.410156"/>
       <use xlink:href="#DejaVuSans-37" x="159.033203"/>
       <use xlink:href="#DejaVuSans-35" x="222.65625"/>
      </g>
     </g>
    </g>
    <g id="ytick_5">
     <g id="text_12">
      <!-- 0.100 -->
      <g style="fill: #262626" transform="translate(22.81375 233.901022) scale(0.11 -0.11)">
       <use xlink:href="#DejaVuSans-30"/>
       <use xlink:href="#DejaVuSans-2e" x="63.623047"/>
       <use xlink:href="#DejaVuSans-31" x="95.410156"/>
       <use xlink:href="#DejaVuSans-30" x="159.033203"/>
       <use xlink:href="#DejaVuSans-30" x="222.65625"/>
      </g>
     </g>
    </g>
    <g id="ytick_6">
     <g id="text_13">
      <!-- 0.125 -->
      <g style="fill: #262626" transform="translate(22.81375 195.166492) scale(0.11 -0.11)">
       <use xlink:href="#DejaVuSans-30"/>
       <use xlink:href="#DejaVuSans-2e" x="63.623047"/>
       <use xlink:href="#DejaVuSans-31" x="95.410156"/>
       <use xlink:href="#DejaVuSans-32" x="159.033203"/>
       <use xlink:href="#DejaVuSans-35" x="222.65625"/>
      </g>
     </g>
    </g>
    <g id="ytick_7">
     <g id="text_14">
      <!-- 0.150 -->
      <g style="fill: #262626" transform="translate(22.81375 156.431962) scale(0.11 -0.11)">
       <use xlink:href="#DejaVuSans-30"/>
       <use xlink:href="#DejaVuSans-2e" x="63.623047"/>
       <use xlink:href="#DejaVuSans-31" x="95.410156"/>
       <use xlink:href="#DejaVuSans-35" x="159.033203"/>
       <use xlink:href="#DejaVuSans-30" x="222.65625"/>
      </g>
     </g>
    </g>
    <g id="ytick_8">
     <g id="text_15">
      <!-- 0.175 -->
      <g style="fill: #262626" transform="translate(22.81375 117.697432) scale(0.11 -0.11)">
       <use xlink:href="#DejaVuSans-30"/>
       <use xlink:href="#DejaVuSans-2e" x="63.623047"/>
       <use xlink:href="#DejaVuSans-31" x="95.410156"/>
       <use xlink:href="#DejaVuSans-37" x="159.033203"/>
       <use xlink:href="#DejaVuSans-35" x="222.65625"/>
      </g>
     </g>
    </g>
    <g id="text_16">
     <!-- Loss -->
     <g style="fill: #262626" transform="translate(16.318125 250.370625) rotate(-90) scale(0.12 -0.12)">
      <defs>
       <path id="DejaVuSans-4c" d="M 628 4666 
L 1259 4666 
L 1259 531 
L 3531 531 
L 3531 0 
L 628 0 
L 628 4666 
z
" transform="scale(0.015625)"/>
       <path id="DejaVuSans-73" d="M 2834 3397 
L 2834 2853 
Q 2591 2978 2328 3040 
Q 2066 3103 1784 3103 
Q 1356 3103 1142 2972 
Q 928 2841 928 2578 
Q 928 2378 1081 2264 
Q 1234 2150 1697 2047 
L 1894 2003 
Q 2506 1872 2764 1633 
Q 3022 1394 3022 966 
Q 3022 478 2636 193 
Q 2250 -91 1575 -91 
Q 1294 -91 989 -36 
Q 684 19 347 128 
L 347 722 
Q 666 556 975 473 
Q 1284 391 1588 391 
Q 1994 391 2212 530 
Q 2431 669 2431 922 
Q 2431 1156 2273 1281 
Q 2116 1406 1581 1522 
L 1381 1569 
Q 847 1681 609 1914 
Q 372 2147 372 2553 
Q 372 3047 722 3315 
Q 1072 3584 1716 3584 
Q 2034 3584 2315 3537 
Q 2597 3491 2834 3397 
z
" transform="scale(0.015625)"/>
      </defs>
      <use xlink:href="#DejaVuSans-4c"/>
      <use xlink:href="#DejaVuSans-6f" x="53.962891"/>
      <use xlink:href="#DejaVuSans-73" x="115.144531"/>
      <use xlink:href="#DejaVuSans-73" x="167.244141"/>
     </g>
    </g>
   </g>
   <g id="line2d_1">
    <path d="M 82.215142 269.790025 
L 89.729613 279.210951 
L 97.244085 276.553088 
L 104.758556 277.804735 
L 112.273027 276.760491 
L 119.787498 278.674803 
L 127.30197 278.331172 
L 134.816441 278.158846 
L 142.330912 279.199823 
L 149.845383 279.849979 
L 157.359854 278.643696 
L 164.874326 279.005899 
L 172.388797 282.012506 
L 179.903268 278.12228 
L 187.417739 277.336819 
L 194.932211 279.015501 
L 202.446682 278.807245 
L 209.961153 278.507318 
L 217.475624 278.459567 
L 224.990096 278.767663 
L 232.504567 279.030158 
L 240.019038 277.854904 
L 247.533509 277.405557 
L 255.047981 277.925375 
L 262.562452 277.904471 
L 270.076923 278.412947 
L 277.591394 278.693961 
L 285.105866 278.680847 
L 292.620337 278.473461 
L 300.134808 278.70884 
L 307.649279 276.819066 
L 315.163751 279.472136 
L 322.678222 278.458647 
L 330.192693 278.714935 
L 337.707164 278.410754 
L 345.221636 278.425187 
L 352.736107 279.540836 
L 360.250578 279.402767 
L 367.765049 278.74554 
L 375.279521 281.748052 
L 382.793992 282.743698 
L 390.308463 278.895326 
L 397.822934 278.905078 
L 405.337405 278.16556 
L 412.851877 278.322824 
L 420.366348 279.053706 
L 427.880819 278.881036 
L 435.39529 278.93803 
L 442.909762 279.943811 
L 450.424233 279.766536 
" clip-path="url(#pd84540280e)" style="fill: none; stroke: #0072b2; stroke-width: 2; stroke-linecap: round"/>
   </g>
   <g id="line2d_2">
    <path d="M 82.215142 100.225876 
L 89.729613 156.199218 
L 97.244085 174.15519 
L 104.758556 114.341114 
L 112.273027 112.119213 
L 119.787498 145.919613 
L 127.30197 162.415803 
L 134.816441 137.936228 
L 142.330912 132.068819 
L 149.845383 140.509685 
L 157.359854 140.907899 
L 164.874326 139.059855 
L 172.388797 142.554783 
L 179.903268 128.352735 
L 187.417739 147.055291 
L 194.932211 135.889237 
L 202.446682 130.811171 
L 209.961153 145.7586 
L 217.475624 138.117211 
L 224.990096 145.46534 
L 232.504567 143.826169 
L 240.019038 148.776954 
L 247.533509 117.43642 
L 255.047981 130.365003 
L 262.562452 156.905652 
L 270.076923 146.480734 
L 277.591394 136.820429 
L 285.105866 128.758292 
L 292.620337 130.082041 
L 300.134808 145.120182 
L 307.649279 160.764925 
L 315.163751 143.442823 
L 322.678222 115.720227 
L 330.192693 129.60803 
L 337.707164 150.229647 
L 345.221636 149.817811 
L 352.736107 135.96411 
L 360.250578 138.986274 
L 367.765049 141.557953 
L 375.279521 140.499017 
L 382.793992 132.271828 
L 390.308463 133.521675 
L 397.822934 134.98986 
L 405.337405 150.172968 
L 412.851877 139.053643 
L 420.366348 137.256784 
L 427.880819 133.237466 
L 435.39529 145.909731 
L 442.909762 152.239629 
L 450.424233 143.901942 
" clip-path="url(#pd84540280e)" style="fill: none; stroke-dasharray: 9.25,4; stroke-dashoffset: 0; stroke: #0072b2; stroke-width: 2.5"/>
   </g>
   <g id="line2d_3">
    <path d="M 82.215142 200.870332 
L 89.729613 248.738792 
L 97.244085 279.664994 
L 104.758556 291.354776 
L 112.273027 290.747209 
L 119.787498 289.75044 
L 127.30197 290.662842 
L 134.816441 294.000736 
L 142.330912 295.555441 
L 149.845383 299.067989 
L 157.359854 296.051809 
L 164.874326 296.727749 
L 172.388797 298.634071 
L 179.903268 298.300853 
L 187.417739 299.159875 
L 194.932211 299.721019 
L 202.446682 301.317619 
L 209.961153 300.658091 
L 217.475624 301.170972 
L 224.990096 302.813358 
L 232.504567 302.133034 
L 240.019038 302.737661 
L 247.533509 302.707899 
L 255.047981 303.772301 
L 262.562452 303.90371 
L 270.076923 307.158391 
L 277.591394 307.601539 
L 285.105866 304.916588 
L 292.620337 305.263977 
L 300.134808 307.312035 
L 307.649279 306.823409 
L 315.163751 308.423588 
L 322.678222 308.339737 
L 330.192693 306.173485 
L 337.707164 306.228846 
L 345.221636 306.925533 
L 352.736107 307.492272 
L 360.250578 307.900752 
L 367.765049 307.501361 
L 375.279521 307.134218 
L 382.793992 308.310198 
L 390.308463 309.543402 
L 397.822934 307.67597 
L 405.337405 307.500256 
L 412.851877 307.971539 
L 420.366348 308.071688 
L 427.880819 308.166405 
L 435.39529 308.48858 
L 442.909762 308.779583 
L 450.424233 308.58537 
" clip-path="url(#pd84540280e)" style="fill: none; stroke: #d55e00; stroke-width: 2; stroke-linecap: round"/>
   </g>
   <g id="line2d_4">
    <path d="M 82.215142 263.164087 
L 89.729613 261.791761 
L 97.244085 250.160769 
L 104.758556 236.57403 
L 112.273027 229.889668 
L 119.787498 230.737651 
L 127.30197 238.974318 
L 134.816441 246.801272 
L 142.330912 254.032152 
L 149.845383 258.078008 
L 157.359854 263.228882 
L 164.874326 264.24694 
L 172.388797 265.780533 
L 179.903268 268.16885 
L 187.417739 268.542211 
L 194.932211 268.54916 
L 202.446682 269.641353 
L 209.961153 269.938098 
L 217.475624 272.376342 
L 224.990096 274.109342 
L 232.504567 274.888859 
L 240.019038 276.97652 
L 247.533509 278.692007 
L 255.047981 278.009746 
L 262.562452 278.942993 
L 270.076923 278.091072 
L 277.591394 278.322491 
L 285.105866 279.440702 
L 292.620337 281.009954 
L 300.134808 281.166061 
L 307.649279 281.930779 
L 315.163751 282.379694 
L 322.678222 281.236396 
L 330.192693 280.705093 
L 337.707164 281.662767 
L 345.221636 282.0929 
L 352.736107 281.741992 
L 360.250578 281.957814 
L 367.765049 282.727439 
L 375.279521 284.966149 
L 382.793992 284.971713 
L 390.308463 284.703781 
L 397.822934 282.642443 
L 405.337405 282.122221 
L 412.851877 283.015342 
L 420.366348 284.534538 
L 427.880819 285.637085 
L 435.39529 286.266199 
L 442.909762 284.759031 
L 450.424233 284.20262 
" clip-path="url(#pd84540280e)" style="fill: none; stroke-dasharray: 9.25,4; stroke-dashoffset: 0; stroke: #d55e00; stroke-width: 2.5"/>
   </g>
   <g id="patch_3">
    <path d="M 63.804688 384.66 
L 63.804688 89.76 
" style="fill: none; stroke: #262626; stroke-width: 1.25; stroke-linejoin: miter; stroke-linecap: square"/>
   </g>
   <g id="patch_4">
    <path d="M 468.834687 384.66 
L 468.834687 89.76 
" style="fill: none; stroke: #262626; stroke-width: 1.25; stroke-linejoin: miter; stroke-linecap: square"/>
   </g>
   <g id="patch_5">
    <path d="M 63.804688 384.66 
L 468.834687 384.66 
" style="fill: none; stroke: #262626; stroke-width: 1.25; stroke-linejoin: miter; stroke-linecap: square"/>
   </g>
   <g id="patch_6">
    <path d="M 63.804688 89.76 
L 468.834687 89.76 
" style="fill: none; stroke: #262626; stroke-width: 1.25; stroke-linejoin: miter; stroke-linecap: square"/>
   </g>
   <g id="text_17">
    <!-- (a) Proposed Model Comparison -->
    <g style="fill: #262626" transform="translate(138.797187 77.76) scale(0.16 -0.16)">
     <defs>
      <path id="DejaVuSans-28" d="M 1984 4856 
Q 1566 4138 1362 3434 
Q 1159 2731 1159 2009 
Q 1159 1288 1364 580 
Q 1569 -128 1984 -844 
L 1484 -844 
Q 1016 -109 783 600 
Q 550 1309 550 2009 
Q 550 2706 781 3412 
Q 1013 4119 1484 4856 
L 1984 4856 
z
" transform="scale(0.015625)"/>
      <path id="DejaVuSans-61" d="M 2194 1759 
Q 1497 1759 1228 1600 
Q 959 1441 959 1056 
Q 959 750 1161 570 
Q 1363 391 1709 391 
Q 2188 391 2477 730 
Q 2766 1069 2766 1631 
L 2766 1759 
L 2194 1759 
z
M 3341 1997 
L 3341 0 
L 2766 0 
L 2766 531 
Q 2569 213 2275 61 
Q 1981 -91 1556 -91 
Q 1019 -91 701 211 
Q 384 513 384 1019 
Q 384 1609 779 1909 
Q 1175 2209 1959 2209 
L 2766 2209 
L 2766 2266 
Q 2766 2663 2505 2880 
Q 2244 3097 1772 3097 
Q 1472 3097 1187 3025 
Q 903 2953 641 2809 
L 641 3341 
Q 956 3463 1253 3523 
Q 1550 3584 1831 3584 
Q 2591 3584 2966 3190 
Q 3341 2797 3341 1997 
z
" transform="scale(0.015625)"/>
      <path id="DejaVuSans-29" d="M 513 4856 
L 1013 4856 
Q 1481 4119 1714 3412 
Q 1947 2706 1947 2009 
Q 1947 1309 1714 600 
Q 1481 -109 1013 -844 
L 513 -844 
Q 928 -128 1133 580 
Q 1338 1288 1338 2009 
Q 1338 2731 1133 3434 
Q 928 4138 513 4856 
z
" transform="scale(0.015625)"/>
      <path id="DejaVuSans-20" transform="scale(0.015625)"/>
      <path id="DejaVuSans-50" d="M 1259 4147 
L 1259 2394 
L 2053 2394 
Q 2494 2394 2734 2622 
Q 2975 2850 2975 3272 
Q 2975 3691 2734 3919 
Q 2494 4147 2053 4147 
L 1259 4147 
z
M 628 4666 
L 2053 4666 
Q 2838 4666 3239 4311 
Q 3641 3956 3641 3272 
Q 3641 2581 3239 2228 
Q 2838 1875 2053 1875 
L 1259 1875 
L 1259 0 
L 628 0 
L 628 4666 
z
" transform="scale(0.015625)"/>
      <path id="DejaVuSans-72" d="M 2631 2963 
Q 2534 3019 2420 3045 
Q 2306 3072 2169 3072 
Q 1681 3072 1420 2755 
Q 1159 2438 1159 1844 
L 1159 0 
L 581 0 
L 581 3500 
L 1159 3500 
L 1159 2956 
Q 1341 3275 1631 3429 
Q 1922 3584 2338 3584 
Q 2397 3584 2469 3576 
Q 2541 3569 2628 3553 
L 2631 2963 
z
" transform="scale(0.015625)"/>
      <path id="DejaVuSans-65" d="M 3597 1894 
L 3597 1613 
L 953 1613 
Q 991 1019 1311 708 
Q 1631 397 2203 397 
Q 2534 397 2845 478 
Q 3156 559 3463 722 
L 3463 178 
Q 3153 47 2828 -22 
Q 2503 -91 2169 -91 
Q 1331 -91 842 396 
Q 353 884 353 1716 
Q 353 2575 817 3079 
Q 1281 3584 2069 3584 
Q 2775 3584 3186 3129 
Q 3597 2675 3597 1894 
z
M 3022 2063 
Q 3016 2534 2758 2815 
Q 2500 3097 2075 3097 
Q 1594 3097 1305 2825 
Q 1016 2553 972 2059 
L 3022 2063 
z
" transform="scale(0.015625)"/>
      <path id="DejaVuSans-64" d="M 2906 2969 
L 2906 4863 
L 3481 4863 
L 3481 0 
L 2906 0 
L 2906 525 
Q 2725 213 2448 61 
Q 2172 -91 1784 -91 
Q 1150 -91 751 415 
Q 353 922 353 1747 
Q 353 2572 751 3078 
Q 1150 3584 1784 3584 
Q 2172 3584 2448 3432 
Q 2725 3281 2906 2969 
z
M 947 1747 
Q 947 1113 1208 752 
Q 1469 391 1925 391 
Q 2381 391 2643 752 
Q 2906 1113 2906 1747 
Q 2906 2381 2643 2742 
Q 2381 3103 1925 3103 
Q 1469 3103 1208 2742 
Q 947 2381 947 1747 
z
" transform="scale(0.015625)"/>
      <path id="DejaVuSans-4d" d="M 628 4666 
L 1569 4666 
L 2759 1491 
L 3956 4666 
L 4897 4666 
L 4897 0 
L 4281 0 
L 4281 4097 
L 3078 897 
L 2444 897 
L 1241 4097 
L 1241 0 
L 628 0 
L 628 4666 
z
" transform="scale(0.015625)"/>
      <path id="DejaVuSans-6c" d="M 603 4863 
L 1178 4863 
L 1178 0 
L 603 0 
L 603 4863 
z
" transform="scale(0.015625)"/>
      <path id="DejaVuSans-43" d="M 4122 4306 
L 4122 3641 
Q 3803 3938 3442 4084 
Q 3081 4231 2675 4231 
Q 1875 4231 1450 3742 
Q 1025 3253 1025 2328 
Q 1025 1406 1450 917 
Q 1875 428 2675 428 
Q 3081 428 3442 575 
Q 3803 722 4122 1019 
L 4122 359 
Q 3791 134 3420 21 
Q 3050 -91 2638 -91 
Q 1578 -91 968 557 
Q 359 1206 359 2328 
Q 359 3453 968 4101 
Q 1578 4750 2638 4750 
Q 3056 4750 3426 4639 
Q 3797 4528 4122 4306 
z
" transform="scale(0.015625)"/>
      <path id="DejaVuSans-6d" d="M 3328 2828 
Q 3544 3216 3844 3400 
Q 4144 3584 4550 3584 
Q 5097 3584 5394 3201 
Q 5691 2819 5691 2113 
L 5691 0 
L 5113 0 
L 5113 2094 
Q 5113 2597 4934 2840 
Q 4756 3084 4391 3084 
Q 3944 3084 3684 2787 
Q 3425 2491 3425 1978 
L 3425 0 
L 2847 0 
L 2847 2094 
Q 2847 2600 2669 2842 
Q 2491 3084 2119 3084 
Q 1678 3084 1418 2786 
Q 1159 2488 1159 1978 
L 1159 0 
L 581 0 
L 581 3500 
L 1159 3500 
L 1159 2956 
Q 1356 3278 1631 3431 
Q 1906 3584 2284 3584 
Q 2666 3584 2933 3390 
Q 3200 3197 3328 2828 
z
" transform="scale(0.015625)"/>
      <path id="DejaVuSans-69" d="M 603 3500 
L 1178 3500 
L 1178 0 
L 603 0 
L 603 3500 
z
M 603 4863 
L 1178 4863 
L 1178 4134 
L 603 4134 
L 603 4863 
z
" transform="scale(0.015625)"/>
      <path id="DejaVuSans-6e" d="M 3513 2113 
L 3513 0 
L 2938 0 
L 2938 2094 
Q 2938 2591 2744 2837 
Q 2550 3084 2163 3084 
Q 1697 3084 1428 2787 
Q 1159 2491 1159 1978 
L 1159 0 
L 581 0 
L 581 3500 
L 1159 3500 
L 1159 2956 
Q 1366 3272 1645 3428 
Q 1925 3584 2291 3584 
Q 2894 3584 3203 3211 
Q 3513 2838 3513 2113 
z
" transform="scale(0.015625)"/>
     </defs>
     <use xlink:href="#DejaVuSans-28"/>
     <use xlink:href="#DejaVuSans-61" x="39.013672"/>
     <use xlink:href="#DejaVuSans-29" x="100.292969"/>
     <use xlink:href="#DejaVuSans-20" x="139.306641"/>
     <use xlink:href="#DejaVuSans-50" x="171.09375"/>
     <use xlink:href="#DejaVuSans-72" x="229.646484"/>
     <use xlink:href="#DejaVuSans-6f" x="268.509766"/>
     <use xlink:href="#DejaVuSans-70" x="329.691406"/>
     <use xlink:href="#DejaVuSans-6f" x="393.167969"/>
     <use xlink:href="#DejaVuSans-73" x="454.349609"/>
     <use xlink:href="#DejaVuSans-65" x="506.449219"/>
     <use xlink:href="#DejaVuSans-64" x="567.972656"/>
     <use xlink:href="#DejaVuSans-20" x="631.449219"/>
     <use xlink:href="#DejaVuSans-4d" x="663.236328"/>
     <use xlink:href="#DejaVuSans-6f" x="749.515625"/>
     <use xlink:href="#DejaVuSans-64" x="810.697266"/>
     <use xlink:href="#DejaVuSans-65" x="874.173828"/>
     <use xlink:href="#DejaVuSans-6c" x="935.697266"/>
     <use xlink:href="#DejaVuSans-20" x="963.480469"/>
     <use xlink:href="#DejaVuSans-43" x="995.267578"/>
     <use xlink:href="#DejaVuSans-6f" x="1065.091797"/>
     <use xlink:href="#DejaVuSans-6d" x="1126.273438"/>
     <use xlink:href="#DejaVuSans-70" x="1223.685547"/>
     <use xlink:href="#DejaVuSans-61" x="1287.162109"/>
     <use xlink:href="#DejaVuSans-72" x="1348.441406"/>
     <use xlink:href="#DejaVuSans-69" x="1389.554688"/>
     <use xlink:href="#DejaVuSans-73" x="1417.337891"/>
     <use xlink:href="#DejaVuSans-6f" x="1469.4375"/>
     <use xlink:href="#DejaVuSans-6e" x="1530.619141"/>
    </g>
   </g>
   <g id="legend_1">
    <g id="patch_7">
     <path d="M 71.504688 379.16 
L 195.734219 379.16 
Q 197.934219 379.16 197.934219 376.96 
L 197.934219 313.47625 
Q 197.934219 311.27625 195.734219 311.27625 
L 71.504688 311.27625 
Q 69.304688 311.27625 69.304688 313.47625 
L 69.304688 376.96 
Q 69.304688 379.16 71.504688 379.16 
z
" style="fill: #ffffff; opacity: 0.8; stroke: #cccccc; stroke-linejoin: miter"/>
    </g>
    <g id="line2d_5">
     <path d="M 73.704688 320.184531 
L 84.704688 320.184531 
L 95.704688 320.184531 
" style="fill: none; stroke: #0072b2; stroke-width: 2; stroke-linecap: round"/>
    </g>
    <g id="text_18">
     <!-- HQTCN-C (Train) -->
     <g style="fill: #262626" transform="translate(104.504688 324.034531) scale(0.11 -0.11)">
      <defs>
       <path id="DejaVuSans-48" d="M 628 4666 
L 1259 4666 
L 1259 2753 
L 3553 2753 
L 3553 4666 
L 4184 4666 
L 4184 0 
L 3553 0 
L 3553 2222 
L 1259 2222 
L 1259 0 
L 628 0 
L 628 4666 
z
" transform="scale(0.015625)"/>
       <path id="DejaVuSans-51" d="M 2522 4238 
Q 1834 4238 1429 3725 
Q 1025 3213 1025 2328 
Q 1025 1447 1429 934 
Q 1834 422 2522 422 
Q 3209 422 3611 934 
Q 4013 1447 4013 2328 
Q 4013 3213 3611 3725 
Q 3209 4238 2522 4238 
z
M 3406 84 
L 4238 -825 
L 3475 -825 
L 2784 -78 
Q 2681 -84 2626 -87 
Q 2572 -91 2522 -91 
Q 1538 -91 948 567 
Q 359 1225 359 2328 
Q 359 3434 948 4092 
Q 1538 4750 2522 4750 
Q 3503 4750 4090 4092 
Q 4678 3434 4678 2328 
Q 4678 1516 4351 937 
Q 4025 359 3406 84 
z
" transform="scale(0.015625)"/>
       <path id="DejaVuSans-54" d="M -19 4666 
L 3928 4666 
L 3928 4134 
L 2272 4134 
L 2272 0 
L 1638 0 
L 1638 4134 
L -19 4134 
L -19 4666 
z
" transform="scale(0.015625)"/>
       <path id="DejaVuSans-4e" d="M 628 4666 
L 1478 4666 
L 3547 763 
L 3547 4666 
L 4159 4666 
L 4159 0 
L 3309 0 
L 1241 3903 
L 1241 0 
L 628 0 
L 628 4666 
z
" transform="scale(0.015625)"/>
       <path id="DejaVuSans-2d" d="M 313 2009 
L 1997 2009 
L 1997 1497 
L 313 1497 
L 313 2009 
z
" transform="scale(0.015625)"/>
      </defs>
      <use xlink:href="#DejaVuSans-48"/>
      <use xlink:href="#DejaVuSans-51" x="75.195312"/>
      <use xlink:href="#DejaVuSans-54" x="153.90625"/>
      <use xlink:href="#DejaVuSans-43" x="209.115234"/>
      <use xlink:href="#DejaVuSans-4e" x="278.939453"/>
      <use xlink:href="#DejaVuSans-2d" x="353.744141"/>
      <use xlink:href="#DejaVuSans-43" x="389.828125"/>
      <use xlink:href="#DejaVuSans-20" x="459.652344"/>
      <use xlink:href="#DejaVuSans-28" x="491.439453"/>
      <use xlink:href="#DejaVuSans-54" x="530.453125"/>
      <use xlink:href="#DejaVuSans-72" x="576.787109"/>
      <use xlink:href="#DejaVuSans-61" x="617.900391"/>
      <use xlink:href="#DejaVuSans-69" x="679.179688"/>
      <use xlink:href="#DejaVuSans-6e" x="706.962891"/>
      <use xlink:href="#DejaVuSans-29" x="770.341797"/>
     </g>
    </g>
    <g id="line2d_6">
     <path d="M 73.704688 336.330469 
L 84.704688 336.330469 
L 95.704688 336.330469 
" style="fill: none; stroke-dasharray: 9.25,4; stroke-dashoffset: 0; stroke: #0072b2; stroke-width: 2.5"/>
    </g>
    <g id="text_19">
     <!-- HQTCN-C (Val) -->
     <g style="fill: #262626" transform="translate(104.504688 340.180469) scale(0.11 -0.11)">
      <defs>
       <path id="DejaVuSans-56" d="M 1831 0 
L 50 4666 
L 709 4666 
L 2188 738 
L 3669 4666 
L 4325 4666 
L 2547 0 
L 1831 0 
z
" transform="scale(0.015625)"/>
      </defs>
      <use xlink:href="#DejaVuSans-48"/>
      <use xlink:href="#DejaVuSans-51" x="75.195312"/>
      <use xlink:href="#DejaVuSans-54" x="153.90625"/>
      <use xlink:href="#DejaVuSans-43" x="209.115234"/>
      <use xlink:href="#DejaVuSans-4e" x="278.939453"/>
      <use xlink:href="#DejaVuSans-2d" x="353.744141"/>
      <use xlink:href="#DejaVuSans-43" x="389.828125"/>
      <use xlink:href="#DejaVuSans-20" x="459.652344"/>
      <use xlink:href="#DejaVuSans-28" x="491.439453"/>
      <use xlink:href="#DejaVuSans-56" x="530.453125"/>
      <use xlink:href="#DejaVuSans-61" x="591.111328"/>
      <use xlink:href="#DejaVuSans-6c" x="652.390625"/>
      <use xlink:href="#DejaVuSans-29" x="680.173828"/>
     </g>
    </g>
    <g id="line2d_7">
     <path d="M 73.704688 352.476406 
L 84.704688 352.476406 
L 95.704688 352.476406 
" style="fill: none; stroke: #d55e00; stroke-width: 2; stroke-linecap: round"/>
    </g>
    <g id="text_20">
     <!-- HQTCN-R (Train) -->
     <g style="fill: #262626" transform="translate(104.504688 356.326406) scale(0.11 -0.11)">
      <defs>
       <path id="DejaVuSans-52" d="M 2841 2188 
Q 3044 2119 3236 1894 
Q 3428 1669 3622 1275 
L 4263 0 
L 3584 0 
L 2988 1197 
Q 2756 1666 2539 1819 
Q 2322 1972 1947 1972 
L 1259 1972 
L 1259 0 
L 628 0 
L 628 4666 
L 2053 4666 
Q 2853 4666 3247 4331 
Q 3641 3997 3641 3322 
Q 3641 2881 3436 2590 
Q 3231 2300 2841 2188 
z
M 1259 4147 
L 1259 2491 
L 2053 2491 
Q 2509 2491 2742 2702 
Q 2975 2913 2975 3322 
Q 2975 3731 2742 3939 
Q 2509 4147 2053 4147 
L 1259 4147 
z
" transform="scale(0.015625)"/>
      </defs>
      <use xlink:href="#DejaVuSans-48"/>
      <use xlink:href="#DejaVuSans-51" x="75.195312"/>
      <use xlink:href="#DejaVuSans-54" x="153.90625"/>
      <use xlink:href="#DejaVuSans-43" x="209.115234"/>
      <use xlink:href="#DejaVuSans-4e" x="278.939453"/>
      <use xlink:href="#DejaVuSans-2d" x="353.744141"/>
      <use xlink:href="#DejaVuSans-52" x="389.828125"/>
      <use xlink:href="#DejaVuSans-20" x="459.310547"/>
      <use xlink:href="#DejaVuSans-28" x="491.097656"/>
      <use xlink:href="#DejaVuSans-54" x="530.111328"/>
      <use xlink:href="#DejaVuSans-72" x="576.445312"/>
      <use xlink:href="#DejaVuSans-61" x="617.558594"/>
      <use xlink:href="#DejaVuSans-69" x="678.837891"/>
      <use xlink:href="#DejaVuSans-6e" x="706.621094"/>
      <use xlink:href="#DejaVuSans-29" x="770"/>
     </g>
    </g>
    <g id="line2d_8">
     <path d="M 73.704688 368.622344 
L 84.704688 368.622344 
L 95.704688 368.622344 
" style="fill: none; stroke-dasharray: 9.25,4; stroke-dashoffset: 0; stroke: #d55e00; stroke-width: 2.5"/>
    </g>
    <g id="text_21">
     <!-- HQTCN-R (Val) -->
     <g style="fill: #262626" transform="translate(104.504688 372.472344) scale(0.11 -0.11)">
      <use xlink:href="#DejaVuSans-48"/>
      <use xlink:href="#DejaVuSans-51" x="75.195312"/>
      <use xlink:href="#DejaVuSans-54" x="153.90625"/>
      <use xlink:href="#DejaVuSans-43" x="209.115234"/>
      <use xlink:href="#DejaVuSans-4e" x="278.939453"/>
      <use xlink:href="#DejaVuSans-2d" x="353.744141"/>
      <use xlink:href="#DejaVuSans-52" x="389.828125"/>
      <use xlink:href="#DejaVuSans-20" x="459.310547"/>
      <use xlink:href="#DejaVuSans-28" x="491.097656"/>
      <use xlink:href="#DejaVuSans-56" x="530.111328"/>
      <use xlink:href="#DejaVuSans-61" x="590.769531"/>
      <use xlink:href="#DejaVuSans-6c" x="652.048828"/>
      <use xlink:href="#DejaVuSans-29" x="679.832031"/>
     </g>
    </g>
   </g>
  </g>
  <g id="axes_2">
   <g id="patch_8">
    <path d="M 539.484687 384.66 
L 944.514687 384.66 
L 944.514687 89.76 
L 539.484687 89.76 
z
" style="fill: #ffffff"/>
   </g>
   <g id="matplotlib.axis_3">
    <g id="xtick_7">
     <g id="text_22">
      <!-- 0 -->
      <g style="fill: #262626" transform="translate(546.881296 402.518281) scale(0.11 -0.11)">
       <use xlink:href="#DejaVuSans-30"/>
      </g>
     </g>
    </g>
    <g id="xtick_8">
     <g id="text_23">
      <!-- 10 -->
      <g style="fill: #262626" transform="translate(618.526633 402.518281) scale(0.11 -0.11)">
       <use xlink:href="#DejaVuSans-31"/>
       <use xlink:href="#DejaVuSans-30" x="63.623047"/>
      </g>
     </g>
    </g>
    <g id="xtick_9">
     <g id="text_24">
      <!-- 20 -->
      <g style="fill: #262626" transform="translate(693.671346 402.518281) scale(0.11 -0.11)">
       <use xlink:href="#DejaVuSans-32"/>
       <use xlink:href="#DejaVuSans-30" x="63.623047"/>
      </g>
     </g>
    </g>
    <g id="xtick_10">
     <g id="text_25">
      <!-- 30 -->
      <g style="fill: #262626" transform="translate(768.816058 402.518281) scale(0.11 -0.11)">
       <use xlink:href="#DejaVuSans-33"/>
       <use xlink:href="#DejaVuSans-30" x="63.623047"/>
      </g>
     </g>
    </g>
    <g id="xtick_11">
     <g id="text_26">
      <!-- 40 -->
      <g style="fill: #262626" transform="translate(843.960771 402.518281) scale(0.11 -0.11)">
       <use xlink:href="#DejaVuSans-34"/>
       <use xlink:href="#DejaVuSans-30" x="63.623047"/>
      </g>
     </g>
    </g>
    <g id="xtick_12">
     <g id="text_27">
      <!-- 50 -->
      <g style="fill: #262626" transform="translate(919.105483 402.518281) scale(0.11 -0.11)">
       <use xlink:href="#DejaVuSans-35"/>
       <use xlink:href="#DejaVuSans-30" x="63.623047"/>
      </g>
     </g>
    </g>
    <g id="text_28">
     <!-- Epoch -->
     <g style="fill: #262626" transform="translate(723.626562 417.924062) scale(0.12 -0.12)">
      <use xlink:href="#DejaVuSans-45"/>
      <use xlink:href="#DejaVuSans-70" x="63.183594"/>
      <use xlink:href="#DejaVuSans-6f" x="126.660156"/>
      <use xlink:href="#DejaVuSans-63" x="187.841797"/>
      <use xlink:href="#DejaVuSans-68" x="242.822266"/>
     </g>
    </g>
   </g>
   <g id="matplotlib.axis_4">
    <g id="ytick_9">
     <g id="text_29">
      <!-- 0.000 -->
      <g style="fill: #262626" transform="translate(498.49375 388.839141) scale(0.11 -0.11)">
       <use xlink:href="#DejaVuSans-30"/>
       <use xlink:href="#DejaVuSans-2e" x="63.623047"/>
       <use xlink:href="#DejaVuSans-30" x="95.410156"/>
       <use xlink:href="#DejaVuSans-30" x="159.033203"/>
       <use xlink:href="#DejaVuSans-30" x="222.65625"/>
      </g>
     </g>
    </g>
    <g id="ytick_10">
     <g id="text_30">
      <!-- 0.025 -->
      <g style="fill: #262626" transform="translate(498.49375 350.225677) scale(0.11 -0.11)">
       <use xlink:href="#DejaVuSans-30"/>
       <use xlink:href="#DejaVuSans-2e" x="63.623047"/>
       <use xlink:href="#DejaVuSans-30" x="95.410156"/>
       <use xlink:href="#DejaVuSans-32" x="159.033203"/>
       <use xlink:href="#DejaVuSans-35" x="222.65625"/>
      </g>
     </g>
    </g>
    <g id="ytick_11">
     <g id="text_31">
      <!-- 0.050 -->
      <g style="fill: #262626" transform="translate(498.49375 311.612214) scale(0.11 -0.11)">
       <use xlink:href="#DejaVuSans-30"/>
       <use xlink:href="#DejaVuSans-2e" x="63.623047"/>
       <use xlink:href="#DejaVuSans-30" x="95.410156"/>
       <use xlink:href="#DejaVuSans-35" x="159.033203"/>
       <use xlink:href="#DejaVuSans-30" x="222.65625"/>
      </g>
     </g>
    </g>
    <g id="ytick_12">
     <g id="text_32">
      <!-- 0.075 -->
      <g style="fill: #262626" transform="translate(498.49375 272.99875) scale(0.11 -0.11)">
       <use xlink:href="#DejaVuSans-30"/>
       <use xlink:href="#DejaVuSans-2e" x="63.623047"/>
       <use xlink:href="#DejaVuSans-30" x="95.410156"/>
       <use xlink:href="#DejaVuSans-37" x="159.033203"/>
       <use xlink:href="#DejaVuSans-35" x="222.65625"/>
      </g>
     </g>
    </g>
    <g id="ytick_13">
     <g id="text_33">
      <!-- 0.100 -->
      <g style="fill: #262626" transform="translate(498.49375 234.385287) scale(0.11 -0.11)">
       <use xlink:href="#DejaVuSans-30"/>
       <use xlink:href="#DejaVuSans-2e" x="63.623047"/>
       <use xlink:href="#DejaVuSans-31" x="95.410156"/>
       <use xlink:href="#DejaVuSans-30" x="159.033203"/>
       <use xlink:href="#DejaVuSans-30" x="222.65625"/>
      </g>
     </g>
    </g>
    <g id="ytick_14">
     <g id="text_34">
      <!-- 0.125 -->
      <g style="fill: #262626" transform="translate(498.49375 195.771824) scale(0.11 -0.11)">
       <use xlink:href="#DejaVuSans-30"/>
       <use xlink:href="#DejaVuSans-2e" x="63.623047"/>
       <use xlink:href="#DejaVuSans-31" x="95.410156"/>
       <use xlink:href="#DejaVuSans-32" x="159.033203"/>
       <use xlink:href="#DejaVuSans-35" x="222.65625"/>
      </g>
     </g>
    </g>
    <g id="ytick_15">
     <g id="text_35">
      <!-- 0.150 -->
      <g style="fill: #262626" transform="translate(498.49375 157.15836) scale(0.11 -0.11)">
       <use xlink:href="#DejaVuSans-30"/>
       <use xlink:href="#DejaVuSans-2e" x="63.623047"/>
       <use xlink:href="#DejaVuSans-31" x="95.410156"/>
       <use xlink:href="#DejaVuSans-35" x="159.033203"/>
       <use xlink:href="#DejaVuSans-30" x="222.65625"/>
      </g>
     </g>
    </g>
    <g id="ytick_16">
     <g id="text_36">
      <!-- 0.175 -->
      <g style="fill: #262626" transform="translate(498.49375 118.544897) scale(0.11 -0.11)">
       <use xlink:href="#DejaVuSans-30"/>
       <use xlink:href="#DejaVuSans-2e" x="63.623047"/>
       <use xlink:href="#DejaVuSans-31" x="95.410156"/>
       <use xlink:href="#DejaVuSans-37" x="159.033203"/>
       <use xlink:href="#DejaVuSans-35" x="222.65625"/>
      </g>
     </g>
    </g>
    <g id="text_37">
     <!-- Loss -->
     <g style="fill: #262626" transform="translate(491.998125 250.370625) rotate(-90) scale(0.12 -0.12)">
      <use xlink:href="#DejaVuSans-4c"/>
      <use xlink:href="#DejaVuSans-6f" x="53.962891"/>
      <use xlink:href="#DejaVuSans-73" x="115.144531"/>
      <use xlink:href="#DejaVuSans-73" x="167.244141"/>
     </g>
    </g>
   </g>
   <g id="line2d_9">
    <path d="M 557.895142 270.149056 
L 565.409613 279.540536 
L 572.924085 276.890981 
L 580.438556 278.138716 
L 587.953027 277.097736 
L 595.467498 279.006064 
L 602.98197 278.663507 
L 610.496441 278.49172 
L 618.010912 279.529443 
L 625.525383 280.177567 
L 633.039854 278.975054 
L 640.554326 279.336126 
L 648.068797 282.333335 
L 655.583268 278.455268 
L 663.097739 277.672262 
L 670.612211 279.345697 
L 678.126682 279.138093 
L 685.641153 278.839102 
L 693.155624 278.791501 
L 700.670096 279.098634 
L 708.184567 279.360308 
L 715.699038 278.188728 
L 723.213509 277.740786 
L 730.727981 278.258978 
L 738.242452 278.238139 
L 745.756923 278.745026 
L 753.271394 279.025162 
L 760.785866 279.012089 
L 768.300337 278.805351 
L 775.814808 279.039994 
L 783.329279 277.156127 
L 790.843751 279.800905 
L 798.358222 278.790584 
L 805.872693 279.046071 
L 813.387164 278.742841 
L 820.901636 278.757228 
L 828.416107 279.86939 
L 835.930578 279.731753 
L 843.445049 279.07658 
L 850.959521 282.069707 
L 858.473992 283.062241 
L 865.988463 279.225898 
L 873.502934 279.235619 
L 881.017405 278.498413 
L 888.531877 278.655185 
L 896.046348 279.383782 
L 903.560819 279.211653 
L 911.07529 279.268469 
L 918.589762 280.271106 
L 926.104233 280.094384 
" clip-path="url(#p378cb22f69)" style="fill: none; stroke: #0072b2; stroke-width: 2; stroke-linecap: round"/>
   </g>
   <g id="line2d_10">
    <path d="M 557.895142 201.444774 
L 565.409613 249.163619 
L 572.924085 279.99316 
L 580.438556 291.646405 
L 587.953027 291.040737 
L 595.467498 290.047083 
L 602.98197 290.956634 
L 610.496441 294.284095 
L 618.010912 295.833941 
L 625.525383 299.33551 
L 633.039854 296.328757 
L 640.554326 297.002585 
L 648.068797 298.902948 
L 655.583268 298.570772 
L 663.097739 299.427109 
L 670.612211 299.986499 
L 678.126682 301.578109 
L 685.641153 300.920642 
L 693.155624 301.43192 
L 700.670096 303.069173 
L 708.184567 302.390975 
L 715.699038 302.993713 
L 723.213509 302.964044 
L 730.727981 304.025118 
L 738.242452 304.156117 
L 745.756923 307.400626 
L 753.271394 307.842388 
L 760.785866 305.16583 
L 768.300337 305.512132 
L 775.814808 307.55379 
L 783.329279 307.06669 
L 790.843751 308.661868 
L 798.358222 308.578279 
L 805.872693 306.418798 
L 813.387164 306.473986 
L 820.901636 307.168495 
L 828.416107 307.733463 
L 835.930578 308.140667 
L 843.445049 307.742523 
L 850.959521 307.376528 
L 858.473992 308.548832 
L 865.988463 309.778182 
L 873.502934 307.916586 
L 881.017405 307.741422 
L 888.531877 308.211232 
L 896.046348 308.311068 
L 903.560819 308.405488 
L 911.07529 308.726657 
L 918.589762 309.01675 
L 926.104233 308.823144 
" clip-path="url(#p378cb22f69)" style="fill: none; stroke: #d55e00; stroke-width: 2; stroke-linecap: round"/>
   </g>
   <g id="line2d_11">
    <path d="M 557.895142 100.53181 
L 565.409613 269.957643 
L 572.924085 256.19671 
L 580.438556 267.341483 
L 587.953027 285.510683 
L 595.467498 279.853696 
L 602.98197 282.361152 
L 610.496441 282.812785 
L 618.010912 286.491162 
L 625.525383 287.070569 
L 633.039854 296.0988 
L 640.554326 292.198259 
L 648.068797 293.512427 
L 655.583268 293.154406 
L 663.097739 293.434635 
L 670.612211 302.415146 
L 678.126682 296.802839 
L 685.641153 299.760535 
L 693.155624 302.161037 
L 700.670096 298.499082 
L 708.184567 299.75648 
L 715.699038 301.408837 
L 723.213509 298.199467 
L 730.727981 295.714761 
L 738.242452 300.630708 
L 745.756923 302.239667 
L 753.271394 305.011929 
L 760.785866 304.809625 
L 768.300337 307.050466 
L 775.814808 304.041441 
L 783.329279 303.509354 
L 790.843751 304.966935 
L 798.358222 300.058498 
L 805.872693 304.288705 
L 813.387164 305.021548 
L 820.901636 303.910526 
L 828.416107 309.088178 
L 835.930578 307.82481 
L 843.445049 309.325033 
L 850.959521 305.781421 
L 858.473992 308.008215 
L 865.988463 311.032243 
L 873.502934 311.105552 
L 881.017405 307.012498 
L 888.531877 306.434325 
L 896.046348 304.65788 
L 903.560819 301.563067 
L 911.07529 315.955278 
L 918.589762 315.968003 
L 926.104233 304.581381 
" clip-path="url(#p378cb22f69)" style="fill: none; stroke-dasharray: 7.4,3.2; stroke-dashoffset: 0; stroke: #009e73; stroke-width: 2"/>
   </g>
   <g id="line2d_12">
    <path d="M 557.895142 224.217972 
L 565.409613 273.96998 
L 572.924085 280.224447 
L 580.438556 284.37558 
L 587.953027 287.65864 
L 595.467498 290.404184 
L 602.98197 292.737773 
L 610.496441 294.736398 
L 618.010912 296.449276 
L 625.525383 297.905833 
L 633.039854 299.128043 
L 640.554326 300.1396 
L 648.068797 300.96748 
L 655.583268 301.64146 
L 663.097739 302.187149 
L 670.612211 302.639272 
L 678.126682 303.010082 
L 685.641153 303.317697 
L 693.155624 303.576344 
L 700.670096 303.795898 
L 708.184567 303.984618 
L 715.699038 304.148422 
L 723.213509 304.292223 
L 730.727981 304.419441 
L 738.242452 304.533111 
L 745.756923 304.63518 
L 753.271394 304.727712 
L 760.785866 304.81176 
L 768.300337 304.888908 
L 775.814808 304.959589 
" clip-path="url(#p378cb22f69)" style="fill: none; stroke-dasharray: 7.4,3.2; stroke-dashoffset: 0; stroke: #cc79a7; stroke-width: 2"/>
   </g>
   <g id="patch_9">
    <path d="M 539.484687 384.66 
L 539.484687 89.76 
" style="fill: none; stroke: #262626; stroke-width: 1.25; stroke-linejoin: miter; stroke-linecap: square"/>
   </g>
   <g id="patch_10">
    <path d="M 944.514687 384.66 
L 944.514687 89.76 
" style="fill: none; stroke: #262626; stroke-width: 1.25; stroke-linejoin: miter; stroke-linecap: square"/>
   </g>
   <g id="patch_11">
    <path d="M 539.484687 384.66 
L 944.514687 384.66 
" style="fill: none; stroke: #262626; stroke-width: 1.25; stroke-linejoin: miter; stroke-linecap: square"/>
   </g>
   <g id="patch_12">
    <path d="M 539.484687 89.76 
L 944.514687 89.76 
" style="fill: none; stroke: #262626; stroke-width: 1.25; stroke-linejoin: miter; stroke-linecap: square"/>
   </g>
   <g id="text_38">
    <!-- (b) Training Loss Comparison -->
    <g style="fill: #262626" transform="translate(626.043437 77.76) scale(0.16 -0.16)">
     <defs>
      <path id="DejaVuSans-62" d="M 3116 1747 
Q 3116 2381 2855 2742 
Q 2594 3103 2138 3103 
Q 1681 3103 1420 2742 
Q 1159 2381 1159 1747 
Q 1159 1113 1420 752 
Q 1681 391 2138 391 
Q 2594 391 2855 752 
Q 3116 1113 3116 1747 
z
M 1159 2969 
Q 1341 3281 1617 3432 
Q 1894 3584 2278 3584 
Q 2916 3584 3314 3078 
Q 3713 2572 3713 1747 
Q 3713 922 3314 415 
Q 2916 -91 2278 -91 
Q 1894 -91 1617 61 
Q 1341 213 1159 525 
L 1159 0 
L 581 0 
L 581 4863 
L 1159 4863 
L 1159 2969 
z
" transform="scale(0.015625)"/>
      <path id="DejaVuSans-67" d="M 2906 1791 
Q 2906 2416 2648 2759 
Q 2391 3103 1925 3103 
Q 1463 3103 1205 2759 
Q 947 2416 947 1791 
Q 947 1169 1205 825 
Q 1463 481 1925 481 
Q 2391 481 2648 825 
Q 2906 1169 2906 1791 
z
M 3481 434 
Q 3481 -459 3084 -895 
Q 2688 -1331 1869 -1331 
Q 1566 -1331 1297 -1286 
Q 1028 -1241 775 -1147 
L 775 -588 
Q 1028 -725 1275 -790 
Q 1522 -856 1778 -856 
Q 2344 -856 2625 -561 
Q 2906 -266 2906 331 
L 2906 616 
Q 2728 306 2450 153 
Q 2172 0 1784 0 
Q 1141 0 747 490 
Q 353 981 353 1791 
Q 353 2603 747 3093 
Q 1141 3584 1784 3584 
Q 2172 3584 2450 3431 
Q 2728 3278 2906 2969 
L 2906 3500 
L 3481 3500 
L 3481 434 
z
" transform="scale(0.015625)"/>
     </defs>
     <use xlink:href="#DejaVuSans-28"/>
     <use xlink:href="#DejaVuSans-62" x="39.013672"/>
     <use xlink:href="#DejaVuSans-29" x="102.490234"/>
     <use xlink:href="#DejaVuSans-20" x="141.503906"/>
     <use xlink:href="#DejaVuSans-54" x="173.291016"/>
     <use xlink:href="#DejaVuSans-72" x="219.625"/>
     <use xlink:href="#DejaVuSans-61" x="260.738281"/>
     <use xlink:href="#DejaVuSans-69" x="322.017578"/>
     <use xlink:href="#DejaVuSans-6e" x="349.800781"/>
     <use xlink:href="#DejaVuSans-69" x="413.179688"/>
     <use xlink:href="#DejaVuSans-6e" x="440.962891"/>
     <use xlink:href="#DejaVuSans-67" x="504.341797"/>
     <use xlink:href="#DejaVuSans-20" x="567.818359"/>
     <use xlink:href="#DejaVuSans-4c" x="599.605469"/>
     <use xlink:href="#DejaVuSans-6f" x="653.568359"/>
     <use xlink:href="#DejaVuSans-73" x="714.75"/>
     <use xlink:href="#DejaVuSans-73" x="766.849609"/>
     <use xlink:href="#DejaVuSans-20" x="818.949219"/>
     <use xlink:href="#DejaVuSans-43" x="850.736328"/>
     <use xlink:href="#DejaVuSans-6f" x="920.560547"/>
     <use xlink:href="#DejaVuSans-6d" x="981.742188"/>
     <use xlink:href="#DejaVuSans-70" x="1079.154297"/>
     <use xlink:href="#DejaVuSans-61" x="1142.630859"/>
     <use xlink:href="#DejaVuSans-72" x="1203.910156"/>
     <use xlink:href="#DejaVuSans-69" x="1245.023438"/>
     <use xlink:href="#DejaVuSans-73" x="1272.806641"/>
     <use xlink:href="#DejaVuSans-6f" x="1324.90625"/>
     <use xlink:href="#DejaVuSans-6e" x="1386.087891"/>
    </g>
   </g>
   <g id="legend_2">
    <g id="patch_13">
     <path d="M 547.184687 379.16 
L 632.948594 379.16 
Q 635.148594 379.16 635.148594 376.96 
L 635.148594 313.47625 
Q 635.148594 311.27625 632.948594 311.27625 
L 547.184687 311.27625 
Q 544.984687 311.27625 544.984687 313.47625 
L 544.984687 376.96 
Q 544.984687 379.16 547.184687 379.16 
z
" style="fill: #ffffff; opacity: 0.8; stroke: #cccccc; stroke-linejoin: miter"/>
    </g>
    <g id="line2d_13">
     <path d="M 549.384687 320.184531 
L 560.384687 320.184531 
L 571.384687 320.184531 
" style="fill: none; stroke: #0072b2; stroke-width: 2; stroke-linecap: round"/>
    </g>
    <g id="text_39">
     <!-- HQTCN-C -->
     <g style="fill: #262626" transform="translate(580.184687 324.034531) scale(0.11 -0.11)">
      <use xlink:href="#DejaVuSans-48"/>
      <use xlink:href="#DejaVuSans-51" x="75.195312"/>
      <use xlink:href="#DejaVuSans-54" x="153.90625"/>
      <use xlink:href="#DejaVuSans-43" x="209.115234"/>
      <use xlink:href="#DejaVuSans-4e" x="278.939453"/>
      <use xlink:href="#DejaVuSans-2d" x="353.744141"/>
      <use xlink:href="#DejaVuSans-43" x="389.828125"/>
     </g>
    </g>
    <g id="line2d_14">
     <path d="M 549.384687 336.330469 
L 560.384687 336.330469 
L 571.384687 336.330469 
" style="fill: none; stroke: #d55e00; stroke-width: 2; stroke-linecap: round"/>
    </g>
    <g id="text_40">
     <!-- HQTCN-R -->
     <g style="fill: #262626" transform="translate(580.184687 340.180469) scale(0.11 -0.11)">
      <use xlink:href="#DejaVuSans-48"/>
      <use xlink:href="#DejaVuSans-51" x="75.195312"/>
      <use xlink:href="#DejaVuSans-54" x="153.90625"/>
      <use xlink:href="#DejaVuSans-43" x="209.115234"/>
      <use xlink:href="#DejaVuSans-4e" x="278.939453"/>
      <use xlink:href="#DejaVuSans-2d" x="353.744141"/>
      <use xlink:href="#DejaVuSans-52" x="389.828125"/>
     </g>
    </g>
    <g id="line2d_15">
     <path d="M 549.384687 352.476406 
L 560.384687 352.476406 
L 571.384687 352.476406 
" style="fill: none; stroke-dasharray: 7.4,3.2; stroke-dashoffset: 0; stroke: #009e73; stroke-width: 2"/>
    </g>
    <g id="text_41">
     <!-- TCN -->
     <g style="fill: #262626" transform="translate(580.184687 356.326406) scale(0.11 -0.11)">
      <use xlink:href="#DejaVuSans-54"/>
      <use xlink:href="#DejaVuSans-43" x="55.208984"/>
      <use xlink:href="#DejaVuSans-4e" x="125.033203"/>
     </g>
    </g>
    <g id="line2d_16">
     <path d="M 549.384687 368.622344 
L 560.384687 368.622344 
L 571.384687 368.622344 
" style="fill: none; stroke-dasharray: 7.4,3.2; stroke-dashoffset: 0; stroke: #cc79a7; stroke-width: 2"/>
    </g>
    <g id="text_42">
     <!-- QLSTM -->
     <g style="fill: #262626" transform="translate(580.184687 372.472344) scale(0.11 -0.11)">
      <defs>
       <path id="DejaVuSans-53" d="M 3425 4513 
L 3425 3897 
Q 3066 4069 2747 4153 
Q 2428 4238 2131 4238 
Q 1616 4238 1336 4038 
Q 1056 3838 1056 3469 
Q 1056 3159 1242 3001 
Q 1428 2844 1947 2747 
L 2328 2669 
Q 3034 2534 3370 2195 
Q 3706 1856 3706 1288 
Q 3706 609 3251 259 
Q 2797 -91 1919 -91 
Q 1588 -91 1214 -16 
Q 841 59 441 206 
L 441 856 
Q 825 641 1194 531 
Q 1563 422 1919 422 
Q 2459 422 2753 634 
Q 3047 847 3047 1241 
Q 3047 1584 2836 1778 
Q 2625 1972 2144 2069 
L 1759 2144 
Q 1053 2284 737 2584 
Q 422 2884 422 3419 
Q 422 4038 858 4394 
Q 1294 4750 2059 4750 
Q 2388 4750 2728 4690 
Q 3069 4631 3425 4513 
z
" transform="scale(0.015625)"/>
      </defs>
      <use xlink:href="#DejaVuSans-51"/>
      <use xlink:href="#DejaVuSans-4c" x="78.710938"/>
      <use xlink:href="#DejaVuSans-53" x="134.423828"/>
      <use xlink:href="#DejaVuSans-54" x="197.900391"/>
      <use xlink:href="#DejaVuSans-4d" x="258.984375"/>
     </g>
    </g>
   </g>
  </g>
  <g id="axes_3">
   <g id="patch_14">
    <path d="M 1015.164688 384.66 
L 1420.194687 384.66 
L 1420.194687 89.76 
L 1015.164688 89.76 
z
" style="fill: #ffffff"/>
   </g>
   <g id="matplotlib.axis_5">
    <g id="xtick_13">
     <g id="text_43">
      <!-- 0 -->
      <g style="fill: #262626" transform="translate(1022.561296 402.518281) scale(0.11 -0.11)">
       <use xlink:href="#DejaVuSans-30"/>
      </g>
     </g>
    </g>
    <g id="xtick_14">
     <g id="text_44">
      <!-- 10 -->
      <g style="fill: #262626" transform="translate(1094.206633 402.518281) scale(0.11 -0.11)">
       <use xlink:href="#DejaVuSans-31"/>
       <use xlink:href="#DejaVuSans-30" x="63.623047"/>
      </g>
     </g>
    </g>
    <g id="xtick_15">
     <g id="text_45">
      <!-- 20 -->
      <g style="fill: #262626" transform="translate(1169.351346 402.518281) scale(0.11 -0.11)">
       <use xlink:href="#DejaVuSans-32"/>
       <use xlink:href="#DejaVuSans-30" x="63.623047"/>
      </g>
     </g>
    </g>
    <g id="xtick_16">
     <g id="text_46">
      <!-- 30 -->
      <g style="fill: #262626" transform="translate(1244.496058 402.518281) scale(0.11 -0.11)">
       <use xlink:href="#DejaVuSans-33"/>
       <use xlink:href="#DejaVuSans-30" x="63.623047"/>
      </g>
     </g>
    </g>
    <g id="xtick_17">
     <g id="text_47">
      <!-- 40 -->
      <g style="fill: #262626" transform="translate(1319.640771 402.518281) scale(0.11 -0.11)">
       <use xlink:href="#DejaVuSans-34"/>
       <use xlink:href="#DejaVuSans-30" x="63.623047"/>
      </g>
     </g>
    </g>
    <g id="xtick_18">
     <g id="text_48">
      <!-- 50 -->
      <g style="fill: #262626" transform="translate(1394.785483 402.518281) scale(0.11 -0.11)">
       <use xlink:href="#DejaVuSans-35"/>
       <use xlink:href="#DejaVuSans-30" x="63.623047"/>
      </g>
     </g>
    </g>
    <g id="text_49">
     <!-- Epoch -->
     <g style="fill: #262626" transform="translate(1199.306562 417.924062) scale(0.12 -0.12)">
      <use xlink:href="#DejaVuSans-45"/>
      <use xlink:href="#DejaVuSans-70" x="63.183594"/>
      <use xlink:href="#DejaVuSans-6f" x="126.660156"/>
      <use xlink:href="#DejaVuSans-63" x="187.841797"/>
      <use xlink:href="#DejaVuSans-68" x="242.822266"/>
     </g>
    </g>
   </g>
   <g id="matplotlib.axis_6">
    <g id="ytick_17">
     <g id="text_50">
      <!-- 0.000 -->
      <g style="fill: #262626" transform="translate(974.17375 388.839141) scale(0.11 -0.11)">
       <use xlink:href="#DejaVuSans-30"/>
       <use xlink:href="#DejaVuSans-2e" x="63.623047"/>
       <use xlink:href="#DejaVuSans-30" x="95.410156"/>
       <use xlink:href="#DejaVuSans-30" x="159.033203"/>
       <use xlink:href="#DejaVuSans-30" x="222.65625"/>
      </g>
     </g>
    </g>
    <g id="ytick_18">
     <g id="text_51">
      <!-- 0.025 -->
      <g style="fill: #262626" transform="translate(974.17375 353.748929) scale(0.11 -0.11)">
       <use xlink:href="#DejaVuSans-30"/>
       <use xlink:href="#DejaVuSans-2e" x="63.623047"/>
       <use xlink:href="#DejaVuSans-30" x="95.410156"/>
       <use xlink:href="#DejaVuSans-32" x="159.033203"/>
       <use xlink:href="#DejaVuSans-35" x="222.65625"/>
      </g>
     </g>
    </g>
    <g id="ytick_19">
     <g id="text_52">
      <!-- 0.050 -->
      <g style="fill: #262626" transform="translate(974.17375 318.658717) scale(0.11 -0.11)">
       <use xlink:href="#DejaVuSans-30"/>
       <use xlink:href="#DejaVuSans-2e" x="63.623047"/>
       <use xlink:href="#DejaVuSans-30" x="95.410156"/>
       <use xlink:href="#DejaVuSans-35" x="159.033203"/>
       <use xlink:href="#DejaVuSans-30" x="222.65625"/>
      </g>
     </g>
    </g>
    <g id="ytick_20">
     <g id="text_53">
      <!-- 0.075 -->
      <g style="fill: #262626" transform="translate(974.17375 283.568505) scale(0.11 -0.11)">
       <use xlink:href="#DejaVuSans-30"/>
       <use xlink:href="#DejaVuSans-2e" x="63.623047"/>
       <use xlink:href="#DejaVuSans-30" x="95.410156"/>
       <use xlink:href="#DejaVuSans-37" x="159.033203"/>
       <use xlink:href="#DejaVuSans-35" x="222.65625"/>
      </g>
     </g>
    </g>
    <g id="ytick_21">
     <g id="text_54">
      <!-- 0.100 -->
      <g style="fill: #262626" transform="translate(974.17375 248.478294) scale(0.11 -0.11)">
       <use xlink:href="#DejaVuSans-30"/>
       <use xlink:href="#DejaVuSans-2e" x="63.623047"/>
       <use xlink:href="#DejaVuSans-31" x="95.410156"/>
       <use xlink:href="#DejaVuSans-30" x="159.033203"/>
       <use xlink:href="#DejaVuSans-30" x="222.65625"/>
      </g>
     </g>
    </g>
    <g id="ytick_22">
     <g id="text_55">
      <!-- 0.125 -->
      <g style="fill: #262626" transform="translate(974.17375 213.388082) scale(0.11 -0.11)">
       <use xlink:href="#DejaVuSans-30"/>
       <use xlink:href="#DejaVuSans-2e" x="63.623047"/>
       <use xlink:href="#DejaVuSans-31" x="95.410156"/>
       <use xlink:href="#DejaVuSans-32" x="159.033203"/>
       <use xlink:href="#DejaVuSans-35" x="222.65625"/>
      </g>
     </g>
    </g>
    <g id="ytick_23">
     <g id="text_56">
      <!-- 0.150 -->
      <g style="fill: #262626" transform="translate(974.17375 178.29787) scale(0.11 -0.11)">
       <use xlink:href="#DejaVuSans-30"/>
       <use xlink:href="#DejaVuSans-2e" x="63.623047"/>
       <use xlink:href="#DejaVuSans-31" x="95.410156"/>
       <use xlink:href="#DejaVuSans-35" x="159.033203"/>
       <use xlink:href="#DejaVuSans-30" x="222.65625"/>
      </g>
     </g>
    </g>
    <g id="ytick_24">
     <g id="text_57">
      <!-- 0.175 -->
      <g style="fill: #262626" transform="translate(974.17375 143.207659) scale(0.11 -0.11)">
       <use xlink:href="#DejaVuSans-30"/>
       <use xlink:href="#DejaVuSans-2e" x="63.623047"/>
       <use xlink:href="#DejaVuSans-31" x="95.410156"/>
       <use xlink:href="#DejaVuSans-37" x="159.033203"/>
       <use xlink:href="#DejaVuSans-35" x="222.65625"/>
      </g>
     </g>
    </g>
    <g id="ytick_25">
     <g id="text_58">
      <!-- 0.200 -->
      <g style="fill: #262626" transform="translate(974.17375 108.117447) scale(0.11 -0.11)">
       <use xlink:href="#DejaVuSans-30"/>
       <use xlink:href="#DejaVuSans-2e" x="63.623047"/>
       <use xlink:href="#DejaVuSans-32" x="95.410156"/>
       <use xlink:href="#DejaVuSans-30" x="159.033203"/>
       <use xlink:href="#DejaVuSans-30" x="222.65625"/>
      </g>
     </g>
    </g>
    <g id="text_59">
     <!-- Loss -->
     <g style="fill: #262626" transform="translate(967.678125 250.370625) rotate(-90) scale(0.12 -0.12)">
      <use xlink:href="#DejaVuSans-4c"/>
      <use xlink:href="#DejaVuSans-6f" x="53.962891"/>
      <use xlink:href="#DejaVuSans-73" x="115.144531"/>
      <use xlink:href="#DejaVuSans-73" x="167.244141"/>
     </g>
    </g>
   </g>
   <g id="line2d_17">
    <path d="M 1033.575142 126.986713 
L 1041.089613 177.693831 
L 1048.604085 193.960425 
L 1056.118556 139.773925 
L 1063.633027 137.761071 
L 1071.147498 168.381378 
L 1078.66197 183.325532 
L 1086.176441 161.149105 
L 1093.690912 155.833729 
L 1101.205383 163.48044 
L 1108.719854 163.841188 
L 1116.234326 162.167016 
L 1123.748797 165.333126 
L 1131.263268 152.46727 
L 1138.777739 169.410206 
L 1146.292211 159.294704 
L 1153.806682 154.694405 
L 1161.321153 168.235513 
L 1168.835624 161.313061 
L 1176.350096 167.969845 
L 1183.864567 166.484895 
L 1191.379038 170.969887 
L 1198.893509 142.578011 
L 1206.407981 154.290215 
L 1213.922452 178.333801 
L 1221.436923 168.889706 
L 1228.951394 160.138285 
L 1236.465866 152.834671 
L 1243.980337 154.033876 
L 1251.494808 167.657161 
L 1259.009279 181.829976 
L 1266.523751 166.137615 
L 1274.038222 141.023286 
L 1281.552693 153.604461 
L 1289.067164 172.285905 
L 1296.581636 171.912816 
L 1304.096107 159.362534 
L 1311.610578 162.100359 
L 1319.125049 164.430082 
L 1326.639521 163.470776 
L 1334.153992 156.017638 
L 1341.668463 157.149894 
L 1349.182934 158.479945 
L 1356.697405 172.234558 
L 1364.211877 162.161389 
L 1371.726348 160.533587 
L 1379.240819 156.892424 
L 1386.75529 168.372425 
L 1394.269762 174.106778 
L 1401.784233 166.553538 
" clip-path="url(#p66398fcabe)" style="fill: none; stroke: #0072b2; stroke-width: 2.5; stroke-linecap: round"/>
   </g>
   <g id="line2d_18">
    <path d="M 1033.575142 274.594967 
L 1041.089613 273.351756 
L 1048.604085 262.815059 
L 1056.118556 250.506621 
L 1063.633027 244.451154 
L 1071.147498 245.219355 
L 1078.66197 252.681079 
L 1086.176441 259.771639 
L 1093.690912 266.322205 
L 1101.205383 269.987409 
L 1108.719854 274.653666 
L 1116.234326 275.57594 
L 1123.748797 276.965246 
L 1131.263268 279.128859 
L 1138.777739 279.467092 
L 1146.292211 279.473388 
L 1153.806682 280.462822 
L 1161.321153 280.731648 
L 1168.835624 282.940491 
L 1176.350096 284.510443 
L 1183.864567 285.216619 
L 1191.379038 287.107864 
L 1198.893509 288.66195 
L 1206.407981 288.04388 
L 1213.922452 288.889322 
L 1221.436923 288.117554 
L 1228.951394 288.3272 
L 1236.465866 289.340205 
L 1243.980337 290.761815 
L 1251.494808 290.903234 
L 1259.009279 291.596005 
L 1266.523751 292.002683 
L 1274.038222 290.966952 
L 1281.552693 290.485637 
L 1289.067164 291.353208 
L 1296.581636 291.742872 
L 1304.096107 291.424979 
L 1311.610578 291.620496 
L 1319.125049 292.317711 
L 1326.639521 294.345793 
L 1334.153992 294.350833 
L 1341.668463 294.10811 
L 1349.182934 292.240711 
L 1356.697405 291.769434 
L 1364.211877 292.578526 
L 1371.726348 293.95479 
L 1379.240819 294.953604 
L 1386.75529 295.523528 
L 1394.269762 294.158161 
L 1401.784233 293.6541 
" clip-path="url(#p66398fcabe)" style="fill: none; stroke: #d55e00; stroke-width: 2.5; stroke-linecap: round"/>
   </g>
   <g id="line2d_19">
    <path d="M 1033.575142 246.04201 
L 1041.089613 99.558263 
L 1048.604085 126.910059 
L 1056.118556 199.728097 
L 1063.633027 235.502229 
L 1071.147498 239.257024 
L 1078.66197 236.665565 
L 1086.176441 232.744222 
L 1093.690912 229.420367 
L 1101.205383 236.014082 
L 1108.719854 247.628611 
L 1116.234326 253.03068 
L 1123.748797 259.999795 
L 1131.263268 267.896445 
L 1138.777739 267.929313 
L 1146.292211 262.616708 
L 1153.806682 267.713289 
L 1161.321153 272.435379 
L 1168.835624 272.161595 
L 1176.350096 277.737065 
L 1183.864567 276.152662 
L 1191.379038 283.363286 
L 1198.893509 276.359849 
L 1206.407981 276.873562 
L 1213.922452 277.142294 
L 1221.436923 276.542702 
L 1228.951394 275.511605 
L 1236.465866 278.678048 
L 1243.980337 277.78926 
L 1251.494808 283.170645 
L 1259.009279 284.418258 
L 1266.523751 283.845354 
L 1274.038222 284.009854 
L 1281.552693 286.075845 
L 1289.067164 284.199379 
L 1296.581636 283.705148 
L 1304.096107 272.337933 
L 1311.610578 285.25043 
L 1319.125049 288.880788 
L 1326.639521 287.980266 
L 1334.153992 286.183487 
L 1341.668463 287.359841 
L 1349.182934 283.070575 
L 1356.697405 292.916038 
L 1364.211877 288.400089 
L 1371.726348 280.215373 
L 1379.240819 288.008407 
L 1386.75529 291.231814 
L 1394.269762 291.749262 
L 1401.784233 285.798454 
" clip-path="url(#p66398fcabe)" style="fill: none; stroke-dasharray: 9.25,4; stroke-dashoffset: 0; stroke: #009e73; stroke-width: 2.5"/>
   </g>
   <g id="line2d_20">
    <path d="M 1033.575142 208.057327 
L 1041.089613 181.489464 
L 1048.604085 189.557028 
L 1056.118556 198.605745 
L 1063.633027 207.689935 
L 1071.147498 216.267378 
L 1078.66197 224.143355 
L 1086.176441 231.311174 
L 1093.690912 237.770646 
L 1101.205383 243.500674 
L 1108.719854 248.492405 
L 1116.234326 252.773928 
L 1123.748797 256.39903 
L 1131.263268 259.453771 
L 1138.777739 262.016163 
L 1146.292211 264.185075 
L 1153.806682 266.015061 
L 1161.321153 267.571255 
L 1168.835624 268.900227 
L 1176.350096 270.042474 
L 1183.864567 271.028798 
L 1191.379038 271.885059 
L 1198.893509 272.63155 
L 1206.407981 273.285644 
L 1213.922452 273.8611 
L 1221.436923 274.370023 
L 1228.951394 274.821801 
L 1236.465866 275.225068 
L 1243.980337 275.586167 
L 1251.494808 275.911464 
" clip-path="url(#p66398fcabe)" style="fill: none; stroke-dasharray: 9.25,4; stroke-dashoffset: 0; stroke: #cc79a7; stroke-width: 2.5"/>
   </g>
   <g id="patch_15">
    <path d="M 1015.164688 384.66 
L 1015.164688 89.76 
" style="fill: none; stroke: #262626; stroke-width: 1.25; stroke-linejoin: miter; stroke-linecap: square"/>
   </g>
   <g id="patch_16">
    <path d="M 1420.194687 384.66 
L 1420.194687 89.76 
" style="fill: none; stroke: #262626; stroke-width: 1.25; stroke-linejoin: miter; stroke-linecap: square"/>
   </g>
   <g id="patch_17">
    <path d="M 1015.164687 384.66 
L 1420.194687 384.66 
" style="fill: none; stroke: #262626; stroke-width: 1.25; stroke-linejoin: miter; stroke-linecap: square"/>
   </g>
   <g id="patch_18">
    <path d="M 1015.164687 89.76 
L 1420.194687 89.76 
" style="fill: none; stroke: #262626; stroke-width: 1.25; stroke-linejoin: miter; stroke-linecap: square"/>
   </g>
   <g id="text_60">
    <!-- (c) Validation Loss Comparison -->
    <g style="fill: #262626" transform="translate(1094.459687 77.76) scale(0.16 -0.16)">
     <defs>
      <path id="DejaVuSans-74" d="M 1172 4494 
L 1172 3500 
L 2356 3500 
L 2356 3053 
L 1172 3053 
L 1172 1153 
Q 1172 725 1289 603 
Q 1406 481 1766 481 
L 2356 481 
L 2356 0 
L 1766 0 
Q 1100 0 847 248 
Q 594 497 594 1153 
L 594 3053 
L 172 3053 
L 172 3500 
L 594 3500 
L 594 4494 
L 1172 4494 
z
" transform="scale(0.015625)"/>
     </defs>
     <use xlink:href="#DejaVuSans-28"/>
     <use xlink:href="#DejaVuSans-63" x="39.013672"/>
     <use xlink:href="#DejaVuSans-29" x="93.994141"/>
     <use xlink:href="#DejaVuSans-20" x="133.007812"/>
     <use xlink:href="#DejaVuSans-56" x="164.794922"/>
     <use xlink:href="#DejaVuSans-61" x="225.453125"/>
     <use xlink:href="#DejaVuSans-6c" x="286.732422"/>
     <use xlink:href="#DejaVuSans-69" x="314.515625"/>
     <use xlink:href="#DejaVuSans-64" x="342.298828"/>
     <use xlink:href="#DejaVuSans-61" x="405.775391"/>
     <use xlink:href="#DejaVuSans-74" x="467.054688"/>
     <use xlink:href="#DejaVuSans-69" x="506.263672"/>
     <use xlink:href="#DejaVuSans-6f" x="534.046875"/>
     <use xlink:href="#DejaVuSans-6e" x="595.228516"/>
     <use xlink:href="#DejaVuSans-20" x="658.607422"/>
     <use xlink:href="#DejaVuSans-4c" x="690.394531"/>
     <use xlink:href="#DejaVuSans-6f" x="744.357422"/>
     <use xlink:href="#DejaVuSans-73" x="805.539062"/>
     <use xlink:href="#DejaVuSans-73" x="857.638672"/>
     <use xlink:href="#DejaVuSans-20" x="909.738281"/>
     <use xlink:href="#DejaVuSans-43" x="941.525391"/>
     <use xlink:href="#DejaVuSans-6f" x="1011.349609"/>
     <use xlink:href="#DejaVuSans-6d" x="1072.53125"/>
     <use xlink:href="#DejaVuSans-70" x="1169.943359"/>
     <use xlink:href="#DejaVuSans-61" x="1233.419922"/>
     <use xlink:href="#DejaVuSans-72" x="1294.699219"/>
     <use xlink:href="#DejaVuSans-69" x="1335.8125"/>
     <use xlink:href="#DejaVuSans-73" x="1363.595703"/>
     <use xlink:href="#DejaVuSans-6f" x="1415.695312"/>
     <use xlink:href="#DejaVuSans-6e" x="1476.876953"/>
    </g>
   </g>
   <g id="legend_3">
    <g id="patch_19">
     <path d="M 1022.864688 379.16 
L 1108.628594 379.16 
Q 1110.828594 379.16 1110.828594 376.96 
L 1110.828594 313.47625 
Q 1110.828594 311.27625 1108.628594 311.27625 
L 1022.864688 311.27625 
Q 1020.664688 311.27625 1020.664688 313.47625 
L 1020.664688 376.96 
Q 1020.664688 379.16 1022.864688 379.16 
z
" style="fill: #ffffff; opacity: 0.8; stroke: #cccccc; stroke-linejoin: miter"/>
    </g>
    <g id="line2d_21">
     <path d="M 1025.064687 320.184531 
L 1036.064687 320.184531 
L 1047.064687 320.184531 
" style="fill: none; stroke: #0072b2; stroke-width: 2.5; stroke-linecap: round"/>
    </g>
    <g id="text_61">
     <!-- HQTCN-C -->
     <g style="fill: #262626" transform="translate(1055.864687 324.034531) scale(0.11 -0.11)">
      <use xlink:href="#DejaVuSans-48"/>
      <use xlink:href="#DejaVuSans-51" x="75.195312"/>
      <use xlink:href="#DejaVuSans-54" x="153.90625"/>
      <use xlink:href="#DejaVuSans-43" x="209.115234"/>
      <use xlink:href="#DejaVuSans-4e" x="278.939453"/>
      <use xlink:href="#DejaVuSans-2d" x="353.744141"/>
      <use xlink:href="#DejaVuSans-43" x="389.828125"/>
     </g>
    </g>
    <g id="line2d_22">
     <path d="M 1025.064687 336.330469 
L 1036.064687 336.330469 
L 1047.064687 336.330469 
" style="fill: none; stroke: #d55e00; stroke-width: 2.5; stroke-linecap: round"/>
    </g>
    <g id="text_62">
     <!-- HQTCN-R -->
     <g style="fill: #262626" transform="translate(1055.864687 340.180469) scale(0.11 -0.11)">
      <use xlink:href="#DejaVuSans-48"/>
      <use xlink:href="#DejaVuSans-51" x="75.195312"/>
      <use xlink:href="#DejaVuSans-54" x="153.90625"/>
      <use xlink:href="#DejaVuSans-43" x="209.115234"/>
      <use xlink:href="#DejaVuSans-4e" x="278.939453"/>
      <use xlink:href="#DejaVuSans-2d" x="353.744141"/>
      <use xlink:href="#DejaVuSans-52" x="389.828125"/>
     </g>
    </g>
    <g id="line2d_23">
     <path d="M 1025.064687 352.476406 
L 1036.064687 352.476406 
L 1047.064687 352.476406 
" style="fill: none; stroke-dasharray: 9.25,4; stroke-dashoffset: 0; stroke: #009e73; stroke-width: 2.5"/>
    </g>
    <g id="text_63">
     <!-- TCN -->
     <g style="fill: #262626" transform="translate(1055.864687 356.326406) scale(0.11 -0.11)">
      <use xlink:href="#DejaVuSans-54"/>
      <use xlink:href="#DejaVuSans-43" x="55.208984"/>
      <use xlink:href="#DejaVuSans-4e" x="125.033203"/>
     </g>
    </g>
    <g id="line2d_24">
     <path d="M 1025.064687 368.622344 
L 1036.064687 368.622344 
L 1047.064687 368.622344 
" style="fill: none; stroke-dasharray: 9.25,4; stroke-dashoffset: 0; stroke: #cc79a7; stroke-width: 2.5"/>
    </g>
    <g id="text_64">
     <!-- QLSTM -->
     <g style="fill: #262626" transform="translate(1055.864687 372.472344) scale(0.11 -0.11)">
      <use xlink:href="#DejaVuSans-51"/>
      <use xlink:href="#DejaVuSans-4c" x="78.710938"/>
      <use xlink:href="#DejaVuSans-53" x="134.423828"/>
      <use xlink:href="#DejaVuSans-54" x="197.900391"/>
      <use xlink:href="#DejaVuSans-4d" x="258.984375"/>
     </g>
    </g>
   </g>
  </g>
  <g id="text_65">
   <!-- Learning Dynamics on NARMA Dataset -->
   <g style="fill: #262626" transform="translate(519.360937 22.396875) scale(0.2 -0.2)">
    <defs>
     <path id="DejaVuSans-44" d="M 1259 4147 
L 1259 519 
L 2022 519 
Q 2988 519 3436 956 
Q 3884 1394 3884 2338 
Q 3884 3275 3436 3711 
Q 2988 4147 2022 4147 
L 1259 4147 
z
M 628 4666 
L 1925 4666 
Q 3281 4666 3915 4102 
Q 4550 3538 4550 2338 
Q 4550 1131 3912 565 
Q 3275 0 1925 0 
L 628 0 
L 628 4666 
z
" transform="scale(0.015625)"/>
     <path id="DejaVuSans-79" d="M 2059 -325 
Q 1816 -950 1584 -1140 
Q 1353 -1331 966 -1331 
L 506 -1331 
L 506 -850 
L 844 -850 
Q 1081 -850 1212 -737 
Q 1344 -625 1503 -206 
L 1606 56 
L 191 3500 
L 800 3500 
L 1894 763 
L 2988 3500 
L 3597 3500 
L 2059 -325 
z
" transform="scale(0.015625)"/>
     <path id="DejaVuSans-41" d="M 2188 4044 
L 1331 1722 
L 3047 1722 
L 2188 4044 
z
M 1831 4666 
L 2547 4666 
L 4325 0 
L 3669 0 
L 3244 1197 
L 1141 1197 
L 716 0 
L 50 0 
L 1831 4666 
z
" transform="scale(0.015625)"/>
    </defs>
    <use xlink:href="#DejaVuSans-4c"/>
    <use xlink:href="#DejaVuSans-65" x="53.962891"/>
    <use xlink:href="#DejaVuSans-61" x="115.486328"/>
    <use xlink:href="#DejaVuSans-72" x="176.765625"/>
    <use xlink:href="#DejaVuSans-6e" x="216.128906"/>
    <use xlink:href="#DejaVuSans-69" x="279.507812"/>
    <use xlink:href="#DejaVuSans-6e" x="307.291016"/>
    <use xlink:href="#DejaVuSans-67" x="370.669922"/>
    <use xlink:href="#DejaVuSans-20" x="434.146484"/>
    <use xlink:href="#DejaVuSans-44" x="465.933594"/>
    <use xlink:href="#DejaVuSans-79" x="542.935547"/>
    <use xlink:href="#DejaVuSans-6e" x="602.115234"/>
    <use xlink:href="#DejaVuSans-61" x="665.494141"/>
    <use xlink:href="#DejaVuSans-6d" x="726.773438"/>
    <use xlink:href="#DejaVuSans-69" x="824.185547"/>
    <use xlink:href="#DejaVuSans-63" x="851.96875"/>
    <use xlink:href="#DejaVuSans-73" x="906.949219"/>
    <use xlink:href="#DejaVuSans-20" x="959.048828"/>
    <use xlink:href="#DejaVuSans-6f" x="990.835938"/>
    <use xlink:href="#DejaVuSans-6e" x="1052.017578"/>
    <use xlink:href="#DejaVuSans-20" x="1115.396484"/>
    <use xlink:href="#DejaVuSans-4e" x="1147.183594"/>
    <use xlink:href="#DejaVuSans-41" x="1221.988281"/>
    <use xlink:href="#DejaVuSans-52" x="1290.396484"/>
    <use xlink:href="#DejaVuSans-4d" x="1359.878906"/>
    <use xlink:href="#DejaVuSans-41" x="1446.158203"/>
    <use xlink:href="#DejaVuSans-20" x="1514.566406"/>
    <use xlink:href="#DejaVuSans-44" x="1546.353516"/>
    <use xlink:href="#DejaVuSans-61" x="1623.355469"/>
    <use xlink:href="#DejaVuSans-74" x="1684.634766"/>
    <use xlink:href="#DejaVuSans-61" x="1723.84375"/>
    <use xlink:href="#DejaVuSans-73" x="1785.123047"/>
    <use xlink:href="#DejaVuSans-65" x="1837.222656"/>
    <use xlink:href="#DejaVuSans-74" x="1898.746094"/>
   </g>
  </g>
 </g>
 <defs>
  <clipPath id="pd84540280e">
   <rect x="63.804688" y="89.76" width="405.03" height="294.9"/>
  </clipPath>
  <clipPath id="p378cb22f69">
   <rect x="539.484687" y="89.76" width="405.03" height="294.9"/>
  </clipPath>
  <clipPath id="p66398fcabe">
   <rect x="1015.164688" y="89.76" width="405.03" height="294.9"/>
  </clipPath>
 </defs>
</svg>
