<?xml version="1.0" encoding="utf-8" standalone="no"?>
<!DOCTYPE svg PUBLIC "-//W3C//DTD SVG 1.1//EN"
  "http://www.w3.org/Graphics/SVG/1.1/DTD/svg11.dtd">
<svg xmlns:xlink="http://www.w3.org/1999/xlink" width="1140.562187pt" height="429.179688pt" viewBox="0 0 1140.562187 429.179688" xmlns="http://www.w3.org/2000/svg" version="1.1">
 <metadata>
  <rdf:RDF xmlns:dc="http://purl.org/dc/elements/1.1/" xmlns:cc="http://creativecommons.org/ns#" xmlns:rdf="http://www.w3.org/1999/02/22-rdf-syntax-ns#">
   <cc:Work>
    <dc:type rdf:resource="http://purl.org/dc/dcmitype/StillImage"/>
    <dc:date>2025-07-12T09:23:33.455038</dc:date>
    <dc:format>image/svg+xml</dc:format>
    <dc:creator>
     <cc:Agent>
      <dc:title>Matplotlib v3.8.2, https://matplotlib.org/</dc:title>
     </cc:Agent>
    </dc:creator>
   </cc:Work>
  </rdf:RDF>
 </metadata>
 <defs>
  <style type="text/css">*{stroke-linejoin: round; stroke-linecap: butt}</style>
 </defs>
 <g id="figure_1">
  <g id="patch_1">
   <path d="M 0 429.179688 
L 1140.562187 429.179688 
L 1140.562187 0 
L 0 0 
z
" style="fill: #ffffff"/>
  </g>
  <g id="axes_1">
   <g id="patch_2">
    <path d="M 49.807187 386.22 
L 563.842188 386.22 
L 563.842188 84.28 
L 49.807187 84.28 
z
" style="fill: #ffffff"/>
   </g>
   <g id="matplotlib.axis_1">
    <g id="xtick_1">
     <g id="text_1">
      <!-- 0 -->
      <g style="fill: #262626" transform="translate(60.136212 404.078281) scale(0.11 -0.11)">
       <defs>
        <path id="DejaVuSans-30" d="M 2034 4250 
Q 1547 4250 1301 3770 
Q 1056 3291 1056 2328 
Q 1056 1369 1301 889 
Q 1547 409 2034 409 
Q 2525 409 2770 889 
Q 3016 1369 3016 2328 
Q 3016 3291 2770 3770 
Q 2525 4250 2034 4250 
z
M 2034 4750 
Q 2819 4750 3233 4129 
Q 3647 3509 3647 2328 
Q 3647 1150 3233 529 
Q 2819 -91 2034 -91 
Q 1250 -91 836 529 
Q 422 1150 422 2328 
Q 422 3509 836 4129 
Q 1250 4750 2034 4750 
z
" transform="scale(0.015625)"/>
       </defs>
       <use xlink:href="#DejaVuSans-30"/>
      </g>
     </g>
    </g>
    <g id="xtick_2">
     <g id="text_2">
      <!-- 10 -->
      <g style="fill: #262626" transform="translate(152.005112 404.078281) scale(0.11 -0.11)">
       <defs>
        <path id="DejaVuSans-31" d="M 794 531 
L 1825 531 
L 1825 4091 
L 703 3866 
L 703 4441 
L 1819 4666 
L 2450 4666 
L 2450 531 
L 3481 531 
L 3481 0 
L 794 0 
L 794 531 
z
" transform="scale(0.015625)"/>
       </defs>
       <use xlink:href="#DejaVuSans-31"/>
       <use xlink:href="#DejaVuSans-30" x="63.623047"/>
      </g>
     </g>
    </g>
    <g id="xtick_3">
     <g id="text_3">
      <!-- 20 -->
      <g style="fill: #262626" transform="translate(247.373386 404.078281) scale(0.11 -0.11)">
       <defs>
        <path id="DejaVuSans-32" d="M 1228 531 
L 3431 531 
L 3431 0 
L 469 0 
L 469 531 
Q 828 903 1448 1529 
Q 2069 2156 2228 2338 
Q 2531 2678 2651 2914 
Q 2772 3150 2772 3378 
Q 2772 3750 2511 3984 
Q 2250 4219 1831 4219 
Q 1534 4219 1204 4116 
Q 875 4013 500 3803 
L 500 4441 
Q 881 4594 1212 4672 
Q 1544 4750 1819 4750 
Q 2544 4750 2975 4387 
Q 3406 4025 3406 3419 
Q 3406 3131 3298 2873 
Q 3191 2616 2906 2266 
Q 2828 2175 2409 1742 
Q 1991 1309 1228 531 
z
" transform="scale(0.015625)"/>
       </defs>
       <use xlink:href="#DejaVuSans-32"/>
       <use xlink:href="#DejaVuSans-30" x="63.623047"/>
      </g>
     </g>
    </g>
    <g id="xtick_4">
     <g id="text_4">
      <!-- 30 -->
      <g style="fill: #262626" transform="translate(342.741661 404.078281) scale(0.11 -0.11)">
       <defs>
        <path id="DejaVuSans-33" d="M 2597 2516 
Q 3050 2419 3304 2112 
Q 3559 1806 3559 1356 
Q 3559 666 3084 287 
Q 2609 -91 1734 -91 
Q 1441 -91 1130 -33 
Q 819 25 488 141 
L 488 750 
Q 750 597 1062 519 
Q 1375 441 1716 441 
Q 2309 441 2620 675 
Q 2931 909 2931 1356 
Q 2931 1769 2642 2001 
Q 2353 2234 1838 2234 
L 1294 2234 
L 1294 2753 
L 1863 2753 
Q 2328 2753 2575 2939 
Q 2822 3125 2822 3475 
Q 2822 3834 2567 4026 
Q 2313 4219 1838 4219 
Q 1578 4219 1281 4162 
Q 984 4106 628 3988 
L 628 4550 
Q 988 4650 1302 4700 
Q 1616 4750 1894 4750 
Q 2613 4750 3031 4423 
Q 3450 4097 3450 3541 
Q 3450 3153 3228 2886 
Q 3006 2619 2597 2516 
z
" transform="scale(0.015625)"/>
       </defs>
       <use xlink:href="#DejaVuSans-33"/>
       <use xlink:href="#DejaVuSans-30" x="63.623047"/>
      </g>
     </g>
    </g>
    <g id="xtick_5">
     <g id="text_5">
      <!-- 40 -->
      <g style="fill: #262626" transform="translate(438.109936 404.078281) scale(0.11 -0.11)">
       <defs>
        <path id="DejaVuSans-34" d="M 2419 4116 
L 825 1625 
L 2419 1625 
L 2419 4116 
z
M 2253 4666 
L 3047 4666 
L 3047 1625 
L 3713 1625 
L 3713 1100 
L 3047 1100 
L 3047 0 
L 2419 0 
L 2419 1100 
L 313 1100 
L 313 1709 
L 2253 4666 
z
" transform="scale(0.015625)"/>
       </defs>
       <use xlink:href="#DejaVuSans-34"/>
       <use xlink:href="#DejaVuSans-30" x="63.623047"/>
      </g>
     </g>
    </g>
    <g id="xtick_6">
     <g id="text_6">
      <!-- 50 -->
      <g style="fill: #262626" transform="translate(533.47821 404.078281) scale(0.11 -0.11)">
       <defs>
        <path id="DejaVuSans-35" d="M 691 4666 
L 3169 4666 
L 3169 4134 
L 1269 4134 
L 1269 2991 
Q 1406 3038 1543 3061 
Q 1681 3084 1819 3084 
Q 2600 3084 3056 2656 
Q 3513 2228 3513 1497 
Q 3513 744 3044 326 
Q 2575 -91 1722 -91 
Q 1428 -91 1123 -41 
Q 819 9 494 109 
L 494 744 
Q 775 591 1075 516 
Q 1375 441 1709 441 
Q 2250 441 2565 725 
Q 2881 1009 2881 1497 
Q 2881 1984 2565 2268 
Q 2250 2553 1709 2553 
Q 1456 2553 1204 2497 
Q 953 2441 691 2322 
L 691 4666 
z
" transform="scale(0.015625)"/>
       </defs>
       <use xlink:href="#DejaVuSans-35"/>
       <use xlink:href="#DejaVuSans-30" x="63.623047"/>
      </g>
     </g>
    </g>
    <g id="text_7">
     <!-- Epoch -->
     <g style="fill: #262626" transform="translate(288.451563 419.484062) scale(0.12 -0.12)">
      <defs>
       <path id="DejaVuSans-45" d="M 628 4666 
L 3578 4666 
L 3578 4134 
L 1259 4134 
L 1259 2753 
L 3481 2753 
L 3481 2222 
L 1259 2222 
L 1259 531 
L 3634 531 
L 3634 0 
L 628 0 
L 628 4666 
z
" transform="scale(0.015625)"/>
       <path id="DejaVuSans-70" d="M 1159 525 
L 1159 -1331 
L 581 -1331 
L 581 3500 
L 1159 3500 
L 1159 2969 
Q 1341 3281 1617 3432 
Q 1894 3584 2278 3584 
Q 2916 3584 3314 3078 
Q 3713 2572 3713 1747 
Q 3713 922 3314 415 
Q 2916 -91 2278 -91 
Q 1894 -91 1617 61 
Q 1341 213 1159 525 
z
M 3116 1747 
Q 3116 2381 2855 2742 
Q 2594 3103 2138 3103 
Q 1681 3103 1420 2742 
Q 1159 2381 1159 1747 
Q 1159 1113 1420 752 
Q 1681 391 2138 391 
Q 2594 391 2855 752 
Q 3116 1113 3116 1747 
z
" transform="scale(0.015625)"/>
       <path id="DejaVuSans-6f" d="M 1959 3097 
Q 1497 3097 1228 2736 
Q 959 2375 959 1747 
Q 959 1119 1226 758 
Q 1494 397 1959 397 
Q 2419 397 2687 759 
Q 2956 1122 2956 1747 
Q 2956 2369 2687 2733 
Q 2419 3097 1959 3097 
z
M 1959 3584 
Q 2709 3584 3137 3096 
Q 3566 2609 3566 1747 
Q 3566 888 3137 398 
Q 2709 -91 1959 -91 
Q 1206 -91 779 398 
Q 353 888 353 1747 
Q 353 2609 779 3096 
Q 1206 3584 1959 3584 
z
" transform="scale(0.015625)"/>
       <path id="DejaVuSans-63" d="M 3122 3366 
L 3122 2828 
Q 2878 2963 2633 3030 
Q 2388 3097 2138 3097 
Q 1578 3097 1268 2742 
Q 959 2388 959 1747 
Q 959 1106 1268 751 
Q 1578 397 2138 397 
Q 2388 397 2633 464 
Q 2878 531 3122 666 
L 3122 134 
Q 2881 22 2623 -34 
Q 2366 -91 2075 -91 
Q 1284 -91 818 406 
Q 353 903 353 1747 
Q 353 2603 823 3093 
Q 1294 3584 2113 3584 
Q 2378 3584 2631 3529 
Q 2884 3475 3122 3366 
z
" transform="scale(0.015625)"/>
       <path id="DejaVuSans-68" d="M 3513 2113 
L 3513 0 
L 2938 0 
L 2938 2094 
Q 2938 2591 2744 2837 
Q 2550 3084 2163 3084 
Q 1697 3084 1428 2787 
Q 1159 2491 1159 1978 
L 1159 0 
L 581 0 
L 581 4863 
L 1159 4863 
L 1159 2956 
Q 1366 3272 1645 3428 
Q 1925 3584 2291 3584 
Q 2894 3584 3203 3211 
Q 3513 2838 3513 2113 
z
" transform="scale(0.015625)"/>
      </defs>
      <use xlink:href="#DejaVuSans-45"/>
      <use xlink:href="#DejaVuSans-70" x="63.183594"/>
      <use xlink:href="#DejaVuSans-6f" x="126.660156"/>
      <use xlink:href="#DejaVuSans-63" x="187.841797"/>
      <use xlink:href="#DejaVuSans-68" x="242.822266"/>
     </g>
    </g>
   </g>
   <g id="matplotlib.axis_2">
    <g id="ytick_1">
     <g id="text_8">
      <!-- 0.5 -->
      <g style="fill: #262626" transform="translate(22.81375 390.399141) scale(0.11 -0.11)">
       <defs>
        <path id="DejaVuSans-2e" d="M 684 794 
L 1344 794 
L 1344 0 
L 684 0 
L 684 794 
z
" transform="scale(0.015625)"/>
       </defs>
       <use xlink:href="#DejaVuSans-30"/>
       <use xlink:href="#DejaVuSans-2e" x="63.623047"/>
       <use xlink:href="#DejaVuSans-35" x="95.410156"/>
      </g>
     </g>
    </g>
    <g id="ytick_2">
     <g id="text_9">
      <!-- 0.6 -->
      <g style="fill: #262626" transform="translate(22.81375 330.011141) scale(0.11 -0.11)">
       <defs>
        <path id="DejaVuSans-36" d="M 2113 2584 
Q 1688 2584 1439 2293 
Q 1191 2003 1191 1497 
Q 1191 994 1439 701 
Q 1688 409 2113 409 
Q 2538 409 2786 701 
Q 3034 994 3034 1497 
Q 3034 2003 2786 2293 
Q 2538 2584 2113 2584 
z
M 3366 4563 
L 3366 3988 
Q 3128 4100 2886 4159 
Q 2644 4219 2406 4219 
Q 1781 4219 1451 3797 
Q 1122 3375 1075 2522 
Q 1259 2794 1537 2939 
Q 1816 3084 2150 3084 
Q 2853 3084 3261 2657 
Q 3669 2231 3669 1497 
Q 3669 778 3244 343 
Q 2819 -91 2113 -91 
Q 1303 -91 875 529 
Q 447 1150 447 2328 
Q 447 3434 972 4092 
Q 1497 4750 2381 4750 
Q 2619 4750 2861 4703 
Q 3103 4656 3366 4563 
z
" transform="scale(0.015625)"/>
       </defs>
       <use xlink:href="#DejaVuSans-30"/>
       <use xlink:href="#DejaVuSans-2e" x="63.623047"/>
       <use xlink:href="#DejaVuSans-36" x="95.410156"/>
      </g>
     </g>
    </g>
    <g id="ytick_3">
     <g id="text_10">
      <!-- 0.7 -->
      <g style="fill: #262626" transform="translate(22.81375 269.623141) scale(0.11 -0.11)">
       <defs>
        <path id="DejaVuSans-37" d="M 525 4666 
L 3525 4666 
L 3525 4397 
L 1831 0 
L 1172 0 
L 2766 4134 
L 525 4134 
L 525 4666 
z
" transform="scale(0.015625)"/>
       </defs>
       <use xlink:href="#DejaVuSans-30"/>
       <use xlink:href="#DejaVuSans-2e" x="63.623047"/>
       <use xlink:href="#DejaVuSans-37" x="95.410156"/>
      </g>
     </g>
    </g>
    <g id="ytick_4">
     <g id="text_11">
      <!-- 0.8 -->
      <g style="fill: #262626" transform="translate(22.81375 209.235141) scale(0.11 -0.11)">
       <defs>
        <path id="DejaVuSans-38" d="M 2034 2216 
Q 1584 2216 1326 1975 
Q 1069 1734 1069 1313 
Q 1069 891 1326 650 
Q 1584 409 2034 409 
Q 2484 409 2743 651 
Q 3003 894 3003 1313 
Q 3003 1734 2745 1975 
Q 2488 2216 2034 2216 
z
M 1403 2484 
Q 997 2584 770 2862 
Q 544 3141 544 3541 
Q 544 4100 942 4425 
Q 1341 4750 2034 4750 
Q 2731 4750 3128 4425 
Q 3525 4100 3525 3541 
Q 3525 3141 3298 2862 
Q 3072 2584 2669 2484 
Q 3125 2378 3379 2068 
Q 3634 1759 3634 1313 
Q 3634 634 3220 271 
Q 2806 -91 2034 -91 
Q 1263 -91 848 271 
Q 434 634 434 1313 
Q 434 1759 690 2068 
Q 947 2378 1403 2484 
z
M 1172 3481 
Q 1172 3119 1398 2916 
Q 1625 2713 2034 2713 
Q 2441 2713 2670 2916 
Q 2900 3119 2900 3481 
Q 2900 3844 2670 4047 
Q 2441 4250 2034 4250 
Q 1625 4250 1398 4047 
Q 1172 3844 1172 3481 
z
" transform="scale(0.015625)"/>
       </defs>
       <use xlink:href="#DejaVuSans-30"/>
       <use xlink:href="#DejaVuSans-2e" x="63.623047"/>
       <use xlink:href="#DejaVuSans-38" x="95.410156"/>
      </g>
     </g>
    </g>
    <g id="ytick_5">
     <g id="text_12">
      <!-- 0.9 -->
      <g style="fill: #262626" transform="translate(22.81375 148.847141) scale(0.11 -0.11)">
       <defs>
        <path id="DejaVuSans-39" d="M 703 97 
L 703 672 
Q 941 559 1184 500 
Q 1428 441 1663 441 
Q 2288 441 2617 861 
Q 2947 1281 2994 2138 
Q 2813 1869 2534 1725 
Q 2256 1581 1919 1581 
Q 1219 1581 811 2004 
Q 403 2428 403 3163 
Q 403 3881 828 4315 
Q 1253 4750 1959 4750 
Q 2769 4750 3195 4129 
Q 3622 3509 3622 2328 
Q 3622 1225 3098 567 
Q 2575 -91 1691 -91 
Q 1453 -91 1209 -44 
Q 966 3 703 97 
z
M 1959 2075 
Q 2384 2075 2632 2365 
Q 2881 2656 2881 3163 
Q 2881 3666 2632 3958 
Q 2384 4250 1959 4250 
Q 1534 4250 1286 3958 
Q 1038 3666 1038 3163 
Q 1038 2656 1286 2365 
Q 1534 2075 1959 2075 
z
" transform="scale(0.015625)"/>
       </defs>
       <use xlink:href="#DejaVuSans-30"/>
       <use xlink:href="#DejaVuSans-2e" x="63.623047"/>
       <use xlink:href="#DejaVuSans-39" x="95.410156"/>
      </g>
     </g>
    </g>
    <g id="ytick_6">
     <g id="text_13">
      <!-- 1.0 -->
      <g style="fill: #262626" transform="translate(22.81375 88.459141) scale(0.11 -0.11)">
       <use xlink:href="#DejaVuSans-31"/>
       <use xlink:href="#DejaVuSans-2e" x="63.623047"/>
       <use xlink:href="#DejaVuSans-30" x="95.410156"/>
      </g>
     </g>
    </g>
    <g id="text_14">
     <!-- AUC -->
     <g style="fill: #262626" transform="translate(16.318125 247.935313) rotate(-90) scale(0.12 -0.12)">
      <defs>
       <path id="DejaVuSans-41" d="M 2188 4044 
L 1331 1722 
L 3047 1722 
L 2188 4044 
z
M 1831 4666 
L 2547 4666 
L 4325 0 
L 3669 0 
L 3244 1197 
L 1141 1197 
L 716 0 
L 50 0 
L 1831 4666 
z
" transform="scale(0.015625)"/>
       <path id="DejaVuSans-55" d="M 556 4666 
L 1191 4666 
L 1191 1831 
Q 1191 1081 1462 751 
Q 1734 422 2344 422 
Q 2950 422 3222 751 
Q 3494 1081 3494 1831 
L 3494 4666 
L 4128 4666 
L 4128 1753 
Q 4128 841 3676 375 
Q 3225 -91 2344 -91 
Q 1459 -91 1007 375 
Q 556 841 556 1753 
L 556 4666 
z
" transform="scale(0.015625)"/>
       <path id="DejaVuSans-43" d="M 4122 4306 
L 4122 3641 
Q 3803 3938 3442 4084 
Q 3081 4231 2675 4231 
Q 1875 4231 1450 3742 
Q 1025 3253 1025 2328 
Q 1025 1406 1450 917 
Q 1875 428 2675 428 
Q 3081 428 3442 575 
Q 3803 722 4122 1019 
L 4122 359 
Q 3791 134 3420 21 
Q 3050 -91 2638 -91 
Q 1578 -91 968 557 
Q 359 1206 359 2328 
Q 359 3453 968 4101 
Q 1578 4750 2638 4750 
Q 3056 4750 3426 4639 
Q 3797 4528 4122 4306 
z
" transform="scale(0.015625)"/>
      </defs>
      <use xlink:href="#DejaVuSans-41"/>
      <use xlink:href="#DejaVuSans-55" x="68.408203"/>
      <use xlink:href="#DejaVuSans-43" x="141.601562"/>
     </g>
    </g>
   </g>
   <g id="line2d_1">
    <path d="M 73.172415 389.915574 
L 82.709242 378.652149 
L 92.24607 375.504027 
L 101.782897 363.181473 
L 111.319725 373.170038 
L 120.856552 342.620031 
L 130.39338 330.200995 
L 139.930207 339.973832 
L 149.467034 317.539127 
L 159.003862 313.248402 
L 168.540689 321.023309 
L 178.077517 297.494785 
L 187.614344 276.771818 
L 197.151172 272.258859 
L 206.687999 261.488684 
L 216.224827 252.787987 
L 225.761654 241.726198 
L 235.298482 241.308834 
L 244.835309 245.167017 
L 254.372136 242.128386 
L 263.908964 237.704321 
L 273.445791 241.31317 
L 282.982619 238.644204 
L 292.519446 236.356829 
L 302.056274 230.639476 
L 311.593101 228.212257 
L 321.129929 226.12977 
L 330.666756 224.212061 
L 340.203584 222.027672 
L 349.740411 220.143569 
L 359.277239 218.727781 
L 368.814066 218.541322 
L 378.350893 220.053591 
L 387.887721 217.128786 
L 397.424548 216.901133 
L 406.961376 214.465241 
L 416.498203 213.908033 
L 426.035031 214.800217 
L 435.571858 212.201716 
L 445.108686 210.795685 
L 454.645513 213.131843 
L 464.182341 208.075768 
L 473.719168 210.901923 
L 483.255995 213.350824 
L 492.792823 207.109868 
L 502.32965 207.287654 
L 511.866478 208.969037 
L 521.403305 207.922915 
L 530.940133 208.97771 
L 540.47696 208.190679 
" clip-path="url(#p508c49979c)" style="fill: none; stroke: #0072b2; stroke-width: 2.5; stroke-linecap: round"/>
   </g>
   <g id="line2d_2">
    <path d="M 73.172415 367.961111 
L 82.709242 327.619838 
L 92.24607 311.586532 
L 101.782897 303.225147 
L 111.319725 290.590381 
L 120.856552 280.238655 
L 130.39338 273.7527 
L 139.930207 265.521402 
L 149.467034 256.868403 
L 159.003862 249.644201 
L 168.540689 243.537669 
L 178.077517 237.477751 
L 187.614344 235.62075 
L 197.151172 233.450454 
L 206.687999 230.114789 
L 216.224827 228.171063 
L 225.761654 227.31682 
L 235.298482 226.91138 
L 244.835309 223.751334 
L 254.372136 223.842395 
L 263.908964 222.69654 
L 273.445791 220.409164 
L 282.982619 219.399901 
L 292.519446 218.436168 
L 302.056274 217.783561 
L 311.593101 216.524963 
L 321.129929 215.82249 
L 330.666756 216.416557 
L 340.203584 214.566059 
L 349.740411 214.069558 
L 359.277239 213.936218 
L 368.814066 212.904189 
L 378.350893 212.510675 
L 387.887721 210.988648 
L 397.424548 210.692699 
L 406.961376 210.726305 
L 416.498203 208.960365 
L 426.035031 208.816184 
L 435.571858 208.623221 
L 445.108686 207.239955 
L 454.645513 206.805246 
L 464.182341 206.556995 
L 473.719168 206.154807 
L 483.255995 205.745031 
L 492.792823 205.307069 
L 502.32965 205.745031 
L 511.866478 204.81924 
L 521.403305 204.735767 
L 530.940133 204.771542 
L 540.47696 204.453911 
" clip-path="url(#p508c49979c)" style="fill: none; stroke: #d55e00; stroke-width: 2.5; stroke-linecap: round"/>
   </g>
   <g id="line2d_3">
    <path d="M 73.172415 400.491702 
L 82.709242 379.502055 
L 92.24607 347.233807 
L 101.782897 360.023594 
L 111.319725 352.023202 
L 120.856552 355.801165 
L 130.39338 345.756228 
L 139.930207 337.031682 
L 149.467034 328.330984 
L 159.003862 328.009017 
L 168.540689 328.751601 
L 178.077517 324.642999 
L 187.614344 323.466789 
L 197.151172 317.749436 
L 206.687999 317.728839 
L 216.224827 310.145811 
L 225.761654 315.191045 
L 235.298482 306.092496 
L 244.835309 304.070717 
L 254.372136 299.30734 
L 263.908964 295.344002 
L 273.445791 294.021444 
L 282.982619 291.020755 
L 292.519446 292.046279 
L 302.056274 284.055644 
L 311.593101 284.824245 
L 321.129929 274.40639 
L 330.666756 275.178244 
L 340.203584 278.921517 
L 349.740411 266.538254 
L 359.277239 272.062644 
L 368.814066 267.557274 
L 378.350893 261.040966 
L 387.887721 261.305478 
L 397.424548 259.917875 
L 406.961376 264.094774 
L 416.498203 260.533624 
L 426.035031 252.983119 
L 435.571858 257.812624 
L 445.108686 256.83263 
L 454.645513 253.363625 
L 464.182341 249.21166 
L 473.719168 248.663123 
L 483.255995 245.500909 
L 492.792823 247.498839 
L 502.32965 248.600248 
L 511.866478 242.247633 
L 521.403305 242.877474 
L 530.940133 248.079897 
L 540.47696 240.285477 
" clip-path="url(#p508c49979c)" style="fill: none; stroke-dasharray: 9.25,4; stroke-dashoffset: 0; stroke: #009e73; stroke-width: 2.5"/>
   </g>
   <g id="line2d_4">
    <path clip-path="url(#p508c49979c)" style="fill: none; stroke-dasharray: 9.25,4; stroke-dashoffset: 0; stroke: #cc79a7; stroke-width: 2.5"/>
   </g>
   <g id="patch_3">
    <path d="M 49.807187 386.22 
L 49.807187 84.28 
" style="fill: none; stroke: #262626; stroke-width: 1.25; stroke-linejoin: miter; stroke-linecap: square"/>
   </g>
   <g id="patch_4">
    <path d="M 563.842188 386.22 
L 563.842188 84.28 
" style="fill: none; stroke: #262626; stroke-width: 1.25; stroke-linejoin: miter; stroke-linecap: square"/>
   </g>
   <g id="patch_5">
    <path d="M 49.807187 386.22 
L 563.842188 386.22 
" style="fill: none; stroke: #262626; stroke-width: 1.25; stroke-linejoin: miter; stroke-linecap: square"/>
   </g>
   <g id="patch_6">
    <path d="M 49.807187 84.28 
L 563.842188 84.28 
" style="fill: none; stroke: #262626; stroke-width: 1.25; stroke-linejoin: miter; stroke-linecap: square"/>
   </g>
   <g id="text_15">
    <!-- (a) Training AUC Comparison -->
    <g style="fill: #262626" transform="translate(206.071719 74.28) scale(0.14 -0.14)">
     <defs>
      <path id="DejaVuSans-28" d="M 1984 4856 
Q 1566 4138 1362 3434 
Q 1159 2731 1159 2009 
Q 1159 1288 1364 580 
Q 1569 -128 1984 -844 
L 1484 -844 
Q 1016 -109 783 600 
Q 550 1309 550 2009 
Q 550 2706 781 3412 
Q 1013 4119 1484 4856 
L 1984 4856 
z
" transform="scale(0.015625)"/>
      <path id="DejaVuSans-61" d="M 2194 1759 
Q 1497 1759 1228 1600 
Q 959 1441 959 1056 
Q 959 750 1161 570 
Q 1363 391 1709 391 
Q 2188 391 2477 730 
Q 2766 1069 2766 1631 
L 2766 1759 
L 2194 1759 
z
M 3341 1997 
L 3341 0 
L 2766 0 
L 2766 531 
Q 2569 213 2275 61 
Q 1981 -91 1556 -91 
Q 1019 -91 701 211 
Q 384 513 384 1019 
Q 384 1609 779 1909 
Q 1175 2209 1959 2209 
L 2766 2209 
L 2766 2266 
Q 2766 2663 2505 2880 
Q 2244 3097 1772 3097 
Q 1472 3097 1187 3025 
Q 903 2953 641 2809 
L 641 3341 
Q 956 3463 1253 3523 
Q 1550 3584 1831 3584 
Q 2591 3584 2966 3190 
Q 3341 2797 3341 1997 
z
" transform="scale(0.015625)"/>
      <path id="DejaVuSans-29" d="M 513 4856 
L 1013 4856 
Q 1481 4119 1714 3412 
Q 1947 2706 1947 2009 
Q 1947 1309 1714 600 
Q 1481 -109 1013 -844 
L 513 -844 
Q 928 -128 1133 580 
Q 1338 1288 1338 2009 
Q 1338 2731 1133 3434 
Q 928 4138 513 4856 
z
" transform="scale(0.015625)"/>
      <path id="DejaVuSans-20" transform="scale(0.015625)"/>
      <path id="DejaVuSans-54" d="M -19 4666 
L 3928 4666 
L 3928 4134 
L 2272 4134 
L 2272 0 
L 1638 0 
L 1638 4134 
L -19 4134 
L -19 4666 
z
" transform="scale(0.015625)"/>
      <path id="DejaVuSans-72" d="M 2631 2963 
Q 2534 3019 2420 3045 
Q 2306 3072 2169 3072 
Q 1681 3072 1420 2755 
Q 1159 2438 1159 1844 
L 1159 0 
L 581 0 
L 581 3500 
L 1159 3500 
L 1159 2956 
Q 1341 3275 1631 3429 
Q 1922 3584 2338 3584 
Q 2397 3584 2469 3576 
Q 2541 3569 2628 3553 
L 2631 2963 
z
" transform="scale(0.015625)"/>
      <path id="DejaVuSans-69" d="M 603 3500 
L 1178 3500 
L 1178 0 
L 603 0 
L 603 3500 
z
M 603 4863 
L 1178 4863 
L 1178 4134 
L 603 4134 
L 603 4863 
z
" transform="scale(0.015625)"/>
      <path id="DejaVuSans-6e" d="M 3513 2113 
L 3513 0 
L 2938 0 
L 2938 2094 
Q 2938 2591 2744 2837 
Q 2550 3084 2163 3084 
Q 1697 3084 1428 2787 
Q 1159 2491 1159 1978 
L 1159 0 
L 581 0 
L 581 3500 
L 1159 3500 
L 1159 2956 
Q 1366 3272 1645 3428 
Q 1925 3584 2291 3584 
Q 2894 3584 3203 3211 
Q 3513 2838 3513 2113 
z
" transform="scale(0.015625)"/>
      <path id="DejaVuSans-67" d="M 2906 1791 
Q 2906 2416 2648 2759 
Q 2391 3103 1925 3103 
Q 1463 3103 1205 2759 
Q 947 2416 947 1791 
Q 947 1169 1205 825 
Q 1463 481 1925 481 
Q 2391 481 2648 825 
Q 2906 1169 2906 1791 
z
M 3481 434 
Q 3481 -459 3084 -895 
Q 2688 -1331 1869 -1331 
Q 1566 -1331 1297 -1286 
Q 1028 -1241 775 -1147 
L 775 -588 
Q 1028 -725 1275 -790 
Q 1522 -856 1778 -856 
Q 2344 -856 2625 -561 
Q 2906 -266 2906 331 
L 2906 616 
Q 2728 306 2450 153 
Q 2172 0 1784 0 
Q 1141 0 747 490 
Q 353 981 353 1791 
Q 353 2603 747 3093 
Q 1141 3584 1784 3584 
Q 2172 3584 2450 3431 
Q 2728 3278 2906 2969 
L 2906 3500 
L 3481 3500 
L 3481 434 
z
" transform="scale(0.015625)"/>
      <path id="DejaVuSans-6d" d="M 3328 2828 
Q 3544 3216 3844 3400 
Q 4144 3584 4550 3584 
Q 5097 3584 5394 3201 
Q 5691 2819 5691 2113 
L 5691 0 
L 5113 0 
L 5113 2094 
Q 5113 2597 4934 2840 
Q 4756 3084 4391 3084 
Q 3944 3084 3684 2787 
Q 3425 2491 3425 1978 
L 3425 0 
L 2847 0 
L 2847 2094 
Q 2847 2600 2669 2842 
Q 2491 3084 2119 3084 
Q 1678 3084 1418 2786 
Q 1159 2488 1159 1978 
L 1159 0 
L 581 0 
L 581 3500 
L 1159 3500 
L 1159 2956 
Q 1356 3278 1631 3431 
Q 1906 3584 2284 3584 
Q 2666 3584 2933 3390 
Q 3200 3197 3328 2828 
z
" transform="scale(0.015625)"/>
      <path id="DejaVuSans-73" d="M 2834 3397 
L 2834 2853 
Q 2591 2978 2328 3040 
Q 2066 3103 1784 3103 
Q 1356 3103 1142 2972 
Q 928 2841 928 2578 
Q 928 2378 1081 2264 
Q 1234 2150 1697 2047 
L 1894 2003 
Q 2506 1872 2764 1633 
Q 3022 1394 3022 966 
Q 3022 478 2636 193 
Q 2250 -91 1575 -91 
Q 1294 -91 989 -36 
Q 684 19 347 128 
L 347 722 
Q 666 556 975 473 
Q 1284 391 1588 391 
Q 1994 391 2212 530 
Q 2431 669 2431 922 
Q 2431 1156 2273 1281 
Q 2116 1406 1581 1522 
L 1381 1569 
Q 847 1681 609 1914 
Q 372 2147 372 2553 
Q 372 3047 722 3315 
Q 1072 3584 1716 3584 
Q 2034 3584 2315 3537 
Q 2597 3491 2834 3397 
z
" transform="scale(0.015625)"/>
     </defs>
     <use xlink:href="#DejaVuSans-28"/>
     <use xlink:href="#DejaVuSans-61" x="39.013672"/>
     <use xlink:href="#DejaVuSans-29" x="100.292969"/>
     <use xlink:href="#DejaVuSans-20" x="139.306641"/>
     <use xlink:href="#DejaVuSans-54" x="171.09375"/>
     <use xlink:href="#DejaVuSans-72" x="217.427734"/>
     <use xlink:href="#DejaVuSans-61" x="258.541016"/>
     <use xlink:href="#DejaVuSans-69" x="319.820312"/>
     <use xlink:href="#DejaVuSans-6e" x="347.603516"/>
     <use xlink:href="#DejaVuSans-69" x="410.982422"/>
     <use xlink:href="#DejaVuSans-6e" x="438.765625"/>
     <use xlink:href="#DejaVuSans-67" x="502.144531"/>
     <use xlink:href="#DejaVuSans-20" x="565.621094"/>
     <use xlink:href="#DejaVuSans-41" x="597.408203"/>
     <use xlink:href="#DejaVuSans-55" x="665.816406"/>
     <use xlink:href="#DejaVuSans-43" x="739.009766"/>
     <use xlink:href="#DejaVuSans-20" x="808.833984"/>
     <use xlink:href="#DejaVuSans-43" x="840.621094"/>
     <use xlink:href="#DejaVuSans-6f" x="910.445312"/>
     <use xlink:href="#DejaVuSans-6d" x="971.626953"/>
     <use xlink:href="#DejaVuSans-70" x="1069.039062"/>
     <use xlink:href="#DejaVuSans-61" x="1132.515625"/>
     <use xlink:href="#DejaVuSans-72" x="1193.794922"/>
     <use xlink:href="#DejaVuSans-69" x="1234.908203"/>
     <use xlink:href="#DejaVuSans-73" x="1262.691406"/>
     <use xlink:href="#DejaVuSans-6f" x="1314.791016"/>
     <use xlink:href="#DejaVuSans-6e" x="1375.972656"/>
    </g>
   </g>
   <g id="legend_1">
    <g id="patch_7">
     <path d="M 470.378281 157.66375 
L 556.142188 157.66375 
Q 558.342188 157.66375 558.342188 155.46375 
L 558.342188 91.98 
Q 558.342188 89.78 556.142188 89.78 
L 470.378281 89.78 
Q 468.178281 89.78 468.178281 91.98 
L 468.178281 155.46375 
Q 468.178281 157.66375 470.378281 157.66375 
z
" style="fill: #ffffff; opacity: 0.8; stroke: #cccccc; stroke-linejoin: miter"/>
    </g>
    <g id="line2d_5">
     <path d="M 472.578281 98.688281 
L 483.578281 98.688281 
L 494.578281 98.688281 
" style="fill: none; stroke: #0072b2; stroke-width: 2.5; stroke-linecap: round"/>
    </g>
    <g id="text_16">
     <!-- HQTCN-C -->
     <g style="fill: #262626" transform="translate(503.378281 102.538281) scale(0.11 -0.11)">
      <defs>
       <path id="DejaVuSans-48" d="M 628 4666 
L 1259 4666 
L 1259 2753 
L 3553 2753 
L 3553 4666 
L 4184 4666 
L 4184 0 
L 3553 0 
L 3553 2222 
L 1259 2222 
L 1259 0 
L 628 0 
L 628 4666 
z
" transform="scale(0.015625)"/>
       <path id="DejaVuSans-51" d="M 2522 4238 
Q 1834 4238 1429 3725 
Q 1025 3213 1025 2328 
Q 1025 1447 1429 934 
Q 1834 422 2522 422 
Q 3209 422 3611 934 
Q 4013 1447 4013 2328 
Q 4013 3213 3611 3725 
Q 3209 4238 2522 4238 
z
M 3406 84 
L 4238 -825 
L 3475 -825 
L 2784 -78 
Q 2681 -84 2626 -87 
Q 2572 -91 2522 -91 
Q 1538 -91 948 567 
Q 359 1225 359 2328 
Q 359 3434 948 4092 
Q 1538 4750 2522 4750 
Q 3503 4750 4090 4092 
Q 4678 3434 4678 2328 
Q 4678 1516 4351 937 
Q 4025 359 3406 84 
z
" transform="scale(0.015625)"/>
       <path id="DejaVuSans-4e" d="M 628 4666 
L 1478 4666 
L 3547 763 
L 3547 4666 
L 4159 4666 
L 4159 0 
L 3309 0 
L 1241 3903 
L 1241 0 
L 628 0 
L 628 4666 
z
" transform="scale(0.015625)"/>
       <path id="DejaVuSans-2d" d="M 313 2009 
L 1997 2009 
L 1997 1497 
L 313 1497 
L 313 2009 
z
" transform="scale(0.015625)"/>
      </defs>
      <use xlink:href="#DejaVuSans-48"/>
      <use xlink:href="#DejaVuSans-51" x="75.195312"/>
      <use xlink:href="#DejaVuSans-54" x="153.90625"/>
      <use xlink:href="#DejaVuSans-43" x="209.115234"/>
      <use xlink:href="#DejaVuSans-4e" x="278.939453"/>
      <use xlink:href="#DejaVuSans-2d" x="353.744141"/>
      <use xlink:href="#DejaVuSans-43" x="389.828125"/>
     </g>
    </g>
    <g id="line2d_6">
     <path d="M 472.578281 114.834219 
L 483.578281 114.834219 
L 494.578281 114.834219 
" style="fill: none; stroke: #d55e00; stroke-width: 2.5; stroke-linecap: round"/>
    </g>
    <g id="text_17">
     <!-- HQTCN-R -->
     <g style="fill: #262626" transform="translate(503.378281 118.684219) scale(0.11 -0.11)">
      <defs>
       <path id="DejaVuSans-52" d="M 2841 2188 
Q 3044 2119 3236 1894 
Q 3428 1669 3622 1275 
L 4263 0 
L 3584 0 
L 2988 1197 
Q 2756 1666 2539 1819 
Q 2322 1972 1947 1972 
L 1259 1972 
L 1259 0 
L 628 0 
L 628 4666 
L 2053 4666 
Q 2853 4666 3247 4331 
Q 3641 3997 3641 3322 
Q 3641 2881 3436 2590 
Q 3231 2300 2841 2188 
z
M 1259 4147 
L 1259 2491 
L 2053 2491 
Q 2509 2491 2742 2702 
Q 2975 2913 2975 3322 
Q 2975 3731 2742 3939 
Q 2509 4147 2053 4147 
L 1259 4147 
z
" transform="scale(0.015625)"/>
      </defs>
      <use xlink:href="#DejaVuSans-48"/>
      <use xlink:href="#DejaVuSans-51" x="75.195312"/>
      <use xlink:href="#DejaVuSans-54" x="153.90625"/>
      <use xlink:href="#DejaVuSans-43" x="209.115234"/>
      <use xlink:href="#DejaVuSans-4e" x="278.939453"/>
      <use xlink:href="#DejaVuSans-2d" x="353.744141"/>
      <use xlink:href="#DejaVuSans-52" x="389.828125"/>
     </g>
    </g>
    <g id="line2d_7">
     <path d="M 472.578281 130.980156 
L 483.578281 130.980156 
L 494.578281 130.980156 
" style="fill: none; stroke-dasharray: 9.25,4; stroke-dashoffset: 0; stroke: #009e73; stroke-width: 2.5"/>
    </g>
    <g id="text_18">
     <!-- TCN -->
     <g style="fill: #262626" transform="translate(503.378281 134.830156) scale(0.11 -0.11)">
      <use xlink:href="#DejaVuSans-54"/>
      <use xlink:href="#DejaVuSans-43" x="55.208984"/>
      <use xlink:href="#DejaVuSans-4e" x="125.033203"/>
     </g>
    </g>
    <g id="line2d_8">
     <path d="M 472.578281 147.126094 
L 483.578281 147.126094 
L 494.578281 147.126094 
" style="fill: none; stroke-dasharray: 9.25,4; stroke-dashoffset: 0; stroke: #cc79a7; stroke-width: 2.5"/>
    </g>
    <g id="text_19">
     <!-- QLSTM -->
     <g style="fill: #262626" transform="translate(503.378281 150.976094) scale(0.11 -0.11)">
      <defs>
       <path id="DejaVuSans-4c" d="M 628 4666 
L 1259 4666 
L 1259 531 
L 3531 531 
L 3531 0 
L 628 0 
L 628 4666 
z
" transform="scale(0.015625)"/>
       <path id="DejaVuSans-53" d="M 3425 4513 
L 3425 3897 
Q 3066 4069 2747 4153 
Q 2428 4238 2131 4238 
Q 1616 4238 1336 4038 
Q 1056 3838 1056 3469 
Q 1056 3159 1242 3001 
Q 1428 2844 1947 2747 
L 2328 2669 
Q 3034 2534 3370 2195 
Q 3706 1856 3706 1288 
Q 3706 609 3251 259 
Q 2797 -91 1919 -91 
Q 1588 -91 1214 -16 
Q 841 59 441 206 
L 441 856 
Q 825 641 1194 531 
Q 1563 422 1919 422 
Q 2459 422 2753 634 
Q 3047 847 3047 1241 
Q 3047 1584 2836 1778 
Q 2625 1972 2144 2069 
L 1759 2144 
Q 1053 2284 737 2584 
Q 422 2884 422 3419 
Q 422 4038 858 4394 
Q 1294 4750 2059 4750 
Q 2388 4750 2728 4690 
Q 3069 4631 3425 4513 
z
" transform="scale(0.015625)"/>
       <path id="DejaVuSans-4d" d="M 628 4666 
L 1569 4666 
L 2759 1491 
L 3956 4666 
L 4897 4666 
L 4897 0 
L 4281 0 
L 4281 4097 
L 3078 897 
L 2444 897 
L 1241 4097 
L 1241 0 
L 628 0 
L 628 4666 
z
" transform="scale(0.015625)"/>
      </defs>
      <use xlink:href="#DejaVuSans-51"/>
      <use xlink:href="#DejaVuSans-4c" x="78.710938"/>
      <use xlink:href="#DejaVuSans-53" x="134.423828"/>
      <use xlink:href="#DejaVuSans-54" x="197.900391"/>
      <use xlink:href="#DejaVuSans-4d" x="258.984375"/>
     </g>
    </g>
   </g>
  </g>
  <g id="axes_2">
   <g id="patch_8">
    <path d="M 619.327187 386.22 
L 1133.362187 386.22 
L 1133.362187 84.28 
L 619.327187 84.28 
z
" style="fill: #ffffff"/>
   </g>
   <g id="matplotlib.axis_3">
    <g id="xtick_7">
     <g id="text_20">
      <!-- 0 -->
      <g style="fill: #262626" transform="translate(629.656212 404.078281) scale(0.11 -0.11)">
       <use xlink:href="#DejaVuSans-30"/>
      </g>
     </g>
    </g>
    <g id="xtick_8">
     <g id="text_21">
      <!-- 10 -->
      <g style="fill: #262626" transform="translate(721.525112 404.078281) scale(0.11 -0.11)">
       <use xlink:href="#DejaVuSans-31"/>
       <use xlink:href="#DejaVuSans-30" x="63.623047"/>
      </g>
     </g>
    </g>
    <g id="xtick_9">
     <g id="text_22">
      <!-- 20 -->
      <g style="fill: #262626" transform="translate(816.893386 404.078281) scale(0.11 -0.11)">
       <use xlink:href="#DejaVuSans-32"/>
       <use xlink:href="#DejaVuSans-30" x="63.623047"/>
      </g>
     </g>
    </g>
    <g id="xtick_10">
     <g id="text_23">
      <!-- 30 -->
      <g style="fill: #262626" transform="translate(912.261661 404.078281) scale(0.11 -0.11)">
       <use xlink:href="#DejaVuSans-33"/>
       <use xlink:href="#DejaVuSans-30" x="63.623047"/>
      </g>
     </g>
    </g>
    <g id="xtick_11">
     <g id="text_24">
      <!-- 40 -->
      <g style="fill: #262626" transform="translate(1007.629936 404.078281) scale(0.11 -0.11)">
       <use xlink:href="#DejaVuSans-34"/>
       <use xlink:href="#DejaVuSans-30" x="63.623047"/>
      </g>
     </g>
    </g>
    <g id="xtick_12">
     <g id="text_25">
      <!-- 50 -->
      <g style="fill: #262626" transform="translate(1102.99821 404.078281) scale(0.11 -0.11)">
       <use xlink:href="#DejaVuSans-35"/>
       <use xlink:href="#DejaVuSans-30" x="63.623047"/>
      </g>
     </g>
    </g>
    <g id="text_26">
     <!-- Epoch -->
     <g style="fill: #262626" transform="translate(857.971563 419.484062) scale(0.12 -0.12)">
      <use xlink:href="#DejaVuSans-45"/>
      <use xlink:href="#DejaVuSans-70" x="63.183594"/>
      <use xlink:href="#DejaVuSans-6f" x="126.660156"/>
      <use xlink:href="#DejaVuSans-63" x="187.841797"/>
      <use xlink:href="#DejaVuSans-68" x="242.822266"/>
     </g>
    </g>
   </g>
   <g id="matplotlib.axis_4">
    <g id="ytick_7">
     <g id="text_27">
      <!-- 0.5 -->
      <g style="fill: #262626" transform="translate(592.33375 390.399141) scale(0.11 -0.11)">
       <use xlink:href="#DejaVuSans-30"/>
       <use xlink:href="#DejaVuSans-2e" x="63.623047"/>
       <use xlink:href="#DejaVuSans-35" x="95.410156"/>
      </g>
     </g>
    </g>
    <g id="ytick_8">
     <g id="text_28">
      <!-- 0.6 -->
      <g style="fill: #262626" transform="translate(592.33375 330.011141) scale(0.11 -0.11)">
       <use xlink:href="#DejaVuSans-30"/>
       <use xlink:href="#DejaVuSans-2e" x="63.623047"/>
       <use xlink:href="#DejaVuSans-36" x="95.410156"/>
      </g>
     </g>
    </g>
    <g id="ytick_9">
     <g id="text_29">
      <!-- 0.7 -->
      <g style="fill: #262626" transform="translate(592.33375 269.623141) scale(0.11 -0.11)">
       <use xlink:href="#DejaVuSans-30"/>
       <use xlink:href="#DejaVuSans-2e" x="63.623047"/>
       <use xlink:href="#DejaVuSans-37" x="95.410156"/>
      </g>
     </g>
    </g>
    <g id="ytick_10">
     <g id="text_30">
      <!-- 0.8 -->
      <g style="fill: #262626" transform="translate(592.33375 209.235141) scale(0.11 -0.11)">
       <use xlink:href="#DejaVuSans-30"/>
       <use xlink:href="#DejaVuSans-2e" x="63.623047"/>
       <use xlink:href="#DejaVuSans-38" x="95.410156"/>
      </g>
     </g>
    </g>
    <g id="ytick_11">
     <g id="text_31">
      <!-- 0.9 -->
      <g style="fill: #262626" transform="translate(592.33375 148.847141) scale(0.11 -0.11)">
       <use xlink:href="#DejaVuSans-30"/>
       <use xlink:href="#DejaVuSans-2e" x="63.623047"/>
       <use xlink:href="#DejaVuSans-39" x="95.410156"/>
      </g>
     </g>
    </g>
    <g id="ytick_12">
     <g id="text_32">
      <!-- 1.0 -->
      <g style="fill: #262626" transform="translate(592.33375 88.459141) scale(0.11 -0.11)">
       <use xlink:href="#DejaVuSans-31"/>
       <use xlink:href="#DejaVuSans-2e" x="63.623047"/>
       <use xlink:href="#DejaVuSans-30" x="95.410156"/>
      </g>
     </g>
    </g>
    <g id="text_33">
     <!-- AUC -->
     <g style="fill: #262626" transform="translate(585.838125 247.935313) rotate(-90) scale(0.12 -0.12)">
      <use xlink:href="#DejaVuSans-41"/>
      <use xlink:href="#DejaVuSans-55" x="68.408203"/>
      <use xlink:href="#DejaVuSans-43" x="141.601562"/>
     </g>
    </g>
   </g>
   <g id="line2d_9">
    <path d="M 642.692415 355.40787 
L 652.229242 351.680216 
L 661.76607 348.943457 
L 671.302897 346.371847 
L 680.839725 344.130536 
L 690.376552 340.89833 
L 699.91338 335.424812 
L 709.450207 331.46123 
L 718.987034 326.719088 
L 728.523862 319.947968 
L 738.060689 312.799366 
L 747.597517 301.687181 
L 757.134344 288.144943 
L 766.671172 282.081607 
L 776.207999 276.914794 
L 785.744827 276.867609 
L 795.281654 279.085327 
L 804.818482 278.212396 
L 814.355309 277.363057 
L 823.892136 277.363057 
L 833.428964 275.617193 
L 842.965791 276.324976 
L 852.502619 273.564624 
L 862.039446 269.719006 
L 871.576274 266.887876 
L 881.113101 266.887876 
L 890.649929 264.69375 
L 900.186756 262.735552 
L 909.723584 261.225617 
L 919.260411 260.753761 
L 928.797239 259.102269 
L 938.334066 258.370894 
L 947.870893 256.955329 
L 957.407721 256.035212 
L 966.944548 255.374615 
L 976.481376 255.445393 
L 986.018203 254.855574 
L 995.555031 254.784796 
L 1005.091858 253.746715 
L 1014.628686 253.982643 
L 1024.165513 252.826598 
L 1033.702341 253.345639 
L 1043.239168 254.90276 
L 1052.775995 253.463602 
L 1062.312823 253.416416 
L 1071.84965 253.01534 
L 1081.386478 253.557973 
L 1090.923305 253.935457 
L 1100.460133 253.69953 
L 1109.99696 252.283964 
" clip-path="url(#p83853a5e4f)" style="fill: none; stroke: #0072b2; stroke-width: 2.5; stroke-linecap: round"/>
   </g>
   <g id="line2d_10">
    <path d="M 642.692415 349.792796 
L 652.229242 342.455451 
L 661.76607 328.88962 
L 671.302897 322.779099 
L 680.839725 315.795645 
L 690.376552 308.080816 
L 699.91338 302.748854 
L 709.450207 298.808865 
L 718.987034 290.315476 
L 728.523862 284.841958 
L 738.060689 280.618856 
L 747.597517 274.201628 
L 757.134344 274.39037 
L 766.671172 270.403196 
L 776.207999 265.779017 
L 785.744827 261.367173 
L 795.281654 262.310883 
L 804.818482 256.412696 
L 814.355309 254.501683 
L 823.892136 251.080735 
L 833.428964 248.650681 
L 842.965791 247.35308 
L 852.502619 247.447451 
L 862.039446 246.692483 
L 871.576274 245.607217 
L 881.113101 245.017398 
L 890.649929 244.852249 
L 900.186756 243.837761 
L 909.723584 243.177164 
L 919.260411 242.516567 
L 928.797239 241.738006 
L 938.334066 242.422196 
L 947.870893 242.280639 
L 957.407721 243.460276 
L 966.944548 242.304232 
L 976.481376 244.663507 
L 986.018203 244.309615 
L 995.555031 244.238837 
L 1005.091858 244.970213 
L 1014.628686 246.338592 
L 1024.165513 246.432963 
L 1033.702341 246.857632 
L 1043.239168 248.131641 
L 1052.775995 247.400265 
L 1062.312823 248.155234 
L 1071.84965 249.358464 
L 1081.386478 249.617984 
L 1090.923305 250.632472 
L 1100.460133 249.40565 
L 1109.99696 249.948283 
" clip-path="url(#p83853a5e4f)" style="fill: none; stroke: #d55e00; stroke-width: 2.5; stroke-linecap: round"/>
   </g>
   <g id="line2d_11">
    <path d="M 642.692415 373.220395 
L 652.229242 372.559798 
L 661.76607 369.846632 
L 671.302897 367.628914 
L 680.839725 364.019223 
L 690.376552 362.414916 
L 699.91338 360.928573 
L 709.450207 360.032049 
L 718.987034 358.49852 
L 728.523862 356.77625 
L 738.060689 355.832539 
L 747.597517 353.190152 
L 757.134344 351.821772 
L 766.671172 348.825493 
L 776.207999 346.536996 
L 785.744827 343.611495 
L 795.281654 342.856528 
L 804.818482 340.190547 
L 814.355309 337.666123 
L 823.892136 336.580856 
L 833.428964 332.758831 
L 842.965791 331.484823 
L 852.502619 329.385068 
L 862.039446 326.270825 
L 871.576274 326.624716 
L 881.113101 324.619333 
L 890.649929 323.557659 
L 900.186756 323.368917 
L 909.723584 323.015026 
L 919.260411 322.495985 
L 928.797239 322.071316 
L 938.334066 321.104013 
L 947.870893 320.938864 
L 957.407721 321.741017 
L 966.944548 320.13671 
L 976.481376 320.844493 
L 986.018203 322.236465 
L 995.555031 321.033235 
L 1005.091858 321.481497 
L 1014.628686 323.65203 
L 1024.165513 322.637542 
L 1033.702341 324.383405 
L 1043.239168 324.666518 
L 1052.775995 325.79897 
L 1062.312823 326.435974 
L 1071.84965 326.129268 
L 1081.386478 326.176454 
L 1090.923305 326.601124 
L 1100.460133 326.860644 
L 1109.99696 327.827947 
" clip-path="url(#p83853a5e4f)" style="fill: none; stroke-dasharray: 9.25,4; stroke-dashoffset: 0; stroke: #009e73; stroke-width: 2.5"/>
   </g>
   <g id="line2d_12">
    <path clip-path="url(#p83853a5e4f)" style="fill: none; stroke-dasharray: 9.25,4; stroke-dashoffset: 0; stroke: #cc79a7; stroke-width: 2.5"/>
   </g>
   <g id="patch_9">
    <path d="M 619.327187 386.22 
L 619.327187 84.28 
" style="fill: none; stroke: #262626; stroke-width: 1.25; stroke-linejoin: miter; stroke-linecap: square"/>
   </g>
   <g id="patch_10">
    <path d="M 1133.362187 386.22 
L 1133.362187 84.28 
" style="fill: none; stroke: #262626; stroke-width: 1.25; stroke-linejoin: miter; stroke-linecap: square"/>
   </g>
   <g id="patch_11">
    <path d="M 619.327187 386.22 
L 1133.362187 386.22 
" style="fill: none; stroke: #262626; stroke-width: 1.25; stroke-linejoin: miter; stroke-linecap: square"/>
   </g>
   <g id="patch_12">
    <path d="M 619.327187 84.28 
L 1133.362187 84.28 
" style="fill: none; stroke: #262626; stroke-width: 1.25; stroke-linejoin: miter; stroke-linecap: square"/>
   </g>
   <g id="text_34">
    <!-- (b) Validation AUC Comparison -->
    <g style="fill: #262626" transform="translate(768.486719 74.28) scale(0.14 -0.14)">
     <defs>
      <path id="DejaVuSans-62" d="M 3116 1747 
Q 3116 2381 2855 2742 
Q 2594 3103 2138 3103 
Q 1681 3103 1420 2742 
Q 1159 2381 1159 1747 
Q 1159 1113 1420 752 
Q 1681 391 2138 391 
Q 2594 391 2855 752 
Q 3116 1113 3116 1747 
z
M 1159 2969 
Q 1341 3281 1617 3432 
Q 1894 3584 2278 3584 
Q 2916 3584 3314 3078 
Q 3713 2572 3713 1747 
Q 3713 922 3314 415 
Q 2916 -91 2278 -91 
Q 1894 -91 1617 61 
Q 1341 213 1159 525 
L 1159 0 
L 581 0 
L 581 4863 
L 1159 4863 
L 1159 2969 
z
" transform="scale(0.015625)"/>
      <path id="DejaVuSans-56" d="M 1831 0 
L 50 4666 
L 709 4666 
L 2188 738 
L 3669 4666 
L 4325 4666 
L 2547 0 
L 1831 0 
z
" transform="scale(0.015625)"/>
      <path id="DejaVuSans-6c" d="M 603 4863 
L 1178 4863 
L 1178 0 
L 603 0 
L 603 4863 
z
" transform="scale(0.015625)"/>
      <path id="DejaVuSans-64" d="M 2906 2969 
L 2906 4863 
L 3481 4863 
L 3481 0 
L 2906 0 
L 2906 525 
Q 2725 213 2448 61 
Q 2172 -91 1784 -91 
Q 1150 -91 751 415 
Q 353 922 353 1747 
Q 353 2572 751 3078 
Q 1150 3584 1784 3584 
Q 2172 3584 2448 3432 
Q 2725 3281 2906 2969 
z
M 947 1747 
Q 947 1113 1208 752 
Q 1469 391 1925 391 
Q 2381 391 2643 752 
Q 2906 1113 2906 1747 
Q 2906 2381 2643 2742 
Q 2381 3103 1925 3103 
Q 1469 3103 1208 2742 
Q 947 2381 947 1747 
z
" transform="scale(0.015625)"/>
      <path id="DejaVuSans-74" d="M 1172 4494 
L 1172 3500 
L 2356 3500 
L 2356 3053 
L 1172 3053 
L 1172 1153 
Q 1172 725 1289 603 
Q 1406 481 1766 481 
L 2356 481 
L 2356 0 
L 1766 0 
Q 1100 0 847 248 
Q 594 497 594 1153 
L 594 3053 
L 172 3053 
L 172 3500 
L 594 3500 
L 594 4494 
L 1172 4494 
z
" transform="scale(0.015625)"/>
     </defs>
     <use xlink:href="#DejaVuSans-28"/>
     <use xlink:href="#DejaVuSans-62" x="39.013672"/>
     <use xlink:href="#DejaVuSans-29" x="102.490234"/>
     <use xlink:href="#DejaVuSans-20" x="141.503906"/>
     <use xlink:href="#DejaVuSans-56" x="173.291016"/>
     <use xlink:href="#DejaVuSans-61" x="233.949219"/>
     <use xlink:href="#DejaVuSans-6c" x="295.228516"/>
     <use xlink:href="#DejaVuSans-69" x="323.011719"/>
     <use xlink:href="#DejaVuSans-64" x="350.794922"/>
     <use xlink:href="#DejaVuSans-61" x="414.271484"/>
     <use xlink:href="#DejaVuSans-74" x="475.550781"/>
     <use xlink:href="#DejaVuSans-69" x="514.759766"/>
     <use xlink:href="#DejaVuSans-6f" x="542.542969"/>
     <use xlink:href="#DejaVuSans-6e" x="603.724609"/>
     <use xlink:href="#DejaVuSans-20" x="667.103516"/>
     <use xlink:href="#DejaVuSans-41" x="698.890625"/>
     <use xlink:href="#DejaVuSans-55" x="767.298828"/>
     <use xlink:href="#DejaVuSans-43" x="840.492188"/>
     <use xlink:href="#DejaVuSans-20" x="910.316406"/>
     <use xlink:href="#DejaVuSans-43" x="942.103516"/>
     <use xlink:href="#DejaVuSans-6f" x="1011.927734"/>
     <use xlink:href="#DejaVuSans-6d" x="1073.109375"/>
     <use xlink:href="#DejaVuSans-70" x="1170.521484"/>
     <use xlink:href="#DejaVuSans-61" x="1233.998047"/>
     <use xlink:href="#DejaVuSans-72" x="1295.277344"/>
     <use xlink:href="#DejaVuSans-69" x="1336.390625"/>
     <use xlink:href="#DejaVuSans-73" x="1364.173828"/>
     <use xlink:href="#DejaVuSans-6f" x="1416.273438"/>
     <use xlink:href="#DejaVuSans-6e" x="1477.455078"/>
    </g>
   </g>
   <g id="legend_2">
    <g id="patch_13">
     <path d="M 1039.898281 157.66375 
L 1125.662187 157.66375 
Q 1127.862187 157.66375 1127.862187 155.46375 
L 1127.862187 91.98 
Q 1127.862187 89.78 1125.662187 89.78 
L 1039.898281 89.78 
Q 1037.698281 89.78 1037.698281 91.98 
L 1037.698281 155.46375 
Q 1037.698281 157.66375 1039.898281 157.66375 
z
" style="fill: #ffffff; opacity: 0.8; stroke: #cccccc; stroke-linejoin: miter"/>
    </g>
    <g id="line2d_13">
     <path d="M 1042.098281 98.688281 
L 1053.098281 98.688281 
L 1064.098281 98.688281 
" style="fill: none; stroke: #0072b2; stroke-width: 2.5; stroke-linecap: round"/>
    </g>
    <g id="text_35">
     <!-- HQTCN-C -->
     <g style="fill: #262626" transform="translate(1072.898281 102.538281) scale(0.11 -0.11)">
      <use xlink:href="#DejaVuSans-48"/>
      <use xlink:href="#DejaVuSans-51" x="75.195312"/>
      <use xlink:href="#DejaVuSans-54" x="153.90625"/>
      <use xlink:href="#DejaVuSans-43" x="209.115234"/>
      <use xlink:href="#DejaVuSans-4e" x="278.939453"/>
      <use xlink:href="#DejaVuSans-2d" x="353.744141"/>
      <use xlink:href="#DejaVuSans-43" x="389.828125"/>
     </g>
    </g>
    <g id="line2d_14">
     <path d="M 1042.098281 114.834219 
L 1053.098281 114.834219 
L 1064.098281 114.834219 
" style="fill: none; stroke: #d55e00; stroke-width: 2.5; stroke-linecap: round"/>
    </g>
    <g id="text_36">
     <!-- HQTCN-R -->
     <g style="fill: #262626" transform="translate(1072.898281 118.684219) scale(0.11 -0.11)">
      <use xlink:href="#DejaVuSans-48"/>
      <use xlink:href="#DejaVuSans-51" x="75.195312"/>
      <use xlink:href="#DejaVuSans-54" x="153.90625"/>
      <use xlink:href="#DejaVuSans-43" x="209.115234"/>
      <use xlink:href="#DejaVuSans-4e" x="278.939453"/>
      <use xlink:href="#DejaVuSans-2d" x="353.744141"/>
      <use xlink:href="#DejaVuSans-52" x="389.828125"/>
     </g>
    </g>
    <g id="line2d_15">
     <path d="M 1042.098281 130.980156 
L 1053.098281 130.980156 
L 1064.098281 130.980156 
" style="fill: none; stroke-dasharray: 9.25,4; stroke-dashoffset: 0; stroke: #009e73; stroke-width: 2.5"/>
    </g>
    <g id="text_37">
     <!-- TCN -->
     <g style="fill: #262626" transform="translate(1072.898281 134.830156) scale(0.11 -0.11)">
      <use xlink:href="#DejaVuSans-54"/>
      <use xlink:href="#DejaVuSans-43" x="55.208984"/>
      <use xlink:href="#DejaVuSans-4e" x="125.033203"/>
     </g>
    </g>
    <g id="line2d_16">
     <path d="M 1042.098281 147.126094 
L 1053.098281 147.126094 
L 1064.098281 147.126094 
" style="fill: none; stroke-dasharray: 9.25,4; stroke-dashoffset: 0; stroke: #cc79a7; stroke-width: 2.5"/>
    </g>
    <g id="text_38">
     <!-- QLSTM -->
     <g style="fill: #262626" transform="translate(1072.898281 150.976094) scale(0.11 -0.11)">
      <use xlink:href="#DejaVuSans-51"/>
      <use xlink:href="#DejaVuSans-4c" x="78.710938"/>
      <use xlink:href="#DejaVuSans-53" x="134.423828"/>
      <use xlink:href="#DejaVuSans-54" x="197.900391"/>
      <use xlink:href="#DejaVuSans-4d" x="258.984375"/>
     </g>
    </g>
   </g>
  </g>
  <g id="text_39">
   <!-- Model Classification Performance on PhysioNet EEG -->
   <g style="fill: #262626" transform="translate(337.909844 20.877187) scale(0.18 -0.18)">
    <defs>
     <path id="DejaVuSans-65" d="M 3597 1894 
L 3597 1613 
L 953 1613 
Q 991 1019 1311 708 
Q 1631 397 2203 397 
Q 2534 397 2845 478 
Q 3156 559 3463 722 
L 3463 178 
Q 3153 47 2828 -22 
Q 2503 -91 2169 -91 
Q 1331 -91 842 396 
Q 353 884 353 1716 
Q 353 2575 817 3079 
Q 1281 3584 2069 3584 
Q 2775 3584 3186 3129 
Q 3597 2675 3597 1894 
z
M 3022 2063 
Q 3016 2534 2758 2815 
Q 2500 3097 2075 3097 
Q 1594 3097 1305 2825 
Q 1016 2553 972 2059 
L 3022 2063 
z
" transform="scale(0.015625)"/>
     <path id="DejaVuSans-66" d="M 2375 4863 
L 2375 4384 
L 1825 4384 
Q 1516 4384 1395 4259 
Q 1275 4134 1275 3809 
L 1275 3500 
L 2222 3500 
L 2222 3053 
L 1275 3053 
L 1275 0 
L 697 0 
L 697 3053 
L 147 3053 
L 147 3500 
L 697 3500 
L 697 3744 
Q 697 4328 969 4595 
Q 1241 4863 1831 4863 
L 2375 4863 
z
" transform="scale(0.015625)"/>
     <path id="DejaVuSans-50" d="M 1259 4147 
L 1259 2394 
L 2053 2394 
Q 2494 2394 2734 2622 
Q 2975 2850 2975 3272 
Q 2975 3691 2734 3919 
Q 2494 4147 2053 4147 
L 1259 4147 
z
M 628 4666 
L 2053 4666 
Q 2838 4666 3239 4311 
Q 3641 3956 3641 3272 
Q 3641 2581 3239 2228 
Q 2838 1875 2053 1875 
L 1259 1875 
L 1259 0 
L 628 0 
L 628 4666 
z
" transform="scale(0.015625)"/>
     <path id="DejaVuSans-79" d="M 2059 -325 
Q 1816 -950 1584 -1140 
Q 1353 -1331 966 -1331 
L 506 -1331 
L 506 -850 
L 844 -850 
Q 1081 -850 1212 -737 
Q 1344 -625 1503 -206 
L 1606 56 
L 191 3500 
L 800 3500 
L 1894 763 
L 2988 3500 
L 3597 3500 
L 2059 -325 
z
" transform="scale(0.015625)"/>
     <path id="DejaVuSans-47" d="M 3809 666 
L 3809 1919 
L 2778 1919 
L 2778 2438 
L 4434 2438 
L 4434 434 
Q 4069 175 3628 42 
Q 3188 -91 2688 -91 
Q 1594 -91 976 548 
Q 359 1188 359 2328 
Q 359 3472 976 4111 
Q 1594 4750 2688 4750 
Q 3144 4750 3555 4637 
Q 3966 4525 4313 4306 
L 4313 3634 
Q 3963 3931 3569 4081 
Q 3175 4231 2741 4231 
Q 1884 4231 1454 3753 
Q 1025 3275 1025 2328 
Q 1025 1384 1454 906 
Q 1884 428 2741 428 
Q 3075 428 3337 486 
Q 3600 544 3809 666 
z
" transform="scale(0.015625)"/>
    </defs>
    <use xlink:href="#DejaVuSans-4d"/>
    <use xlink:href="#DejaVuSans-6f" x="86.279297"/>
    <use xlink:href="#DejaVuSans-64" x="147.460938"/>
    <use xlink:href="#DejaVuSans-65" x="210.9375"/>
    <use xlink:href="#DejaVuSans-6c" x="272.460938"/>
    <use xlink:href="#DejaVuSans-20" x="300.244141"/>
    <use xlink:href="#DejaVuSans-43" x="332.03125"/>
    <use xlink:href="#DejaVuSans-6c" x="401.855469"/>
    <use xlink:href="#DejaVuSans-61" x="429.638672"/>
    <use xlink:href="#DejaVuSans-73" x="490.917969"/>
    <use xlink:href="#DejaVuSans-73" x="543.017578"/>
    <use xlink:href="#DejaVuSans-69" x="595.117188"/>
    <use xlink:href="#DejaVuSans-66" x="622.900391"/>
    <use xlink:href="#DejaVuSans-69" x="658.105469"/>
    <use xlink:href="#DejaVuSans-63" x="685.888672"/>
    <use xlink:href="#DejaVuSans-61" x="740.869141"/>
    <use xlink:href="#DejaVuSans-74" x="802.148438"/>
    <use xlink:href="#DejaVuSans-69" x="841.357422"/>
    <use xlink:href="#DejaVuSans-6f" x="869.140625"/>
    <use xlink:href="#DejaVuSans-6e" x="930.322266"/>
    <use xlink:href="#DejaVuSans-20" x="993.701172"/>
    <use xlink:href="#DejaVuSans-50" x="1025.488281"/>
    <use xlink:href="#DejaVuSans-65" x="1082.166016"/>
    <use xlink:href="#DejaVuSans-72" x="1143.689453"/>
    <use xlink:href="#DejaVuSans-66" x="1184.802734"/>
    <use xlink:href="#DejaVuSans-6f" x="1220.007812"/>
    <use xlink:href="#DejaVuSans-72" x="1281.189453"/>
    <use xlink:href="#DejaVuSans-6d" x="1320.552734"/>
    <use xlink:href="#DejaVuSans-61" x="1417.964844"/>
    <use xlink:href="#DejaVuSans-6e" x="1479.244141"/>
    <use xlink:href="#DejaVuSans-63" x="1542.623047"/>
    <use xlink:href="#DejaVuSans-65" x="1597.603516"/>
    <use xlink:href="#DejaVuSans-20" x="1659.126953"/>
    <use xlink:href="#DejaVuSans-6f" x="1690.914062"/>
    <use xlink:href="#DejaVuSans-6e" x="1752.095703"/>
    <use xlink:href="#DejaVuSans-20" x="1815.474609"/>
    <use xlink:href="#DejaVuSans-50" x="1847.261719"/>
    <use xlink:href="#DejaVuSans-68" x="1907.564453"/>
    <use xlink:href="#DejaVuSans-79" x="1970.943359"/>
    <use xlink:href="#DejaVuSans-73" x="2030.123047"/>
    <use xlink:href="#DejaVuSans-69" x="2082.222656"/>
    <use xlink:href="#DejaVuSans-6f" x="2110.005859"/>
    <use xlink:href="#DejaVuSans-4e" x="2171.1875"/>
    <use xlink:href="#DejaVuSans-65" x="2245.992188"/>
    <use xlink:href="#DejaVuSans-74" x="2307.515625"/>
    <use xlink:href="#DejaVuSans-20" x="2346.724609"/>
    <use xlink:href="#DejaVuSans-45" x="2378.511719"/>
    <use xlink:href="#DejaVuSans-45" x="2441.695312"/>
    <use xlink:href="#DejaVuSans-47" x="2504.878906"/>
   </g>
  </g>
 </g>
 <defs>
  <clipPath id="p508c49979c">
   <rect x="49.807187" y="84.28" width="514.035" height="301.94"/>
  </clipPath>
  <clipPath id="p83853a5e4f">
   <rect x="619.327187" y="84.28" width="514.035" height="301.94"/>
  </clipPath>
 </defs>
</svg>
